<?xml version="1.0" encoding="utf-8"?>
<!-- Generator: Adobe Illustrator 25.2.3, SVG Export Plug-In . SVG Version: 6.00 Build 0)  -->
<svg version="1.1" id="Layer_1" xmlns="http://www.w3.org/2000/svg" xmlns:xlink="http://www.w3.org/1999/xlink" x="0px" y="0px"
	 viewBox="0 0 634 164" style="enable-background:new 0 0 634 164;" xml:space="preserve">
<style type="text/css">
	.st0{fill:#333231;}
	.st1{enable-background:new    ;}
	.st2{fill:#FFFFFF;}
</style>
<g>
	<path class="st0" d="M272.9,29.7v21.7c0,3.3-0.9,5.7-2.7,7.5c-1.8,1.7-4.3,2.6-7.6,2.6c-3.4,0-5.9-0.9-7.7-2.6
		c-1.8-1.7-2.7-4.3-2.7-7.6V29.7h6.4v21.5c0,1.8,0.3,3,0.9,3.8c0.6,0.8,1.6,1.1,3.1,1.1s2.5-0.4,3.1-1.1s0.8-2,0.9-3.7V29.7H272.9z"
		/>
	<path class="st0" d="M299.5,61h-6.3L284,40.5V61h-6.3V29.7h6.3l9.3,20.5V29.7h6.3V61z"/>
	<path class="st0" d="M335.9,50.6c-0.2,3.6-1.2,6.3-3,8.1c-1.8,1.8-4.5,2.8-7.8,2.8c-3.5,0-6.2-1.2-8.1-3.5c-1.9-2.3-2.8-5.6-2.8-10
		v-5.3c0-4.3,1-7.6,2.9-9.9c1.9-2.3,4.7-3.5,8.1-3.5c3.4,0,6,1,7.8,2.9c1.8,1.9,2.8,4.6,3,8.2h-6.3c-0.1-2.2-0.4-3.7-1-4.6
		s-1.8-1.3-3.4-1.3c-1.7,0-2.9,0.6-3.6,1.8c-0.7,1.2-1.1,3.1-1.1,5.8V48c0,3.1,0.3,5.2,1,6.4s1.9,1.7,3.6,1.7c1.7,0,2.8-0.4,3.4-1.2
		c0.6-0.8,1-2.3,1.1-4.4H335.9z"/>
	<path class="st0" d="M354.8,54.6h-8.6l-1.7,6.4h-6.7l9.8-31.3h5.8l9.8,31.3h-6.7L354.8,54.6z M347.5,49.3h5.8l-2.9-11.2L347.5,49.3
		z"/>
	<path class="st0" d="M388,61h-6.3l-9.2-20.5V61h-6.3V29.7h6.3l9.3,20.5V29.7h6.3V61z"/>
	<path class="st0" d="M412.7,35h-7.7v26h-6.3V35H391v-5.3h21.7V35z"/>
	<path class="st0" d="M437.7,48.2c0,4.2-1,7.5-3,9.8c-2,2.3-4.7,3.5-8.3,3.5c-3.5,0-6.3-1.1-8.3-3.4c-2-2.3-3-5.5-3.1-9.7V43
		c0-4.3,1-7.7,3-10.1c2-2.4,4.8-3.6,8.3-3.6c3.5,0,6.2,1.2,8.2,3.6c2,2.4,3,5.7,3.1,10V48.2z M431.4,42.9c0-2.8-0.4-4.9-1.2-6.3
		c-0.8-1.4-2-2.1-3.7-2.1c-1.7,0-2.9,0.7-3.7,2c-0.8,1.3-1.2,3.3-1.2,6v5.6c0,2.7,0.4,4.8,1.2,6c0.8,1.3,2.1,1.9,3.8,1.9
		c1.6,0,2.9-0.6,3.7-1.9c0.8-1.3,1.2-3.2,1.2-5.9V42.9z"/>
	<path class="st0" d="M474.3,61H468l-9.2-20.5V61h-6.3V29.7h6.3l9.3,20.5V29.7h6.3V61z"/>
	<path class="st0" d="M499.7,29.7v21.7c0,3.3-0.9,5.7-2.7,7.5c-1.8,1.7-4.3,2.6-7.6,2.6c-3.4,0-5.9-0.9-7.7-2.6
		c-1.8-1.7-2.7-4.3-2.7-7.6V29.7h6.4v21.5c0,1.8,0.3,3,0.9,3.8c0.6,0.8,1.6,1.1,3.1,1.1s2.5-0.4,3.1-1.1s0.8-2,0.9-3.7V29.7H499.7z"
		/>
	<path class="st0" d="M520.6,47.5h-9.8v8.3h11.6V61h-18V29.7h17.9V35h-11.6v7.4h9.8V47.5z"/>
	<path class="st0" d="M536.3,52.4l5.3-22.7h7l-9,31.3H533l-9-31.3h7L536.3,52.4z"/>
	<path class="st0" d="M573.3,48.2c0,4.2-1,7.5-3,9.8c-2,2.3-4.7,3.5-8.3,3.5c-3.5,0-6.3-1.1-8.3-3.4c-2-2.3-3-5.5-3.1-9.7V43
		c0-4.3,1-7.7,3-10.1c2-2.4,4.8-3.6,8.3-3.6c3.5,0,6.2,1.2,8.2,3.6c2,2.4,3,5.7,3.1,10V48.2z M566.9,42.9c0-2.8-0.4-4.9-1.2-6.3
		c-0.8-1.4-2-2.1-3.7-2.1c-1.7,0-2.9,0.7-3.7,2c-0.8,1.3-1.2,3.3-1.2,6v5.6c0,2.7,0.4,4.8,1.2,6c0.8,1.3,2.1,1.9,3.8,1.9
		c1.6,0,2.9-0.6,3.7-1.9c0.8-1.3,1.2-3.2,1.2-5.9V42.9z"/>
	<g class="st1">
		<path class="st2" d="M9.8,125.5H4L2.7,130H0.5L6,112.9h1.8l5.5,17.1h-2.2L9.8,125.5z M4.6,123.7h4.7l-2.3-7.8L4.6,123.7z"/>
		<path class="st2" d="M15,123.1c0-2,0.4-3.5,1.1-4.5s1.8-1.5,3.2-1.5c1.3,0,2.3,0.6,2.9,1.7l0.1-1.4h1.9v12.8
			c0,1.6-0.4,2.8-1.2,3.6S21,135,19.5,135c-0.6,0-1.3-0.2-2.1-0.5s-1.4-0.7-1.8-1.1l0.8-1.4c0.9,0.8,1.8,1.3,2.8,1.3
			c1.7,0,2.6-0.9,2.7-2.8v-1.7c-0.7,1-1.6,1.5-2.9,1.5c-1.3,0-2.3-0.5-3.1-1.5s-1.1-2.4-1.1-4.3V123.1z M17,124.3
			c0,1.4,0.2,2.5,0.6,3.1c0.4,0.7,1.1,1,2.1,1c1,0,1.8-0.5,2.3-1.6v-6.3c-0.5-1-1.3-1.6-2.3-1.6c-1,0-1.6,0.3-2.1,1S17,121.6,17,123
			V124.3z"/>
		<path class="st2" d="M32.4,119.3c-0.3-0.1-0.6-0.1-0.9-0.1c-1.1,0-1.8,0.6-2.2,1.7v9.1h-2.1v-12.7h2l0,1.3c0.6-1,1.3-1.5,2.4-1.5
			c0.3,0,0.6,0.1,0.8,0.2L32.4,119.3z"/>
		<path class="st2" d="M38.8,130.2c-1.6,0-2.8-0.5-3.6-1.4s-1.3-2.3-1.3-4.1v-1.5c0-1.9,0.4-3.4,1.2-4.4s2-1.6,3.5-1.6
			c1.5,0,2.6,0.5,3.3,1.4s1.1,2.4,1.1,4.4v1.4H36v0.3c0,1.4,0.3,2.3,0.8,3s1.2,0.9,2.2,0.9c0.6,0,1.1-0.1,1.6-0.3s0.9-0.6,1.3-1.1
			l1.1,1.3C42,129.6,40.7,130.2,38.8,130.2z M38.6,118.9c-0.9,0-1.5,0.3-1.9,0.9s-0.6,1.5-0.7,2.7h5v-0.3c-0.1-1.2-0.3-2.1-0.7-2.6
			S39.4,118.9,38.6,118.9z"/>
		<path class="st2" d="M45.1,123.1c0-2,0.4-3.5,1.1-4.5s1.8-1.5,3.2-1.5c1.3,0,2.3,0.6,2.9,1.7l0.1-1.4h1.9v12.8
			c0,1.6-0.4,2.8-1.2,3.6s-1.9,1.3-3.4,1.3c-0.6,0-1.3-0.2-2.1-0.5s-1.4-0.7-1.8-1.1l0.8-1.4c0.9,0.8,1.8,1.3,2.8,1.3
			c1.7,0,2.6-0.9,2.7-2.8v-1.7c-0.7,1-1.6,1.5-2.9,1.5c-1.3,0-2.3-0.5-3.1-1.5s-1.1-2.4-1.1-4.3V123.1z M47.2,124.3
			c0,1.4,0.2,2.5,0.6,3.1c0.4,0.7,1.1,1,2.1,1c1,0,1.8-0.5,2.3-1.6v-6.3c-0.5-1-1.3-1.6-2.3-1.6c-1,0-1.6,0.3-2.1,1
			s-0.6,1.7-0.6,3.1V124.3z"/>
		<path class="st2" d="M63.8,128.9c-0.7,0.9-1.7,1.3-3,1.3c-1.1,0-2-0.4-2.6-1.2s-0.9-1.9-0.9-3.5v-8.3h2.1v8.1c0,2,0.6,3,1.8,3
			c1.3,0,2.1-0.6,2.6-1.7v-9.4h2.1V130h-2L63.8,128.9z"/>
		<path class="st2" d="M73.5,130.2c-1.6,0-2.8-0.5-3.6-1.4s-1.3-2.3-1.3-4.1v-1.5c0-1.9,0.4-3.4,1.2-4.4s2-1.6,3.5-1.6
			c1.5,0,2.6,0.5,3.3,1.4s1.1,2.4,1.1,4.4v1.4h-7.1v0.3c0,1.4,0.3,2.3,0.8,3s1.2,0.9,2.2,0.9c0.6,0,1.1-0.1,1.6-0.3s0.9-0.6,1.3-1.1
			l1.1,1.3C76.7,129.6,75.3,130.2,73.5,130.2z M73.2,118.9c-0.9,0-1.5,0.3-1.9,0.9s-0.6,1.5-0.7,2.7h5v-0.3
			c-0.1-1.2-0.3-2.1-0.7-2.6S74,118.9,73.2,118.9z"/>
		<path class="st2" d="M90.2,130.2c-1.6,0-2.8-0.5-3.6-1.4s-1.3-2.3-1.3-4.1v-1.5c0-1.9,0.4-3.4,1.2-4.4s2-1.6,3.5-1.6
			c1.5,0,2.6,0.5,3.3,1.4s1.1,2.4,1.1,4.4v1.4h-7.1v0.3c0,1.4,0.3,2.3,0.8,3s1.2,0.9,2.2,0.9c0.6,0,1.1-0.1,1.6-0.3s0.9-0.6,1.3-1.1
			l1.1,1.3C93.4,129.6,92.1,130.2,90.2,130.2z M90,118.9c-0.9,0-1.5,0.3-1.9,0.9s-0.6,1.5-0.7,2.7h5v-0.3c-0.1-1.2-0.3-2.1-0.7-2.6
			S90.8,118.9,90,118.9z"/>
		<path class="st2" d="M99.2,130h-2.1v-18h2.1V130z"/>
		<path class="st2" d="M110.6,114.2v3.1h1.9v1.7h-1.9v7.9c0,0.5,0.1,0.9,0.2,1.1c0.2,0.3,0.4,0.4,0.8,0.4c0.3,0,0.6,0,0.8-0.1l0,1.7
			c-0.5,0.2-0.9,0.2-1.4,0.2c-0.8,0-1.4-0.3-1.9-0.9s-0.6-1.4-0.6-2.5V119h-1.9v-1.7h1.9v-3.1H110.6z"/>
		<path class="st2" d="M117.3,112h2.6l-3.1,3.4l-1.7,0L117.3,112z M117.2,130h-2.1v-12.7h2.1V130z"/>
		<path class="st2" d="M123.4,114.2v3.1h1.9v1.7h-1.9v7.9c0,0.5,0.1,0.9,0.2,1.1c0.2,0.3,0.4,0.4,0.8,0.4c0.3,0,0.6,0,0.8-0.1l0,1.7
			c-0.5,0.2-0.9,0.2-1.4,0.2c-0.8,0-1.4-0.3-1.9-0.9s-0.6-1.4-0.6-2.5V119h-1.9v-1.7h1.9v-3.1H123.4z"/>
		<path class="st2" d="M134.2,128.9c-0.7,0.9-1.7,1.3-3,1.3c-1.1,0-2-0.4-2.6-1.2s-0.9-1.9-0.9-3.5v-8.3h2.1v8.1c0,2,0.6,3,1.8,3
			c1.3,0,2.1-0.6,2.6-1.7v-9.4h2.1V130h-2L134.2,128.9z"/>
		<path class="st2" d="M141.6,130h-2.1v-18h2.1V130z"/>
		<path class="st2" d="M144.4,123.1c0-1.8,0.4-3.3,1.3-4.4s2.1-1.6,3.5-1.6s2.7,0.5,3.5,1.6s1.4,2.5,1.4,4.3v1.3
			c0,1.8-0.4,3.3-1.3,4.4s-2.1,1.6-3.6,1.6c-1.5,0-2.6-0.5-3.5-1.6s-1.3-2.4-1.4-4.2V123.1z M146.5,124.3c0,1.3,0.3,2.3,0.8,3.1
			s1.2,1.1,2.1,1.1c1.8,0,2.8-1.3,2.8-4v-1.4c0-1.3-0.3-2.3-0.8-3.1s-1.2-1.1-2.1-1.1c-0.9,0-1.5,0.4-2,1.1s-0.8,1.8-0.8,3.1V124.3z
			"/>
		<path class="st2" d="M165.8,126.6l2.3-9.2h2.2l-4.1,14.5c-0.3,1.1-0.8,1.9-1.3,2.5s-1.2,0.8-1.9,0.8c-0.3,0-0.6-0.1-1.1-0.2v-1.8
			l0.5,0c0.6,0,1.1-0.1,1.4-0.4s0.6-0.8,0.8-1.5l0.4-1.4l-3.7-12.6h2.3L165.8,126.6z"/>
		<path class="st2" d="M180.1,130H178v-18h2.1V130z"/>
		<path class="st2" d="M189.9,130c-0.1-0.3-0.2-0.7-0.3-1.4c-0.7,1.1-1.7,1.6-2.8,1.6c-1.1,0-2-0.3-2.7-1s-1-1.6-1-2.7
			c0-1.3,0.4-2.3,1.3-3.1s2.1-1.1,3.6-1.2h1.5V121c0-0.8-0.2-1.3-0.5-1.6s-0.8-0.5-1.5-0.5c-0.6,0-1.1,0.2-1.5,0.6s-0.6,0.8-0.6,1.4
			h-2.1c0-0.6,0.2-1.3,0.6-1.9s0.9-1.1,1.5-1.4s1.4-0.5,2.2-0.5c1.3,0,2.3,0.3,3,1s1,1.6,1,2.8v6.4c0,1,0.1,1.8,0.4,2.5v0.2H189.9z
			 M187.1,128.3c0.5,0,1-0.1,1.5-0.4s0.8-0.6,1-1.1v-3h-1.2c-1,0-1.8,0.2-2.3,0.7s-0.9,1-0.9,1.8c0,0.7,0.1,1.2,0.4,1.6
			S186.4,128.3,187.1,128.3z"/>
		<path class="st2" d="M202.6,130h-2.1v-18h2.1V130z"/>
		<path class="st2" d="M210.4,130.2c-1.6,0-2.8-0.5-3.6-1.4s-1.3-2.3-1.3-4.1v-1.5c0-1.9,0.4-3.4,1.2-4.4s2-1.6,3.5-1.6
			c1.5,0,2.6,0.5,3.3,1.4s1.1,2.4,1.1,4.4v1.4h-7.1v0.3c0,1.4,0.3,2.3,0.8,3s1.2,0.9,2.2,0.9c0.6,0,1.1-0.1,1.6-0.3s0.9-0.6,1.3-1.1
			l1.1,1.3C213.6,129.6,212.2,130.2,210.4,130.2z M210.1,118.9c-0.9,0-1.5,0.3-1.9,0.9s-0.6,1.5-0.7,2.7h5v-0.3
			c-0.1-1.2-0.3-2.1-0.7-2.6S210.9,118.9,210.1,118.9z"/>
		<path class="st2" d="M219.8,114.2v3.1h1.9v1.7h-1.9v7.9c0,0.5,0.1,0.9,0.2,1.1c0.2,0.3,0.4,0.4,0.8,0.4c0.3,0,0.6,0,0.8-0.1l0,1.7
			c-0.5,0.2-0.9,0.2-1.4,0.2c-0.8,0-1.4-0.3-1.9-0.9s-0.6-1.4-0.6-2.5V119h-1.9v-1.7h1.9v-3.1H219.8z"/>
		<path class="st2" d="M229.4,119.3c-0.3-0.1-0.6-0.1-0.9-0.1c-1.1,0-1.8,0.6-2.2,1.7v9.1h-2.1v-12.7h2l0,1.3c0.6-1,1.3-1.5,2.4-1.5
			c0.3,0,0.6,0.1,0.8,0.2L229.4,119.3z"/>
		<path class="st2" d="M237.5,130c-0.1-0.3-0.2-0.7-0.3-1.4c-0.7,1.1-1.7,1.6-2.8,1.6c-1.1,0-2-0.3-2.7-1s-1-1.6-1-2.7
			c0-1.3,0.4-2.3,1.3-3.1s2.1-1.1,3.6-1.2h1.5V121c0-0.8-0.2-1.3-0.5-1.6s-0.8-0.5-1.5-0.5c-0.6,0-1.1,0.2-1.5,0.6s-0.6,0.8-0.6,1.4
			H231c0-0.6,0.2-1.3,0.6-1.9s0.9-1.1,1.5-1.4s1.4-0.5,2.2-0.5c1.3,0,2.3,0.3,3,1s1,1.6,1,2.8v6.4c0,1,0.1,1.8,0.4,2.5v0.2H237.5z
			 M234.8,128.3c0.5,0,1-0.1,1.5-0.4s0.8-0.6,1-1.1v-3h-1.2c-1,0-1.8,0.2-2.3,0.7s-0.9,1-0.9,1.8c0,0.7,0.1,1.2,0.4,1.6
			S234.1,128.3,234.8,128.3z"/>
		<path class="st2" d="M247.6,123.1c0-2,0.4-3.4,1.1-4.5s1.8-1.5,3.1-1.5c1.2,0,2.2,0.5,2.8,1.5V112h2.1v18h-1.9l-0.1-1.4
			c-0.7,1.1-1.7,1.6-2.9,1.6c-1.3,0-2.3-0.5-3.1-1.5s-1.1-2.5-1.1-4.3V123.1z M249.6,124.3c0,1.4,0.2,2.5,0.6,3.1
			c0.4,0.7,1.1,1,2.1,1c1,0,1.8-0.5,2.3-1.6v-6.4c-0.5-1-1.3-1.5-2.3-1.5c-1,0-1.6,0.3-2.1,1s-0.6,1.7-0.6,3.1V124.3z"/>
		<path class="st2" d="M264.4,130.2c-1.6,0-2.8-0.5-3.6-1.4s-1.3-2.3-1.3-4.1v-1.5c0-1.9,0.4-3.4,1.2-4.4s2-1.6,3.5-1.6
			c1.5,0,2.6,0.5,3.3,1.4s1.1,2.4,1.1,4.4v1.4h-7.1v0.3c0,1.4,0.3,2.3,0.8,3s1.2,0.9,2.2,0.9c0.6,0,1.1-0.1,1.6-0.3s0.9-0.6,1.3-1.1
			l1.1,1.3C267.6,129.6,266.3,130.2,264.4,130.2z M264.2,118.9c-0.9,0-1.5,0.3-1.9,0.9s-0.6,1.5-0.7,2.7h5v-0.3
			c-0.1-1.2-0.3-2.1-0.7-2.6S265,118.9,264.2,118.9z"/>
		<path class="st2" d="M281,128.5c0.7,0,1.2-0.2,1.7-0.6s0.6-1,0.7-1.8h2c0,1.2-0.5,2.2-1.3,3s-1.8,1.2-3,1.2
			c-1.6,0-2.8-0.5-3.6-1.5s-1.2-2.5-1.2-4.4v-1.4c0-1.9,0.4-3.4,1.2-4.4s2-1.5,3.6-1.5c1.3,0,2.3,0.4,3.1,1.2s1.2,1.9,1.2,3.4h-2
			c0-0.9-0.3-1.6-0.7-2.1s-1-0.7-1.7-0.7c-0.9,0-1.6,0.3-2.1,0.9s-0.7,1.6-0.7,3v1.6c0,1.5,0.2,2.5,0.7,3.2S280.1,128.5,281,128.5z"
			/>
		<path class="st2" d="M294.2,130c-0.1-0.3-0.2-0.7-0.3-1.4c-0.7,1.1-1.7,1.6-2.8,1.6c-1.1,0-2-0.3-2.7-1s-1-1.6-1-2.7
			c0-1.3,0.4-2.3,1.3-3.1s2.1-1.1,3.6-1.2h1.5V121c0-0.8-0.2-1.3-0.5-1.6s-0.8-0.5-1.5-0.5c-0.6,0-1.1,0.2-1.5,0.6s-0.6,0.8-0.6,1.4
			h-2.1c0-0.6,0.2-1.3,0.6-1.9s0.9-1.1,1.5-1.4s1.4-0.5,2.2-0.5c1.3,0,2.3,0.3,3,1s1,1.6,1,2.8v6.4c0,1,0.1,1.8,0.4,2.5v0.2H294.2z
			 M291.5,128.3c0.5,0,1-0.1,1.5-0.4s0.8-0.6,1-1.1v-3h-1.2c-1,0-1.8,0.2-2.3,0.7s-0.9,1-0.9,1.8c0,0.7,0.1,1.2,0.4,1.6
			S290.8,128.3,291.5,128.3z"/>
		<path class="st2" d="M298.8,123.1c0-2,0.4-3.4,1.1-4.5s1.8-1.5,3.1-1.5c1.2,0,2.2,0.5,2.8,1.5V112h2.1v18H306l-0.1-1.4
			c-0.7,1.1-1.7,1.6-2.9,1.6c-1.3,0-2.3-0.5-3.1-1.5s-1.1-2.5-1.1-4.3V123.1z M300.9,124.3c0,1.4,0.2,2.5,0.6,3.1
			c0.4,0.7,1.1,1,2.1,1c1,0,1.8-0.5,2.3-1.6v-6.4c-0.5-1-1.3-1.5-2.3-1.5c-1,0-1.6,0.3-2.1,1s-0.6,1.7-0.6,3.1V124.3z"/>
		<path class="st2" d="M317.6,130c-0.1-0.3-0.2-0.7-0.3-1.4c-0.7,1.1-1.7,1.6-2.8,1.6c-1.1,0-2-0.3-2.7-1s-1-1.6-1-2.7
			c0-1.3,0.4-2.3,1.3-3.1s2.1-1.1,3.6-1.2h1.5V121c0-0.8-0.2-1.3-0.5-1.6s-0.8-0.5-1.5-0.5c-0.6,0-1.1,0.2-1.5,0.6s-0.6,0.8-0.6,1.4
			h-2.1c0-0.6,0.2-1.3,0.6-1.9s0.9-1.1,1.5-1.4s1.4-0.5,2.2-0.5c1.3,0,2.3,0.3,3,1s1,1.6,1,2.8v6.4c0,1,0.1,1.8,0.4,2.5v0.2H317.6z
			 M314.9,128.3c0.5,0,1-0.1,1.5-0.4s0.8-0.6,1-1.1v-3h-1.2c-1,0-1.8,0.2-2.3,0.7s-0.9,1-0.9,1.8c0,0.7,0.1,1.2,0.4,1.6
			S314.2,128.3,314.9,128.3z"/>
		<path class="st2" d="M332.5,128.5c0.7,0,1.2-0.2,1.7-0.6s0.6-1,0.7-1.8h2c0,1.2-0.5,2.2-1.3,3s-1.8,1.2-3,1.2
			c-1.6,0-2.8-0.5-3.6-1.5s-1.2-2.5-1.2-4.4v-1.4c0-1.9,0.4-3.4,1.2-4.4s2-1.5,3.6-1.5c1.3,0,2.3,0.4,3.1,1.2s1.2,1.9,1.2,3.4h-2
			c0-0.9-0.3-1.6-0.7-2.1s-1-0.7-1.7-0.7c-0.9,0-1.6,0.3-2.1,0.9s-0.7,1.6-0.7,3v1.6c0,1.5,0.2,2.5,0.7,3.2S331.6,128.5,332.5,128.5
			z"/>
		<path class="st2" d="M345.7,130c-0.1-0.3-0.2-0.7-0.3-1.4c-0.7,1.1-1.7,1.6-2.8,1.6c-1.1,0-2-0.3-2.7-1s-1-1.6-1-2.7
			c0-1.3,0.4-2.3,1.3-3.1s2.1-1.1,3.6-1.2h1.5V121c0-0.8-0.2-1.3-0.5-1.6s-0.8-0.5-1.5-0.5c-0.6,0-1.1,0.2-1.5,0.6s-0.6,0.8-0.6,1.4
			h-2.1c0-0.6,0.2-1.3,0.6-1.9s0.9-1.1,1.5-1.4s1.4-0.5,2.2-0.5c1.3,0,2.3,0.3,3,1s1,1.6,1,2.8v6.4c0,1,0.1,1.8,0.4,2.5v0.2H345.7z
			 M343,128.3c0.5,0,1-0.1,1.5-0.4s0.8-0.6,1-1.1v-3h-1.2c-1,0-1.8,0.2-2.3,0.7s-0.9,1-0.9,1.8c0,0.7,0.1,1.2,0.4,1.6
			S342.3,128.3,343,128.3z"/>
		<path class="st2" d="M352.7,117.3l0.1,1.4c0.8-1.1,1.8-1.6,3.1-1.6c2.2,0,3.4,1.5,3.4,4.5v8.4h-2.1v-8.3c0-1-0.2-1.7-0.5-2.1
			s-0.8-0.6-1.5-0.6c-0.5,0-1,0.2-1.4,0.5s-0.7,0.8-1,1.3v9.2h-2.1v-12.7H352.7z"/>
		<path class="st2" d="M365,114.2v3.1h1.9v1.7H365v7.9c0,0.5,0.1,0.9,0.2,1.1c0.2,0.3,0.4,0.4,0.8,0.4c0.3,0,0.6,0,0.8-0.1l0,1.7
			c-0.5,0.2-0.9,0.2-1.4,0.2c-0.8,0-1.4-0.3-1.9-0.9s-0.6-1.4-0.6-2.5V119H361v-1.7h1.9v-3.1H365z"/>
		<path class="st2" d="M368.7,123.1c0-1.8,0.4-3.3,1.3-4.4s2.1-1.6,3.5-1.6s2.7,0.5,3.5,1.6s1.4,2.5,1.4,4.3v1.3
			c0,1.8-0.4,3.3-1.3,4.4s-2.1,1.6-3.6,1.6c-1.5,0-2.6-0.5-3.5-1.6s-1.3-2.4-1.4-4.2V123.1z M370.8,124.3c0,1.3,0.3,2.3,0.8,3.1
			s1.2,1.1,2.1,1.1c1.8,0,2.8-1.3,2.8-4v-1.4c0-1.3-0.3-2.3-0.8-3.1s-1.2-1.1-2.1-1.1c-0.9,0-1.5,0.4-2,1.1s-0.8,1.8-0.8,3.1V124.3z
			"/>
		<path class="st2" d="M386.3,123.1c0-2,0.4-3.4,1.1-4.5s1.8-1.5,3.1-1.5c1.2,0,2.2,0.5,2.8,1.5V112h2.1v18h-1.9l-0.1-1.4
			c-0.7,1.1-1.7,1.6-2.9,1.6c-1.3,0-2.3-0.5-3.1-1.5s-1.1-2.5-1.1-4.3V123.1z M388.3,124.3c0,1.4,0.2,2.5,0.6,3.1
			c0.4,0.7,1.1,1,2.1,1c1,0,1.8-0.5,2.3-1.6v-6.4c-0.5-1-1.3-1.5-2.3-1.5c-1,0-1.6,0.3-2.1,1s-0.6,1.7-0.6,3.1V124.3z"/>
		<path class="st2" d="M401,114c0,0.4-0.1,0.6-0.3,0.9s-0.5,0.4-0.9,0.4c-0.4,0-0.7-0.1-0.9-0.4s-0.3-0.5-0.3-0.9s0.1-0.6,0.3-0.9
			s0.5-0.4,0.9-0.4s0.7,0.1,0.9,0.4S401,113.6,401,114z M400.9,130h-2.1v-12.7h2.1V130z"/>
		<path class="st2" d="M407.7,126.8l2.4-9.5h2.1l-3.8,12.7h-1.5l-3.8-12.7h2.1L407.7,126.8z"/>
		<path class="st2" d="M416.8,114c0,0.4-0.1,0.6-0.3,0.9s-0.5,0.4-0.9,0.4c-0.4,0-0.7-0.1-0.9-0.4s-0.3-0.5-0.3-0.9s0.1-0.6,0.3-0.9
			s0.5-0.4,0.9-0.4s0.7,0.1,0.9,0.4S416.8,113.6,416.8,114z M416.6,130h-2.1v-12.7h2.1V130z"/>
		<path class="st2" d="M419.4,123.1c0-2,0.4-3.4,1.1-4.5s1.8-1.5,3.1-1.5c1.2,0,2.2,0.5,2.8,1.5V112h2.1v18h-1.9l-0.1-1.4
			c-0.7,1.1-1.7,1.6-2.9,1.6c-1.3,0-2.3-0.5-3.1-1.5s-1.1-2.5-1.1-4.3V123.1z M421.5,124.3c0,1.4,0.2,2.5,0.6,3.1
			c0.4,0.7,1.1,1,2.1,1c1,0,1.8-0.5,2.3-1.6v-6.4c-0.5-1-1.3-1.5-2.3-1.5c-1,0-1.6,0.3-2.1,1s-0.6,1.7-0.6,3.1V124.3z"/>
		<path class="st2" d="M434.2,114c0,0.4-0.1,0.6-0.3,0.9s-0.5,0.4-0.9,0.4c-0.4,0-0.7-0.1-0.9-0.4s-0.3-0.5-0.3-0.9s0.1-0.6,0.3-0.9
			s0.5-0.4,0.9-0.4s0.7,0.1,0.9,0.4S434.2,113.6,434.2,114z M434,130h-2.1v-12.7h2.1V130z"/>
		<path class="st2" d="M436.8,123.1c0-2,0.4-3.4,1.1-4.5s1.8-1.5,3.1-1.5c1.2,0,2.2,0.5,2.8,1.5V112h2.1v18h-1.9l-0.1-1.4
			c-0.7,1.1-1.7,1.6-2.9,1.6c-1.3,0-2.3-0.5-3.1-1.5s-1.1-2.5-1.1-4.3V123.1z M438.9,124.3c0,1.4,0.2,2.5,0.6,3.1
			c0.4,0.7,1.1,1,2.1,1c1,0,1.8-0.5,2.3-1.6v-6.4c-0.5-1-1.3-1.5-2.3-1.5c-1,0-1.6,0.3-2.1,1s-0.6,1.7-0.6,3.1V124.3z"/>
		<path class="st2" d="M448.7,123.1c0-1.8,0.4-3.3,1.3-4.4s2.1-1.6,3.5-1.6s2.7,0.5,3.5,1.6s1.4,2.5,1.4,4.3v1.3
			c0,1.8-0.4,3.3-1.3,4.4s-2.1,1.6-3.6,1.6c-1.5,0-2.6-0.5-3.5-1.6s-1.3-2.4-1.4-4.2V123.1z M450.8,124.3c0,1.3,0.3,2.3,0.8,3.1
			s1.2,1.1,2.1,1.1c1.8,0,2.8-1.3,2.8-4v-1.4c0-1.3-0.3-2.3-0.8-3.1s-1.2-1.1-2.1-1.1c-0.9,0-1.5,0.4-2,1.1s-0.8,1.8-0.8,3.1V124.3z
			"/>
		<path class="st2" d="M475.9,124.3c0,2-0.4,3.5-1.1,4.5s-1.7,1.5-3.1,1.5c-1.3,0-2.3-0.5-2.9-1.4v6.1h-2.1v-17.6h1.9l0.1,1.4
			c0.7-1.1,1.7-1.6,3-1.6c1.4,0,2.4,0.5,3.1,1.5s1,2.4,1.1,4.3V124.3z M473.8,123.1c0-1.4-0.2-2.5-0.7-3.1s-1.1-1-2.1-1
			c-1,0-1.7,0.5-2.3,1.5v6.6c0.5,1,1.3,1.5,2.3,1.5c0.9,0,1.6-0.3,2.1-1s0.7-1.7,0.7-3.1V123.1z"/>
		<path class="st2" d="M478.1,123.1c0-1.8,0.4-3.3,1.3-4.4s2.1-1.6,3.5-1.6s2.7,0.5,3.5,1.6s1.4,2.5,1.4,4.3v1.3
			c0,1.8-0.4,3.3-1.3,4.4s-2.1,1.6-3.6,1.6c-1.5,0-2.6-0.5-3.5-1.6s-1.3-2.4-1.4-4.2V123.1z M480.2,124.3c0,1.3,0.3,2.3,0.8,3.1
			s1.2,1.1,2.1,1.1c1.8,0,2.8-1.3,2.8-4v-1.4c0-1.3-0.3-2.3-0.8-3.1s-1.2-1.1-2.1-1.1c-0.9,0-1.5,0.4-2,1.1s-0.8,1.8-0.8,3.1V124.3z
			"/>
		<path class="st2" d="M495.8,119.3c-0.3-0.1-0.6-0.1-0.9-0.1c-1.1,0-1.8,0.6-2.2,1.7v9.1h-2.1v-12.7h2l0,1.3c0.6-1,1.3-1.5,2.4-1.5
			c0.3,0,0.6,0.1,0.8,0.2L495.8,119.3z"/>
		<path class="st2" d="M503,123.1c0-2,0.4-3.4,1.1-4.5s1.8-1.5,3.1-1.5c1.2,0,2.2,0.5,2.8,1.5V112h2.1v18h-1.9l-0.1-1.4
			c-0.7,1.1-1.7,1.6-2.9,1.6c-1.3,0-2.3-0.5-3.1-1.5s-1.1-2.5-1.1-4.3V123.1z M505,124.3c0,1.4,0.2,2.5,0.6,3.1c0.4,0.7,1.1,1,2.1,1
			c1,0,1.8-0.5,2.3-1.6v-6.4c-0.5-1-1.3-1.5-2.3-1.5c-1,0-1.6,0.3-2.1,1s-0.6,1.7-0.6,3.1V124.3z"/>
		<path class="st2" d="M517.7,114c0,0.4-0.1,0.6-0.3,0.9s-0.5,0.4-0.9,0.4c-0.4,0-0.7-0.1-0.9-0.4s-0.3-0.5-0.3-0.9s0.1-0.6,0.3-0.9
			s0.5-0.4,0.9-0.4s0.7,0.1,0.9,0.4S517.7,113.6,517.7,114z M517.5,130h-2.1v-12.7h2.1V130z"/>
		<path class="st2" d="M527.3,130c-0.1-0.3-0.2-0.7-0.3-1.4c-0.7,1.1-1.7,1.6-2.8,1.6c-1.1,0-2-0.3-2.7-1s-1-1.6-1-2.7
			c0-1.3,0.4-2.3,1.3-3.1s2.1-1.1,3.6-1.2h1.5V121c0-0.8-0.2-1.3-0.5-1.6s-0.8-0.5-1.5-0.5c-0.6,0-1.1,0.2-1.5,0.6s-0.6,0.8-0.6,1.4
			h-2.1c0-0.6,0.2-1.3,0.6-1.9s0.9-1.1,1.5-1.4s1.4-0.5,2.2-0.5c1.3,0,2.3,0.3,3,1s1,1.6,1,2.8v6.4c0,1,0.1,1.8,0.4,2.5v0.2H527.3z
			 M524.6,128.3c0.5,0,1-0.1,1.5-0.4s0.8-0.6,1-1.1v-3h-1.2c-1,0-1.8,0.2-2.3,0.7s-0.9,1-0.9,1.8c0,0.7,0.1,1.2,0.4,1.6
			S523.9,128.3,524.6,128.3z"/>
		<path class="st2" d="M541.5,124.3c0,2-0.4,3.5-1.1,4.5s-1.7,1.5-3.1,1.5c-1.3,0-2.3-0.5-2.9-1.4v6.1h-2.1v-17.6h1.9l0.1,1.4
			c0.7-1.1,1.7-1.6,3-1.6c1.4,0,2.4,0.5,3.1,1.5s1,2.4,1.1,4.3V124.3z M539.4,123.1c0-1.4-0.2-2.5-0.7-3.1s-1.1-1-2.1-1
			c-1,0-1.7,0.5-2.3,1.5v6.6c0.5,1,1.3,1.5,2.3,1.5c0.9,0,1.6-0.3,2.1-1s0.7-1.7,0.7-3.1V123.1z"/>
		<path class="st2" d="M543.7,123.1c0-1.8,0.4-3.3,1.3-4.4s2.1-1.6,3.5-1.6s2.7,0.5,3.5,1.6s1.4,2.5,1.4,4.3v1.3
			c0,1.8-0.4,3.3-1.3,4.4s-2.1,1.6-3.6,1.6c-1.5,0-2.6-0.5-3.5-1.6s-1.3-2.4-1.4-4.2V123.1z M545.8,124.3c0,1.3,0.3,2.3,0.8,3.1
			s1.2,1.1,2.1,1.1c1.8,0,2.8-1.3,2.8-4v-1.4c0-1.3-0.3-2.3-0.8-3.1s-1.2-1.1-2.1-1.1c-0.9,0-1.5,0.4-2,1.1s-0.8,1.8-0.8,3.1V124.3z
			"/>
		<path class="st2" d="M562.3,126.8c0-0.4-0.2-0.8-0.5-1.1s-1-0.7-1.9-1.1c-1.1-0.5-1.9-0.9-2.4-1.2s-0.8-0.7-1-1.1
			s-0.3-0.9-0.3-1.5c0-1,0.4-1.9,1.1-2.6s1.7-1,2.9-1c1.2,0,2.2,0.4,3,1.1s1.1,1.6,1.1,2.8h-2.1c0-0.6-0.2-1.1-0.6-1.5
			s-0.9-0.6-1.5-0.6c-0.6,0-1.1,0.2-1.4,0.5c-0.3,0.3-0.5,0.7-0.5,1.3c0,0.4,0.1,0.8,0.4,1c0.3,0.3,0.9,0.6,1.8,1
			c1.5,0.6,2.6,1.2,3.1,1.8s0.8,1.3,0.8,2.2c0,1.1-0.4,2-1.1,2.6c-0.8,0.7-1.8,1-3,1c-1.3,0-2.4-0.4-3.2-1.1s-1.2-1.7-1.2-2.9h2.1
			c0,0.7,0.2,1.3,0.6,1.7s1,0.6,1.7,0.6c0.7,0,1.2-0.2,1.6-0.5S562.3,127.3,562.3,126.8z"/>
		<path class="st2" d="M569.5,114c0,0.4-0.1,0.6-0.3,0.9s-0.5,0.4-0.9,0.4c-0.4,0-0.7-0.1-0.9-0.4s-0.3-0.5-0.3-0.9s0.1-0.6,0.3-0.9
			s0.5-0.4,0.9-0.4s0.7,0.1,0.9,0.4S569.5,113.6,569.5,114z M569.4,130h-2.1v-12.7h2.1V130z"/>
		<path class="st2" d="M575.3,114.2v3.1h1.9v1.7h-1.9v7.9c0,0.5,0.1,0.9,0.2,1.1c0.2,0.3,0.4,0.4,0.8,0.4c0.3,0,0.6,0,0.8-0.1l0,1.7
			c-0.5,0.2-0.9,0.2-1.4,0.2c-0.8,0-1.4-0.3-1.9-0.9s-0.6-1.4-0.6-2.5V119h-1.9v-1.7h1.9v-3.1H575.3z"/>
		<path class="st2" d="M582.1,114c0,0.4-0.1,0.6-0.3,0.9s-0.5,0.4-0.9,0.4c-0.4,0-0.7-0.1-0.9-0.4s-0.3-0.5-0.3-0.9s0.1-0.6,0.3-0.9
			s0.5-0.4,0.9-0.4s0.7,0.1,0.9,0.4S582.1,113.6,582.1,114z M581.9,130h-2.1v-12.7h2.1V130z"/>
		<path class="st2" d="M588.8,126.8l2.4-9.5h2.1l-3.8,12.7H588l-3.8-12.7h2.1L588.8,126.8z"/>
		<path class="st2" d="M601.8,130c-0.1-0.3-0.2-0.7-0.3-1.4c-0.7,1.1-1.7,1.6-2.8,1.6c-1.1,0-2-0.3-2.7-1s-1-1.6-1-2.7
			c0-1.3,0.4-2.3,1.3-3.1s2.1-1.1,3.6-1.2h1.5V121c0-0.8-0.2-1.3-0.5-1.6s-0.8-0.5-1.5-0.5c-0.6,0-1.1,0.2-1.5,0.6s-0.6,0.8-0.6,1.4
			h-2.1c0-0.6,0.2-1.3,0.6-1.9s0.9-1.1,1.5-1.4s1.4-0.5,2.2-0.5c1.3,0,2.3,0.3,3,1s1,1.6,1,2.8v6.4c0,1,0.1,1.8,0.4,2.5v0.2H601.8z
			 M599.1,128.3c0.5,0,1-0.1,1.5-0.4s0.8-0.6,1-1.1v-3h-1.2c-1,0-1.8,0.2-2.3,0.7s-0.9,1-0.9,1.8c0,0.7,0.1,1.2,0.4,1.6
			S598.4,128.3,599.1,128.3z"/>
		<path class="st2" d="M612.9,126.8c0-0.4-0.2-0.8-0.5-1.1s-1-0.7-1.9-1.1c-1.1-0.5-1.9-0.9-2.4-1.2s-0.8-0.7-1-1.1
			s-0.3-0.9-0.3-1.5c0-1,0.4-1.9,1.1-2.6s1.7-1,2.9-1c1.2,0,2.2,0.4,3,1.1s1.1,1.6,1.1,2.8h-2.1c0-0.6-0.2-1.1-0.6-1.5
			s-0.9-0.6-1.5-0.6c-0.6,0-1.1,0.2-1.4,0.5c-0.3,0.3-0.5,0.7-0.5,1.3c0,0.4,0.1,0.8,0.4,1c0.3,0.3,0.9,0.6,1.8,1
			c1.5,0.6,2.6,1.2,3.1,1.8s0.8,1.3,0.8,2.2c0,1.1-0.4,2-1.1,2.6c-0.8,0.7-1.8,1-3,1c-1.3,0-2.4-0.4-3.2-1.1s-1.2-1.7-1.2-2.9h2.1
			c0,0.7,0.2,1.3,0.6,1.7s1,0.6,1.7,0.6c0.7,0,1.2-0.2,1.6-0.5S612.9,127.3,612.9,126.8z"/>
		<path class="st2" d="M617.9,128.9c0-0.4,0.1-0.7,0.3-0.9s0.6-0.4,1-0.4s0.8,0.1,1,0.4s0.3,0.6,0.3,0.9c0,0.4-0.1,0.7-0.3,0.9
			s-0.6,0.4-1,0.4s-0.8-0.1-1-0.4S617.9,129.2,617.9,128.9z"/>
	</g>
	<g class="st1">
		<path class="st2" d="M9.8,153.5H4L2.7,158H0.5L6,140.9h1.8l5.5,17.1h-2.2L9.8,153.5z M4.6,151.7h4.7l-2.3-7.8L4.6,151.7z"/>
		<path class="st2" d="M15,151.1c0-2,0.4-3.5,1.1-4.5s1.8-1.5,3.2-1.5c1.3,0,2.3,0.6,2.9,1.7l0.1-1.4h1.9v12.8
			c0,1.6-0.4,2.8-1.2,3.6S21,163,19.5,163c-0.6,0-1.3-0.2-2.1-0.5s-1.4-0.7-1.8-1.1l0.8-1.4c0.9,0.8,1.8,1.3,2.8,1.3
			c1.7,0,2.6-0.9,2.7-2.8v-1.7c-0.7,1-1.6,1.5-2.9,1.5c-1.3,0-2.3-0.5-3.1-1.5s-1.1-2.4-1.1-4.3V151.1z M17,152.3
			c0,1.4,0.2,2.5,0.6,3.1c0.4,0.7,1.1,1,2.1,1c1,0,1.8-0.5,2.3-1.6v-6.3c-0.5-1-1.3-1.6-2.3-1.6c-1,0-1.6,0.3-2.1,1S17,149.6,17,151
			V152.3z"/>
		<path class="st2" d="M32.4,147.3c-0.3-0.1-0.6-0.1-0.9-0.1c-1.1,0-1.8,0.6-2.2,1.7v9.1h-2.1v-12.7h2l0,1.3c0.6-1,1.3-1.5,2.4-1.5
			c0.3,0,0.6,0.1,0.8,0.2L32.4,147.3z"/>
		<path class="st2" d="M38.8,158.2c-1.6,0-2.8-0.5-3.6-1.4s-1.3-2.3-1.3-4.1v-1.5c0-1.9,0.4-3.4,1.2-4.4s2-1.6,3.5-1.6
			c1.5,0,2.6,0.5,3.3,1.4s1.1,2.4,1.1,4.4v1.4H36v0.3c0,1.4,0.3,2.3,0.8,3s1.2,0.9,2.2,0.9c0.6,0,1.1-0.1,1.6-0.3s0.9-0.6,1.3-1.1
			l1.1,1.3C42,157.6,40.7,158.2,38.8,158.2z M38.6,146.9c-0.9,0-1.5,0.3-1.9,0.9s-0.6,1.5-0.7,2.7h5v-0.3c-0.1-1.2-0.3-2.1-0.7-2.6
			S39.4,146.9,38.6,146.9z"/>
		<path class="st2" d="M45.1,151.1c0-2,0.4-3.5,1.1-4.5s1.8-1.5,3.2-1.5c1.3,0,2.3,0.6,2.9,1.7l0.1-1.4h1.9v12.8
			c0,1.6-0.4,2.8-1.2,3.6s-1.9,1.3-3.4,1.3c-0.6,0-1.3-0.2-2.1-0.5s-1.4-0.7-1.8-1.1l0.8-1.4c0.9,0.8,1.8,1.3,2.8,1.3
			c1.7,0,2.6-0.9,2.7-2.8v-1.7c-0.7,1-1.6,1.5-2.9,1.5c-1.3,0-2.3-0.5-3.1-1.5s-1.1-2.4-1.1-4.3V151.1z M47.2,152.3
			c0,1.4,0.2,2.5,0.6,3.1c0.4,0.7,1.1,1,2.1,1c1,0,1.8-0.5,2.3-1.6v-6.3c-0.5-1-1.3-1.6-2.3-1.6c-1,0-1.6,0.3-2.1,1
			s-0.6,1.7-0.6,3.1V152.3z"/>
		<path class="st2" d="M63.8,156.9c-0.7,0.9-1.7,1.3-3,1.3c-1.1,0-2-0.4-2.6-1.2s-0.9-1.9-0.9-3.5v-8.3h2.1v8.1c0,2,0.6,3,1.8,3
			c1.3,0,2.1-0.6,2.6-1.7v-9.4h2.1V158h-2L63.8,156.9z"/>
		<path class="st2" d="M73.5,158.2c-1.6,0-2.8-0.5-3.6-1.4s-1.3-2.3-1.3-4.1v-1.5c0-1.9,0.4-3.4,1.2-4.4s2-1.6,3.5-1.6
			c1.5,0,2.6,0.5,3.3,1.4s1.1,2.4,1.1,4.4v1.4h-7.1v0.3c0,1.4,0.3,2.3,0.8,3s1.2,0.9,2.2,0.9c0.6,0,1.1-0.1,1.6-0.3s0.9-0.6,1.3-1.1
			l1.1,1.3C76.7,157.6,75.3,158.2,73.5,158.2z M73.2,146.9c-0.9,0-1.5,0.3-1.9,0.9s-0.6,1.5-0.7,2.7h5v-0.3
			c-0.1-1.2-0.3-2.1-0.7-2.6S74,146.9,73.2,146.9z"/>
		<path class="st2" d="M85.2,151.1c0-1.8,0.4-3.3,1.3-4.4s2.1-1.6,3.5-1.6s2.7,0.5,3.5,1.6s1.4,2.5,1.4,4.3v1.3
			c0,1.8-0.4,3.3-1.3,4.4s-2.1,1.6-3.6,1.6c-1.5,0-2.6-0.5-3.5-1.6s-1.3-2.4-1.4-4.2V151.1z M87.3,152.3c0,1.3,0.3,2.3,0.8,3.1
			s1.2,1.1,2.1,1.1c1.8,0,2.8-1.3,2.8-4v-1.4c0-1.3-0.3-2.3-0.8-3.1s-1.2-1.1-2.1-1.1c-0.9,0-1.5,0.4-2,1.1s-0.8,1.8-0.8,3.1V152.3z
			"/>
		<path class="st2" d="M108.5,147.3c-0.3-0.1-0.6-0.1-0.9-0.1c-1.1,0-1.8,0.6-2.2,1.7v9.1h-2.1v-12.7h2l0,1.3c0.6-1,1.3-1.5,2.4-1.5
			c0.3,0,0.6,0.1,0.8,0.2L108.5,147.3z"/>
		<path class="st2" d="M114.8,158.2c-1.6,0-2.8-0.5-3.6-1.4s-1.3-2.3-1.3-4.1v-1.5c0-1.9,0.4-3.4,1.2-4.4s2-1.6,3.5-1.6
			c1.5,0,2.6,0.5,3.3,1.4s1.1,2.4,1.1,4.4v1.4H112v0.3c0,1.4,0.3,2.3,0.8,3s1.2,0.9,2.2,0.9c0.6,0,1.1-0.1,1.6-0.3s0.9-0.6,1.3-1.1
			l1.1,1.3C118,157.6,116.7,158.2,114.8,158.2z M114.6,146.9c-0.9,0-1.5,0.3-1.9,0.9s-0.6,1.5-0.7,2.7h5v-0.3
			c-0.1-1.2-0.3-2.1-0.7-2.6S115.4,146.9,114.6,146.9z"/>
		<path class="st2" d="M123.5,145.3l0,1.2c0.8-0.9,1.8-1.4,3.1-1.4c1.4,0,2.4,0.6,3,1.8c0.8-1.2,1.9-1.8,3.3-1.8
			c2.3,0,3.5,1.5,3.6,4.4v8.5h-2.1v-8.3c0-0.9-0.2-1.6-0.5-2.1s-0.9-0.7-1.7-0.7c-0.6,0-1.1,0.2-1.5,0.7s-0.6,1.1-0.7,1.9v8.5H128
			v-8.4c0-1.8-0.7-2.6-2.1-2.6c-1,0-1.8,0.5-2.2,1.6v9.5h-2.1v-12.7H123.5z"/>
		<path class="st2" d="M146.1,156.9c-0.7,0.9-1.7,1.3-3,1.3c-1.1,0-2-0.4-2.6-1.2s-0.9-1.9-0.9-3.5v-8.3h2.1v8.1c0,2,0.6,3,1.8,3
			c1.3,0,2.1-0.6,2.6-1.7v-9.4h2.1V158h-2L146.1,156.9z"/>
		<path class="st2" d="M155.7,158.2c-1.6,0-2.8-0.5-3.6-1.4s-1.3-2.3-1.3-4.1v-1.5c0-1.9,0.4-3.4,1.2-4.4s2-1.6,3.5-1.6
			c1.5,0,2.6,0.5,3.3,1.4s1.1,2.4,1.1,4.4v1.4h-7.1v0.3c0,1.4,0.3,2.3,0.8,3s1.2,0.9,2.2,0.9c0.6,0,1.1-0.1,1.6-0.3s0.9-0.6,1.3-1.1
			l1.1,1.3C158.9,157.6,157.6,158.2,155.7,158.2z M155.5,146.9c-0.9,0-1.5,0.3-1.9,0.9s-0.6,1.5-0.7,2.7h5v-0.3
			c-0.1-1.2-0.3-2.1-0.7-2.6S156.3,146.9,155.5,146.9z"/>
		<path class="st2" d="M165.9,154.8l2.4-9.5h2.1l-3.8,12.7h-1.5l-3.8-12.7h2.1L165.9,154.8z"/>
		<path class="st2" d="M178.9,158c-0.1-0.3-0.2-0.7-0.3-1.4c-0.7,1.1-1.7,1.6-2.8,1.6c-1.1,0-2-0.3-2.7-1s-1-1.6-1-2.7
			c0-1.3,0.4-2.3,1.3-3.1s2.1-1.1,3.6-1.2h1.5V149c0-0.8-0.2-1.3-0.5-1.6s-0.8-0.5-1.5-0.5c-0.6,0-1.1,0.2-1.5,0.6s-0.6,0.8-0.6,1.4
			h-2.1c0-0.6,0.2-1.3,0.6-1.9s0.9-1.1,1.5-1.4s1.4-0.5,2.2-0.5c1.3,0,2.3,0.3,3,1s1,1.6,1,2.8v6.4c0,1,0.1,1.8,0.4,2.5v0.2H178.9z
			 M176.1,156.3c0.5,0,1-0.1,1.5-0.4s0.8-0.6,1-1.1v-3h-1.2c-1,0-1.8,0.2-2.3,0.7s-0.9,1-0.9,1.8c0,0.7,0.1,1.2,0.4,1.6
			S175.4,156.3,176.1,156.3z"/>
		<path class="st2" d="M188.9,151.1c0-2,0.4-3.4,1.1-4.5s1.8-1.5,3.1-1.5c1.2,0,2.2,0.5,2.8,1.5V140h2.1v18h-1.9l-0.1-1.4
			c-0.7,1.1-1.7,1.6-2.9,1.6c-1.3,0-2.3-0.5-3.1-1.5s-1.1-2.5-1.1-4.3V151.1z M191,152.3c0,1.4,0.2,2.5,0.6,3.1c0.4,0.7,1.1,1,2.1,1
			c1,0,1.8-0.5,2.3-1.6v-6.4c-0.5-1-1.3-1.5-2.3-1.5c-1,0-1.6,0.3-2.1,1s-0.6,1.7-0.6,3.1V152.3z"/>
		<path class="st2" d="M203.7,142c0,0.4-0.1,0.6-0.3,0.9s-0.5,0.4-0.9,0.4c-0.4,0-0.7-0.1-0.9-0.4s-0.3-0.5-0.3-0.9s0.1-0.6,0.3-0.9
			s0.5-0.4,0.9-0.4s0.7,0.1,0.9,0.4S203.7,141.6,203.7,142z M203.5,158h-2.1v-12.7h2.1V158z"/>
		<path class="st2" d="M213.3,158c-0.1-0.3-0.2-0.7-0.3-1.4c-0.7,1.1-1.7,1.6-2.8,1.6c-1.1,0-2-0.3-2.7-1s-1-1.6-1-2.7
			c0-1.3,0.4-2.3,1.3-3.1s2.1-1.1,3.6-1.2h1.5V149c0-0.8-0.2-1.3-0.5-1.6s-0.8-0.5-1.5-0.5c-0.6,0-1.1,0.2-1.5,0.6s-0.6,0.8-0.6,1.4
			h-2.1c0-0.6,0.2-1.3,0.6-1.9s0.9-1.1,1.5-1.4s1.4-0.5,2.2-0.5c1.3,0,2.3,0.3,3,1s1,1.6,1,2.8v6.4c0,1,0.1,1.8,0.4,2.5v0.2H213.3z
			 M210.5,156.3c0.5,0,1-0.1,1.5-0.4s0.8-0.6,1-1.1v-3h-1.2c-1,0-1.8,0.2-2.3,0.7s-0.9,1-0.9,1.8c0,0.7,0.1,1.2,0.4,1.6
			S209.8,156.3,210.5,156.3z"/>
		<path class="st2" d="M227.4,152.3c0,2-0.4,3.5-1.1,4.5s-1.7,1.5-3.1,1.5c-1.3,0-2.3-0.5-2.9-1.4v6.1h-2.1v-17.6h1.9l0.1,1.4
			c0.7-1.1,1.7-1.6,3-1.6c1.4,0,2.4,0.5,3.1,1.5s1,2.4,1.1,4.3V152.3z M225.4,151.1c0-1.4-0.2-2.5-0.7-3.1s-1.1-1-2.1-1
			c-1,0-1.7,0.5-2.3,1.5v6.6c0.5,1,1.3,1.5,2.3,1.5c0.9,0,1.6-0.3,2.1-1s0.7-1.7,0.7-3.1V151.1z"/>
		<path class="st2" d="M229.7,151.1c0-1.8,0.4-3.3,1.3-4.4s2.1-1.6,3.5-1.6s2.7,0.5,3.5,1.6s1.4,2.5,1.4,4.3v1.3
			c0,1.8-0.4,3.3-1.3,4.4s-2.1,1.6-3.6,1.6c-1.5,0-2.6-0.5-3.5-1.6s-1.3-2.4-1.4-4.2V151.1z M231.7,152.3c0,1.3,0.3,2.3,0.8,3.1
			s1.2,1.1,2.1,1.1c1.8,0,2.8-1.3,2.8-4v-1.4c0-1.3-0.3-2.3-0.8-3.1s-1.2-1.1-2.1-1.1c-0.9,0-1.5,0.4-2,1.1s-0.8,1.8-0.8,3.1V152.3z
			"/>
		<path class="st2" d="M248.3,154.8c0-0.4-0.2-0.8-0.5-1.1s-1-0.7-1.9-1.1c-1.1-0.5-1.9-0.9-2.4-1.2s-0.8-0.7-1-1.1
			s-0.3-0.9-0.3-1.5c0-1,0.4-1.9,1.1-2.6s1.7-1,2.9-1c1.2,0,2.2,0.4,3,1.1s1.1,1.6,1.1,2.8h-2.1c0-0.6-0.2-1.1-0.6-1.5
			s-0.9-0.6-1.5-0.6c-0.6,0-1.1,0.2-1.4,0.5c-0.3,0.3-0.5,0.7-0.5,1.3c0,0.4,0.1,0.8,0.4,1c0.3,0.3,0.9,0.6,1.8,1
			c1.5,0.6,2.6,1.2,3.1,1.8s0.8,1.3,0.8,2.2c0,1.1-0.4,2-1.1,2.6c-0.8,0.7-1.8,1-3,1c-1.3,0-2.4-0.4-3.2-1.1s-1.2-1.7-1.2-2.9h2.1
			c0,0.7,0.2,1.3,0.6,1.7s1,0.6,1.7,0.6c0.7,0,1.2-0.2,1.6-0.5S248.3,155.3,248.3,154.8z"/>
		<path class="st2" d="M255.5,142c0,0.4-0.1,0.6-0.3,0.9s-0.5,0.4-0.9,0.4c-0.4,0-0.7-0.1-0.9-0.4s-0.3-0.5-0.3-0.9s0.1-0.6,0.3-0.9
			s0.5-0.4,0.9-0.4s0.7,0.1,0.9,0.4S255.5,141.6,255.5,142z M255.3,158h-2.1v-12.7h2.1V158z"/>
		<path class="st2" d="M261.3,142.2v3.1h1.9v1.7h-1.9v7.9c0,0.5,0.1,0.9,0.2,1.1c0.2,0.3,0.4,0.4,0.8,0.4c0.3,0,0.6,0,0.8-0.1l0,1.7
			c-0.5,0.2-0.9,0.2-1.4,0.2c-0.8,0-1.4-0.3-1.9-0.9s-0.6-1.4-0.6-2.5V147h-1.9v-1.7h1.9v-3.1H261.3z"/>
		<path class="st2" d="M268.1,142c0,0.4-0.1,0.6-0.3,0.9s-0.5,0.4-0.9,0.4c-0.4,0-0.7-0.1-0.9-0.4s-0.3-0.5-0.3-0.9s0.1-0.6,0.3-0.9
			s0.5-0.4,0.9-0.4s0.7,0.1,0.9,0.4S268.1,141.6,268.1,142z M267.9,158h-2.1v-12.7h2.1V158z"/>
		<path class="st2" d="M274.8,154.8l2.4-9.5h2.1l-3.8,12.7H274l-3.8-12.7h2.1L274.8,154.8z"/>
		<path class="st2" d="M287.8,158c-0.1-0.3-0.2-0.7-0.3-1.4c-0.7,1.1-1.7,1.6-2.8,1.6c-1.1,0-2-0.3-2.7-1s-1-1.6-1-2.7
			c0-1.3,0.4-2.3,1.3-3.1s2.1-1.1,3.6-1.2h1.5V149c0-0.8-0.2-1.3-0.5-1.6s-0.8-0.5-1.5-0.5c-0.6,0-1.1,0.2-1.5,0.6s-0.6,0.8-0.6,1.4
			h-2.1c0-0.6,0.2-1.3,0.6-1.9s0.9-1.1,1.5-1.4s1.4-0.5,2.2-0.5c1.3,0,2.3,0.3,3,1s1,1.6,1,2.8v6.4c0,1,0.1,1.8,0.4,2.5v0.2H287.8z
			 M285,156.3c0.5,0,1-0.1,1.5-0.4s0.8-0.6,1-1.1v-3h-1.2c-1,0-1.8,0.2-2.3,0.7s-0.9,1-0.9,1.8c0,0.7,0.1,1.2,0.4,1.6
			S284.3,156.3,285,156.3z"/>
		<path class="st2" d="M298.9,154.8c0-0.4-0.2-0.8-0.5-1.1s-1-0.7-1.9-1.1c-1.1-0.5-1.9-0.9-2.4-1.2s-0.8-0.7-1-1.1
			s-0.3-0.9-0.3-1.5c0-1,0.4-1.9,1.1-2.6s1.7-1,2.9-1c1.2,0,2.2,0.4,3,1.1s1.1,1.6,1.1,2.8h-2.1c0-0.6-0.2-1.1-0.6-1.5
			s-0.9-0.6-1.5-0.6c-0.6,0-1.1,0.2-1.4,0.5c-0.3,0.3-0.5,0.7-0.5,1.3c0,0.4,0.1,0.8,0.4,1c0.3,0.3,0.9,0.6,1.8,1
			c1.5,0.6,2.6,1.2,3.1,1.8s0.8,1.3,0.8,2.2c0,1.1-0.4,2-1.1,2.6c-0.8,0.7-1.8,1-3,1c-1.3,0-2.4-0.4-3.2-1.1s-1.2-1.7-1.2-2.9h2.1
			c0,0.7,0.2,1.3,0.6,1.7s1,0.6,1.7,0.6c0.7,0,1.2-0.2,1.6-0.5S298.9,155.3,298.9,154.8z"/>
		<path class="st2" d="M311.9,142.2v3.1h1.9v1.7h-1.9v7.9c0,0.5,0.1,0.9,0.2,1.1c0.2,0.3,0.4,0.4,0.8,0.4c0.3,0,0.6,0,0.8-0.1l0,1.7
			c-0.5,0.2-0.9,0.2-1.4,0.2c-0.8,0-1.4-0.3-1.9-0.9s-0.6-1.4-0.6-2.5V147h-1.9v-1.7h1.9v-3.1H311.9z"/>
		<path class="st2" d="M322.8,158c-0.1-0.3-0.2-0.7-0.3-1.4c-0.7,1.1-1.7,1.6-2.8,1.6c-1.1,0-2-0.3-2.7-1s-1-1.6-1-2.7
			c0-1.3,0.4-2.3,1.3-3.1s2.1-1.1,3.6-1.2h1.5V149c0-0.8-0.2-1.3-0.5-1.6s-0.8-0.5-1.5-0.5c-0.6,0-1.1,0.2-1.5,0.6s-0.6,0.8-0.6,1.4
			h-2.1c0-0.6,0.2-1.3,0.6-1.9s0.9-1.1,1.5-1.4s1.4-0.5,2.2-0.5c1.3,0,2.3,0.3,3,1s1,1.6,1,2.8v6.4c0,1,0.1,1.8,0.4,2.5v0.2H322.8z
			 M320,156.3c0.5,0,1-0.1,1.5-0.4s0.8-0.6,1-1.1v-3h-1.2c-1,0-1.8,0.2-2.3,0.7s-0.9,1-0.9,1.8c0,0.7,0.1,1.2,0.4,1.6
			S319.3,156.3,320,156.3z"/>
		<path class="st2" d="M329.7,145.3l0.1,1.4c0.8-1.1,1.8-1.6,3.1-1.6c2.2,0,3.4,1.5,3.4,4.5v8.4h-2.1v-8.3c0-1-0.2-1.7-0.5-2.1
			s-0.8-0.6-1.5-0.6c-0.5,0-1,0.2-1.4,0.5s-0.7,0.8-1,1.3v9.2h-2.1v-12.7H329.7z"/>
		<path class="st2" d="M342.1,142.2v3.1h1.9v1.7h-1.9v7.9c0,0.5,0.1,0.9,0.2,1.1c0.2,0.3,0.4,0.4,0.8,0.4c0.3,0,0.6,0,0.8-0.1l0,1.7
			c-0.5,0.2-0.9,0.2-1.4,0.2c-0.8,0-1.4-0.3-1.9-0.9s-0.6-1.4-0.6-2.5V147h-1.9v-1.7h1.9v-3.1H342.1z"/>
		<path class="st2" d="M345.8,151.1c0-1.8,0.4-3.3,1.3-4.4s2.1-1.6,3.5-1.6s2.7,0.5,3.5,1.6s1.4,2.5,1.4,4.3v1.3
			c0,1.8-0.4,3.3-1.3,4.4s-2.1,1.6-3.6,1.6c-1.5,0-2.6-0.5-3.5-1.6s-1.3-2.4-1.4-4.2V151.1z M347.9,152.3c0,1.3,0.3,2.3,0.8,3.1
			s1.2,1.1,2.1,1.1c1.8,0,2.8-1.3,2.8-4v-1.4c0-1.3-0.3-2.3-0.8-3.1s-1.2-1.1-2.1-1.1c-0.9,0-1.5,0.4-2,1.1s-0.8,1.8-0.8,3.1V152.3z
			"/>
		<path class="st2" d="M368.2,156.5c0.7,0,1.2-0.2,1.7-0.6s0.6-1,0.7-1.8h2c0,1.2-0.5,2.2-1.3,3s-1.8,1.2-3,1.2
			c-1.6,0-2.8-0.5-3.6-1.5s-1.2-2.5-1.2-4.4v-1.4c0-1.9,0.4-3.4,1.2-4.4s2-1.5,3.6-1.5c1.3,0,2.3,0.4,3.1,1.2s1.2,1.9,1.2,3.4h-2
			c0-0.9-0.3-1.6-0.7-2.1s-1-0.7-1.7-0.7c-0.9,0-1.6,0.3-2.1,0.9s-0.7,1.6-0.7,3v1.6c0,1.5,0.2,2.5,0.7,3.2S367.2,156.5,368.2,156.5
			z"/>
		<path class="st2" d="M374.4,151.1c0-1.8,0.4-3.3,1.3-4.4s2.1-1.6,3.5-1.6s2.7,0.5,3.5,1.6s1.4,2.5,1.4,4.3v1.3
			c0,1.8-0.4,3.3-1.3,4.4s-2.1,1.6-3.6,1.6c-1.5,0-2.6-0.5-3.5-1.6s-1.3-2.4-1.4-4.2V151.1z M376.5,152.3c0,1.3,0.3,2.3,0.8,3.1
			s1.2,1.1,2.1,1.1c1.8,0,2.8-1.3,2.8-4v-1.4c0-1.3-0.3-2.3-0.8-3.1s-1.2-1.1-2.1-1.1c-0.9,0-1.5,0.4-2,1.1s-0.8,1.8-0.8,3.1V152.3z
			"/>
		<path class="st2" d="M388.9,145.3l0,1.2c0.8-0.9,1.8-1.4,3.1-1.4c1.4,0,2.4,0.6,3,1.8c0.8-1.2,1.9-1.8,3.3-1.8
			c2.3,0,3.5,1.5,3.6,4.4v8.5h-2.1v-8.3c0-0.9-0.2-1.6-0.5-2.1s-0.9-0.7-1.7-0.7c-0.6,0-1.1,0.2-1.5,0.7s-0.6,1.1-0.7,1.9v8.5h-2.1
			v-8.4c0-1.8-0.7-2.6-2.1-2.6c-1,0-1.8,0.5-2.2,1.6v9.5h-2.1v-12.7H388.9z"/>
		<path class="st2" d="M404.5,151.1c0-1.8,0.4-3.3,1.3-4.4s2.1-1.6,3.5-1.6s2.7,0.5,3.5,1.6s1.4,2.5,1.4,4.3v1.3
			c0,1.8-0.4,3.3-1.3,4.4s-2.1,1.6-3.6,1.6c-1.5,0-2.6-0.5-3.5-1.6s-1.3-2.4-1.4-4.2V151.1z M406.6,152.3c0,1.3,0.3,2.3,0.8,3.1
			s1.2,1.1,2.1,1.1c1.8,0,2.8-1.3,2.8-4v-1.4c0-1.3-0.3-2.3-0.8-3.1s-1.2-1.1-2.1-1.1c-0.9,0-1.5,0.4-2,1.1s-0.8,1.8-0.8,3.1V152.3z
			"/>
		<path class="st2" d="M428.7,154.8c0-0.4-0.2-0.8-0.5-1.1s-1-0.7-1.9-1.1c-1.1-0.5-1.9-0.9-2.4-1.2s-0.8-0.7-1-1.1
			s-0.3-0.9-0.3-1.5c0-1,0.4-1.9,1.1-2.6s1.7-1,2.9-1c1.2,0,2.2,0.4,3,1.1s1.1,1.6,1.1,2.8h-2.1c0-0.6-0.2-1.1-0.6-1.5
			s-0.9-0.6-1.5-0.6c-0.6,0-1.1,0.2-1.4,0.5c-0.3,0.3-0.5,0.7-0.5,1.3c0,0.4,0.1,0.8,0.4,1c0.3,0.3,0.9,0.6,1.8,1
			c1.5,0.6,2.6,1.2,3.1,1.8s0.8,1.3,0.8,2.2c0,1.1-0.4,2-1.1,2.6c-0.8,0.7-1.8,1-3,1c-1.3,0-2.4-0.4-3.2-1.1s-1.2-1.7-1.2-2.9h2.1
			c0,0.7,0.2,1.3,0.6,1.7s1,0.6,1.7,0.6c0.7,0,1.2-0.2,1.6-0.5S428.7,155.3,428.7,154.8z"/>
		<path class="st2" d="M438,158.2c-1.6,0-2.8-0.5-3.6-1.4s-1.3-2.3-1.3-4.1v-1.5c0-1.9,0.4-3.4,1.2-4.4s2-1.6,3.5-1.6
			c1.5,0,2.6,0.5,3.3,1.4s1.1,2.4,1.1,4.4v1.4h-7.1v0.3c0,1.4,0.3,2.3,0.8,3s1.2,0.9,2.2,0.9c0.6,0,1.1-0.1,1.6-0.3s0.9-0.6,1.3-1.1
			l1.1,1.3C441.2,157.6,439.8,158.2,438,158.2z M437.7,146.9c-0.9,0-1.5,0.3-1.9,0.9s-0.6,1.5-0.7,2.7h5v-0.3
			c-0.1-1.2-0.3-2.1-0.7-2.6S438.5,146.9,437.7,146.9z"/>
		<path class="st2" d="M451.2,158c-0.1-0.3-0.2-0.7-0.3-1.4c-0.7,1.1-1.7,1.6-2.8,1.6c-1.1,0-2-0.3-2.7-1s-1-1.6-1-2.7
			c0-1.3,0.4-2.3,1.3-3.1s2.1-1.1,3.6-1.2h1.5V149c0-0.8-0.2-1.3-0.5-1.6s-0.8-0.5-1.5-0.5c-0.6,0-1.1,0.2-1.5,0.6s-0.6,0.8-0.6,1.4
			h-2.1c0-0.6,0.2-1.3,0.6-1.9s0.9-1.1,1.5-1.4s1.4-0.5,2.2-0.5c1.3,0,2.3,0.3,3,1s1,1.6,1,2.8v6.4c0,1,0.1,1.8,0.4,2.5v0.2H451.2z
			 M448.4,156.3c0.5,0,1-0.1,1.5-0.4s0.8-0.6,1-1.1v-3h-1.2c-1,0-1.8,0.2-2.3,0.7s-0.9,1-0.9,1.8c0,0.7,0.1,1.2,0.4,1.6
			S447.8,156.3,448.4,156.3z"/>
		<path class="st2" d="M463.6,145.3l0.1,1.4c0.8-1.1,1.8-1.6,3.1-1.6c2.2,0,3.4,1.5,3.4,4.5v8.4h-2.1v-8.3c0-1-0.2-1.7-0.5-2.1
			s-0.8-0.6-1.5-0.6c-0.5,0-1,0.2-1.4,0.5s-0.7,0.8-1,1.3v9.2h-2.1v-12.7H463.6z"/>
		<path class="st2" d="M477.8,158.2c-1.6,0-2.8-0.5-3.6-1.4s-1.3-2.3-1.3-4.1v-1.5c0-1.9,0.4-3.4,1.2-4.4s2-1.6,3.5-1.6
			c1.5,0,2.6,0.5,3.3,1.4s1.1,2.4,1.1,4.4v1.4H475v0.3c0,1.4,0.3,2.3,0.8,3s1.2,0.9,2.2,0.9c0.6,0,1.1-0.1,1.6-0.3s0.9-0.6,1.3-1.1
			l1.1,1.3C481,157.6,479.7,158.2,477.8,158.2z M477.6,146.9c-0.9,0-1.5,0.3-1.9,0.9s-0.6,1.5-0.7,2.7h5v-0.3
			c-0.1-1.2-0.3-2.1-0.7-2.6S478.4,146.9,477.6,146.9z"/>
		<path class="st2" d="M488.9,156.5c0.7,0,1.2-0.2,1.7-0.6s0.6-1,0.7-1.8h2c0,1.2-0.5,2.2-1.3,3s-1.8,1.2-3,1.2
			c-1.6,0-2.8-0.5-3.6-1.5s-1.2-2.5-1.2-4.4v-1.4c0-1.9,0.4-3.4,1.2-4.4s2-1.5,3.6-1.5c1.3,0,2.3,0.4,3.1,1.2s1.2,1.9,1.2,3.4h-2
			c0-0.9-0.3-1.6-0.7-2.1s-1-0.7-1.7-0.7c-0.9,0-1.6,0.3-2.1,0.9s-0.7,1.6-0.7,3v1.6c0,1.5,0.2,2.5,0.7,3.2S488,156.5,488.9,156.5z"
			/>
		<path class="st2" d="M500.1,158.2c-1.6,0-2.8-0.5-3.6-1.4s-1.3-2.3-1.3-4.1v-1.5c0-1.9,0.4-3.4,1.2-4.4s2-1.6,3.5-1.6
			c1.5,0,2.6,0.5,3.3,1.4s1.1,2.4,1.1,4.4v1.4h-7.1v0.3c0,1.4,0.3,2.3,0.8,3s1.2,0.9,2.2,0.9c0.6,0,1.1-0.1,1.6-0.3s0.9-0.6,1.3-1.1
			l1.1,1.3C503.4,157.6,502,158.2,500.1,158.2z M499.9,146.9c-0.9,0-1.5,0.3-1.9,0.9s-0.6,1.5-0.7,2.7h5v-0.3
			c-0.1-1.2-0.3-2.1-0.7-2.6S500.7,146.9,499.9,146.9z"/>
		<path class="st2" d="M513,154.8c0-0.4-0.2-0.8-0.5-1.1s-1-0.7-1.9-1.1c-1.1-0.5-1.9-0.9-2.4-1.2s-0.8-0.7-1-1.1s-0.3-0.9-0.3-1.5
			c0-1,0.4-1.9,1.1-2.6s1.7-1,2.9-1c1.2,0,2.2,0.4,3,1.1s1.1,1.6,1.1,2.8h-2.1c0-0.6-0.2-1.1-0.6-1.5s-0.9-0.6-1.5-0.6
			c-0.6,0-1.1,0.2-1.4,0.5c-0.3,0.3-0.5,0.7-0.5,1.3c0,0.4,0.1,0.8,0.4,1c0.3,0.3,0.9,0.6,1.8,1c1.5,0.6,2.6,1.2,3.1,1.8
			s0.8,1.3,0.8,2.2c0,1.1-0.4,2-1.1,2.6c-0.8,0.7-1.8,1-3,1c-1.3,0-2.4-0.4-3.2-1.1s-1.2-1.7-1.2-2.9h2.1c0,0.7,0.2,1.3,0.6,1.7
			s1,0.6,1.7,0.6c0.7,0,1.2-0.2,1.6-0.5S513,155.3,513,154.8z"/>
		<path class="st2" d="M524.3,158c-0.1-0.3-0.2-0.7-0.3-1.4c-0.7,1.1-1.7,1.6-2.8,1.6c-1.1,0-2-0.3-2.7-1s-1-1.6-1-2.7
			c0-1.3,0.4-2.3,1.3-3.1s2.1-1.1,3.6-1.2h1.5V149c0-0.8-0.2-1.3-0.5-1.6s-0.8-0.5-1.5-0.5c-0.6,0-1.1,0.2-1.5,0.6s-0.6,0.8-0.6,1.4
			h-2.1c0-0.6,0.2-1.3,0.6-1.9s0.9-1.1,1.5-1.4s1.4-0.5,2.2-0.5c1.3,0,2.3,0.3,3,1s1,1.6,1,2.8v6.4c0,1,0.1,1.8,0.4,2.5v0.2H524.3z
			 M521.5,156.3c0.5,0,1-0.1,1.5-0.4s0.8-0.6,1-1.1v-3h-1.2c-1,0-1.8,0.2-2.3,0.7s-0.9,1-0.9,1.8c0,0.7,0.1,1.2,0.4,1.6
			S520.9,156.3,521.5,156.3z"/>
		<path class="st2" d="M534.5,147.3c-0.3-0.1-0.6-0.1-0.9-0.1c-1.1,0-1.8,0.6-2.2,1.7v9.1h-2.1v-12.7h2l0,1.3c0.6-1,1.3-1.5,2.4-1.5
			c0.3,0,0.6,0.1,0.8,0.2L534.5,147.3z"/>
		<path class="st2" d="M539,142c0,0.4-0.1,0.6-0.3,0.9s-0.5,0.4-0.9,0.4c-0.4,0-0.7-0.1-0.9-0.4s-0.3-0.5-0.3-0.9s0.1-0.6,0.3-0.9
			s0.5-0.4,0.9-0.4s0.7,0.1,0.9,0.4S539,141.6,539,142z M538.8,158h-2.1v-12.7h2.1V158z"/>
		<path class="st2" d="M541.6,151.1c0-1.8,0.4-3.3,1.3-4.4s2.1-1.6,3.5-1.6s2.7,0.5,3.5,1.6s1.4,2.5,1.4,4.3v1.3
			c0,1.8-0.4,3.3-1.3,4.4s-2.1,1.6-3.6,1.6c-1.5,0-2.6-0.5-3.5-1.6s-1.3-2.4-1.4-4.2V151.1z M543.7,152.3c0,1.3,0.3,2.3,0.8,3.1
			s1.2,1.1,2.1,1.1c1.8,0,2.8-1.3,2.8-4v-1.4c0-1.3-0.3-2.3-0.8-3.1s-1.2-1.1-2.1-1.1c-0.9,0-1.5,0.4-2,1.1s-0.8,1.8-0.8,3.1V152.3z
			"/>
		<path class="st2" d="M554.3,156.9c0-0.4,0.1-0.7,0.3-0.9s0.6-0.4,1-0.4s0.8,0.1,1,0.4s0.3,0.6,0.3,0.9c0,0.4-0.1,0.7-0.3,0.9
			s-0.6,0.4-1,0.4s-0.8-0.1-1-0.4S554.3,157.2,554.3,156.9z"/>
	</g>
	<rect class="st0" width="244" height="88"/>
	<g class="st1">
		<path class="st2" d="M34.7,55.1H24.1L22.1,63h-8.2l12-38.4H33L45,63h-8.3L34.7,55.1z M25.8,48.7H33L29.4,35L25.8,48.7z"/>
		<path class="st2" d="M74.2,58.6c-1.5,1.6-3.3,2.8-5.5,3.7c-2.2,0.8-4.5,1.2-7.1,1.2c-4.4,0-7.8-1.4-10.3-4.1
			c-2.4-2.7-3.7-6.7-3.8-11.9v-6.9c0-5.3,1.2-9.4,3.5-12.2c2.3-2.9,5.7-4.3,10.1-4.3c4.2,0,7.3,1,9.4,3.1c2.1,2.1,3.3,5.3,3.7,9.7
			h-7.5c-0.2-2.4-0.7-4.1-1.5-5c-0.8-0.9-2.1-1.3-3.8-1.3c-2.1,0-3.6,0.8-4.6,2.3s-1.4,4-1.5,7.3v7c0,3.5,0.5,6,1.6,7.6
			c1,1.6,2.8,2.4,5.2,2.4c1.5,0,2.8-0.3,3.7-0.9l0.7-0.5v-7H61v-5.9h13.2V58.6z"/>
		<path class="st2" d="M91.3,49h-3.8v14h-7.8V24.6h12.4c3.9,0,6.9,1,9,3c2.1,2,3.2,4.9,3.2,8.6c0,5.1-1.9,8.7-5.6,10.7l6.7,15.7V63
			h-8.3L91.3,49z M87.4,42.5h4.4c1.5,0,2.7-0.5,3.5-1.5c0.8-1,1.2-2.4,1.2-4.1c0-3.8-1.5-5.8-4.5-5.8h-4.5V42.5z"/>
		<path class="st2" d="M129.4,46.4h-12.1v10.2h14.3V63h-22V24.6h22v6.5h-14.2v9.1h12.1V46.4z"/>
		<path class="st2" d="M162.2,58.6c-1.5,1.6-3.3,2.8-5.5,3.7c-2.2,0.8-4.5,1.2-7.1,1.2c-4.4,0-7.8-1.4-10.3-4.1s-3.7-6.7-3.8-11.9
			v-6.9c0-5.3,1.2-9.4,3.5-12.2c2.3-2.9,5.7-4.3,10.1-4.3c4.2,0,7.3,1,9.4,3.1s3.3,5.3,3.7,9.7h-7.5c-0.2-2.4-0.7-4.1-1.5-5
			c-0.8-0.9-2.1-1.3-3.8-1.3c-2.1,0-3.6,0.8-4.6,2.3s-1.4,4-1.5,7.3v7c0,3.5,0.5,6,1.6,7.6c1,1.6,2.8,2.4,5.2,2.4
			c1.5,0,2.8-0.3,3.7-0.9l0.7-0.5v-7H149v-5.9h13.2V58.6z"/>
		<path class="st2" d="M186,55.1h-10.6l-2.1,7.9h-8.2l12-38.4h7.1L196.3,63H188L186,55.1z M177.1,48.7h7.2L180.7,35L177.1,48.7z"/>
		<path class="st2" d="M211.5,49h-3.8v14h-7.8V24.6h12.4c3.9,0,6.9,1,9,3c2.1,2,3.2,4.9,3.2,8.6c0,5.1-1.9,8.7-5.6,10.7l6.7,15.7V63
			h-8.3L211.5,49z M207.7,42.5h4.4c1.5,0,2.7-0.5,3.5-1.5s1.2-2.4,1.2-4.1c0-3.8-1.5-5.8-4.5-5.8h-4.5V42.5z"/>
	</g>
</g>
</svg>
