<svg xmlns="http://www.w3.org/2000/svg" xmlns:xlink="http://www.w3.org/1999/xlink" width="401.94" height="331.977" viewBox="0 0 401.94 331.977"><defs><radialGradient id="a" cx="0.466" cy="1.228" r="3.165" gradientTransform="translate(13.499 400.913) scale(0.157 0.161)" gradientUnits="objectBoundingBox"><stop offset="0" stop-color="#9d9d9c"/><stop offset="0.19" stop-color="#aaaaa9"/><stop offset="0.55" stop-color="#ccc"/><stop offset="1" stop-color="#fff"/></radialGradient></defs><g transform="translate(0.07 -0.03)" style="isolation:isolate"><path d="M361.6,331.8c0,11.4-58.5,20.6-130.6,20.6s-130.6-9.2-130.6-20.6,58.5-20.5,130.6-20.5S361.6,320.5,361.6,331.8Z" transform="translate(-11.7 -46.7)" fill="url(#a)" style="mix-blend-mode:multiply;isolation:isolate"/><g opacity="0.3" style="mix-blend-mode:multiply;isolation:isolate"><line x1="26.3" y2="116.3" transform="translate(369.8 120.7)" fill="#c6c6c6" stroke="#671414" stroke-linecap="round" stroke-linejoin="round" stroke-width="4.01"/><line y1="94.9" x2="147.9" transform="translate(7.9 7.1)" fill="#c6c6c6" stroke="#671414" stroke-linecap="round" stroke-linejoin="round" stroke-width="4.01"/><line x2="146.8" y2="20" transform="translate(155.8 7.1)" fill="#c6c6c6" stroke="#671414" stroke-linecap="round" stroke-linejoin="round" stroke-width="4.01"/><line x2="93.5" y2="93.6" transform="translate(302.6 27.1)" fill="#c6c6c6" stroke="#671414" stroke-linecap="round" stroke-linejoin="round" stroke-width="4.01"/><line x1="132.4" y2="86.8" transform="translate(237.4 237)" fill="#c6c6c6" stroke="#671414" stroke-linecap="round" stroke-linejoin="round" stroke-width="4.01"/><line x1="162" y1="21.4" transform="translate(75.4 302.4)" fill="#c6c6c6" stroke="#671414" stroke-linecap="round" stroke-linejoin="round" stroke-width="4.01"/><line x1="56.5" y1="93.5" transform="translate(18.9 208.9)" fill="#c6c6c6" stroke="#671414" stroke-linecap="round" stroke-linejoin="round" stroke-width="4.01"/><line x1="11" y1="106.9" transform="translate(7.9 102)" fill="#c6c6c6" stroke="#671414" stroke-linecap="round" stroke-linejoin="round" stroke-width="4.01"/><line y1="53.5" x2="118.5" transform="translate(18.9 155.4)" fill="#c6c6c6" stroke="#671414" stroke-linecap="round" stroke-linejoin="round" stroke-width="4.01"/><line y1="147" x2="62" transform="translate(75.4 155.4)" fill="#c6c6c6" stroke="#671414" stroke-linecap="round" stroke-linejoin="round" stroke-width="4.01"/><line x1="100" y1="168.4" transform="translate(137.4 155.4)" fill="#c6c6c6" stroke="#671414" stroke-linecap="round" stroke-linejoin="round" stroke-width="4.01"/><line y1="296.7" x2="65.2" transform="translate(237.4 27.1)" fill="#c6c6c6" stroke="#671414" stroke-linecap="round" stroke-linejoin="round" stroke-width="4.01"/><line y1="46.1" x2="63" transform="translate(137.4 109.3)" fill="#c6c6c6" stroke="#671414" stroke-linecap="round" stroke-linejoin="round" stroke-width="4.01"/><line x1="44.6" y1="102.2" transform="translate(155.8 7.1)" fill="#c6c6c6" stroke="#671414" stroke-linecap="round" stroke-linejoin="round" stroke-width="4.01"/><line y1="82.2" x2="102.2" transform="translate(200.4 27.1)" fill="#c6c6c6" stroke="#671414" stroke-linecap="round" stroke-linejoin="round" stroke-width="4.01"/><line x1="99.8" y1="64.9" transform="translate(270 172.1)" fill="#c6c6c6" stroke="#671414" stroke-linecap="round" stroke-linejoin="round" stroke-width="4.01"/><line x1="132.6" y1="16.7" transform="translate(137.4 155.4)" fill="#c6c6c6" stroke="#671414" stroke-linecap="round" stroke-linejoin="round" stroke-width="4.01"/><line x2="192.5" y2="7.3" transform="translate(7.9 102)" fill="#c6c6c6" stroke="#671414" stroke-linecap="round" stroke-linejoin="round" stroke-width="4.01"/><line x1="126.1" y2="51.4" transform="translate(270 120.7)" fill="#c6c6c6" stroke="#671414" stroke-linecap="round" stroke-linejoin="round" stroke-width="4.01"/><line y1="197.5" x2="136.9" transform="translate(18.9 7.1)" fill="#c6c6c6" stroke="#671414" stroke-linecap="round" stroke-linejoin="round" stroke-width="4.01"/><line x1="55.6" y1="51.2" transform="translate(81.8 102)" fill="#c6c6c6" stroke="#671414" stroke-linecap="round" stroke-linejoin="round" stroke-width="4.01"/><path d="M293,219.7a9.2,9.2,0,1,1-9.2-9.2,9.2,9.2,0,0,1,9.2,9.2Z" transform="translate(-11.7 -46.7)" fill="#c6c6c6" stroke="#671414" stroke-miterlimit="10" stroke-width="1.14"/><path d="M158.2,202.1a9.2,9.2,0,1,1-9.1-9.2A9.2,9.2,0,0,1,158.2,202.1Z" transform="translate(-11.7 -46.7)" fill="#c6c6c6" stroke="#671414" stroke-miterlimit="10" stroke-width="1.14"/><path d="M96.3,349.1a9.2,9.2,0,1,1-9.2-9.1,9.2,9.2,0,0,1,9.2,9.1Z" transform="translate(-11.7 -46.7)" fill="#c6c6c6" stroke="#671414" stroke-miterlimit="10" stroke-width="1.14"/><path d="M254.7,368.7a9.2,9.2,0,1,1-9.2-9.1,9.2,9.2,0,0,1,9.2,9.1Z" transform="translate(-11.7 -46.7)" fill="#c6c6c6" stroke="#671414" stroke-miterlimit="10" stroke-width="1.14"/><path d="M390.6,283.7a9.2,9.2,0,1,1-9.2-9.2,9.2,9.2,0,0,1,9.2,9.2Z" transform="translate(-11.7 -46.7)" fill="#c6c6c6" stroke="#671414" stroke-miterlimit="10" stroke-width="1.14"/><path d="M413,167.4a9.2,9.2,0,1,1-9.2-9.2A9.2,9.2,0,0,1,413,167.4Z" transform="translate(-11.7 -46.7)" fill="#c6c6c6" stroke="#671414" stroke-miterlimit="10" stroke-width="1.14"/><path d="M323.5,73.8a9.2,9.2,0,1,1-9.2-9.2A9.2,9.2,0,0,1,323.5,73.8Z" transform="translate(-11.7 -46.7)" fill="#c6c6c6" stroke="#671414" stroke-miterlimit="10" stroke-width="1.14"/><path d="M217.4,157.9a9.2,9.2,0,1,1-9.1-9.2,9.1,9.1,0,0,1,9.1,9.2Z" transform="translate(-11.7 -46.7)" fill="#c6c6c6" stroke="#671414" stroke-miterlimit="10" stroke-width="1.14"/><path d="M108.2,152.5a9.2,9.2,0,1,1-9.2-9.2A9.2,9.2,0,0,1,108.2,152.5Z" transform="translate(-11.7 -46.7)" fill="#c6c6c6" stroke="#671414" stroke-miterlimit="10" stroke-width="1.14"/><path d="M176.6,56.5a9.2,9.2,0,1,1-9.2-9.2A9.2,9.2,0,0,1,176.6,56.5Z" transform="translate(-11.7 -46.7)" fill="#c6c6c6" stroke="#671414" stroke-miterlimit="10" stroke-width="1.14"/><path d="M30.6,146.8a9.2,9.2,0,1,1-9.2-9.2,9.2,9.2,0,0,1,9.2,9.2Z" transform="translate(-11.7 -46.7)" fill="#c6c6c6" stroke="#671414" stroke-miterlimit="10" stroke-width="1.14"/><path d="M42.7,255.5a9.2,9.2,0,1,1-9.1-9.2,9.2,9.2,0,0,1,9.1,9.2Z" transform="translate(-11.7 -46.7)" fill="#c6c6c6" stroke="#671414" stroke-miterlimit="10" stroke-width="1.14"/></g><rect width="136.7" height="183.14" rx="18.6" transform="translate(215.8 67.2)" fill="#dadada"/><rect width="107" height="5.16" transform="translate(230.5 92.7)" fill="#b2b2b2"/><rect width="107" height="5.16" transform="translate(230.5 108.6)" fill="#b2b2b2"/><rect width="107" height="5.16" transform="translate(230.5 124.6)" fill="#b2b2b2"/><rect width="107" height="5.16" transform="translate(230.5 140.6)" fill="#b2b2b2"/><path d="M345.6,113.9H330.5a154,154,0,0,1,5,38.5c0,64-40.6,119.9-97.1,143a17.7,17.7,0,0,0,7.7,1.7h99.5a18.6,18.6,0,0,0,18.6-18.6v-146a18.6,18.6,0,0,0-18.6-18.6Z" transform="translate(-11.7 -46.7)" fill="#dadada" style="mix-blend-mode:multiply;isolation:isolate"/><rect width="132.1" height="176.91" rx="17.9" transform="translate(49.3 74.2)" fill="#dadada"/><rect width="103.4" height="4.98" transform="translate(63.6 98.8)" fill="#b2b2b2"/><rect width="103.4" height="4.98" transform="translate(63.6 114.2)" fill="#b2b2b2"/><rect width="103.4" height="4.98" transform="translate(63.6 129.7)" fill="#b2b2b2"/><rect width="103.4" height="4.98" transform="translate(63.6 145.1)" fill="#b2b2b2"/><rect width="43.3" height="4.98" transform="translate(123.9 173.5)" fill="#b2b2b2"/><rect width="43.3" height="4.98" transform="translate(123.9 188.9)" fill="#b2b2b2"/><rect width="43.3" height="4.98" transform="translate(123.9 204.4)" fill="#b2b2b2"/><rect width="43.3" height="4.98" transform="translate(123.9 219.8)" fill="#b2b2b2"/><path d="M216.6,201.3v.3H145.4v95.9H263.3V201.6h-9.8v-.3a6,6,0,0,0-6-6H222.6a6,6,0,0,0-6,6Z" transform="translate(-11.7 -46.7)" fill="#333231"/><rect width="115.8" height="98.68" transform="translate(139.4 159.9)" fill="#fff"/><path d="M259.9,222.7v.3H188.6l-33.2,88.3h118L306.6,223h-9.8v-.3a6,6,0,0,0-6-6H265.9a6,6,0,0,0-6,6Z" transform="translate(-11.7 -46.7)" fill="#333231"/><path d="M179.9,138.1V89.7H150.4v48.4H138.9l26.9,34,26.9-34Z" fill="#71bf44"/></g></svg>