<?xml version="1.0" encoding="utf-8"?>
<!-- Generator: Adobe Illustrator 25.2.3, SVG Export Plug-In . SVG Version: 6.00 Build 0)  -->
<svg version="1.1" id="Layer_1" xmlns="http://www.w3.org/2000/svg" xmlns:xlink="http://www.w3.org/1999/xlink" x="0px" y="0px"
	 viewBox="0 0 704 192" style="enable-background:new 0 0 704 192;" xml:space="preserve">
<style type="text/css">
	.st0{enable-background:new    ;}
	.st1{fill:#333231;}
	.st2{fill:#FFFFFF;}
</style>
<g transform="translate(-256 -266)">
	<g class="st0">
		<path class="st1" d="M468.9,294.7v21.7c0,3.3-0.9,5.7-2.7,7.5c-1.8,1.7-4.3,2.6-7.6,2.6c-3.4,0-5.9-0.9-7.7-2.6
			c-1.8-1.7-2.7-4.3-2.7-7.6v-21.5h6.4v21.5c0,1.8,0.3,3,0.9,3.8c0.6,0.8,1.6,1.1,3.1,1.1s2.5-0.4,3.1-1.1s0.8-2,0.9-3.7v-21.6
			H468.9z"/>
		<path class="st1" d="M495.5,326h-6.3l-9.2-20.5V326h-6.3v-31.3h6.3l9.3,20.5v-20.5h6.3V326z"/>
		<path class="st1" d="M515.9,319.6h-8.6l-1.7,6.4h-6.7l9.8-31.3h5.8l9.8,31.3h-6.7L515.9,319.6z M508.7,314.3h5.8l-2.9-11.2
			L508.7,314.3z"/>
		<path class="st1" d="M543.7,315v11h-6.3v-31.3h10.7c3.1,0,5.6,1,7.4,2.9c1.8,1.9,2.8,4.4,2.8,7.5c0,3.1-0.9,5.5-2.7,7.3
			c-1.8,1.8-4.3,2.7-7.6,2.7H543.7z M543.7,309.7h4.3c1.2,0,2.1-0.4,2.8-1.2c0.7-0.8,1-1.9,1-3.4c0-1.6-0.3-2.8-1-3.7
			c-0.7-0.9-1.6-1.4-2.7-1.4h-4.4V309.7z"/>
		<path class="st1" d="M571.9,314.6h-3.1V326h-6.3v-31.3h10.1c3.2,0,5.6,0.8,7.3,2.5c1.7,1.6,2.6,4,2.6,7c0,4.2-1.5,7.1-4.5,8.7
			l5.5,12.8v0.3h-6.8L571.9,314.6z M568.8,309.3h3.6c1.3,0,2.2-0.4,2.8-1.3c0.6-0.8,0.9-2,0.9-3.4c0-3.1-1.2-4.7-3.7-4.7h-3.7V309.3
			z"/>
		<path class="st1" d="M602.9,312.5h-9.8v8.3h11.6v5.2h-18v-31.3h17.9v5.3h-11.6v7.4h9.8V312.5z"/>
		<path class="st1" d="M621.6,317.8c0-1.3-0.3-2.2-1-2.9c-0.7-0.7-1.8-1.3-3.6-2c-3.1-1.2-5.4-2.6-6.8-4.2c-1.4-1.6-2.1-3.5-2.1-5.7
			c0-2.6,0.9-4.8,2.8-6.3c1.9-1.6,4.2-2.4,7.1-2.4c1.9,0,3.6,0.4,5.1,1.2c1.5,0.8,2.7,2,3.5,3.4c0.8,1.5,1.2,3.2,1.2,5h-6.3
			c0-1.5-0.3-2.6-0.9-3.3c-0.6-0.8-1.5-1.1-2.7-1.1c-1.1,0-2,0.3-2.6,1c-0.6,0.7-0.9,1.5-0.9,2.6c0,0.9,0.3,1.6,1,2.3
			c0.7,0.7,1.9,1.4,3.7,2.2c3.1,1.1,5.3,2.5,6.6,4.1c1.4,1.6,2.1,3.6,2.1,6.1c0,2.7-0.9,4.8-2.6,6.4c-1.7,1.5-4.1,2.3-7.1,2.3
			c-2,0-3.9-0.4-5.5-1.2c-1.7-0.8-3-2-3.9-3.6c-0.9-1.5-1.4-3.4-1.4-5.5h6.3c0,1.8,0.4,3.1,1.1,3.9c0.7,0.8,1.8,1.2,3.4,1.2
			C620.5,321.3,621.6,320.1,621.6,317.8z"/>
		<path class="st1" d="M648.3,312.5h-9.8v8.3h11.6v5.2h-18v-31.3h17.9v5.3h-11.6v7.4h9.8V312.5z"/>
		<path class="st1" d="M675.6,326h-6.3l-9.2-20.5V326h-6.3v-31.3h6.3l9.3,20.5v-20.5h6.3V326z"/>
		<path class="st1" d="M700.3,300h-7.7v26h-6.3v-26h-7.6v-5.3h21.7V300z"/>
		<path class="st1" d="M716.3,319.6h-8.6L706,326h-6.7l9.8-31.3h5.8l9.8,31.3H718L716.3,319.6z M709.1,314.3h5.8l-2.9-11.2
			L709.1,314.3z"/>
		<path class="st1" d="M748.4,315.6c-0.2,3.6-1.2,6.3-3,8.1c-1.8,1.8-4.5,2.8-7.8,2.8c-3.5,0-6.2-1.2-8.1-3.5
			c-1.9-2.3-2.8-5.6-2.8-10v-5.3c0-4.3,1-7.6,2.9-9.9c1.9-2.3,4.7-3.5,8.1-3.5c3.4,0,6,1,7.8,2.9c1.8,1.9,2.8,4.6,3,8.2h-6.3
			c-0.1-2.2-0.4-3.7-1-4.6s-1.8-1.3-3.4-1.3c-1.7,0-2.9,0.6-3.6,1.8c-0.7,1.2-1.1,3.1-1.1,5.8v5.9c0,3.1,0.3,5.2,1,6.4
			c0.7,1.2,1.9,1.7,3.6,1.7c1.7,0,2.8-0.4,3.4-1.2c0.6-0.8,1-2.3,1.1-4.4H748.4z"/>
		<path class="st1" d="M758.9,326h-6.3v-31.3h6.3V326z"/>
		<path class="st1" d="M786.2,313.2c0,4.2-1,7.5-3,9.8c-2,2.3-4.7,3.5-8.3,3.5c-3.5,0-6.3-1.1-8.3-3.4c-2-2.3-3-5.5-3.1-9.7V308
			c0-4.3,1-7.7,3-10.1c2-2.4,4.8-3.6,8.3-3.6c3.5,0,6.2,1.2,8.2,3.6c2,2.4,3,5.7,3.1,10V313.2z M779.9,307.9c0-2.8-0.4-4.9-1.2-6.3
			c-0.8-1.4-2-2.1-3.7-2.1c-1.7,0-2.9,0.7-3.7,2c-0.8,1.3-1.2,3.3-1.2,6v5.6c0,2.7,0.4,4.8,1.2,6c0.8,1.3,2.1,1.9,3.8,1.9
			c1.6,0,2.9-0.6,3.7-1.9c0.8-1.3,1.2-3.2,1.2-5.9V307.9z M776.2,286.3h6.8l-6,6.7H772L776.2,286.3z"/>
		<path class="st1" d="M812.6,326h-6.3l-9.2-20.5V326h-6.3v-31.3h6.3l9.3,20.5v-20.5h6.3V326z"/>
		<path class="st1" d="M849.7,326h-6.3l-9.2-20.5V326h-6.3v-31.3h6.3l9.3,20.5v-20.5h6.3V326z"/>
		<path class="st1" d="M875.1,294.7v21.7c0,3.3-0.9,5.7-2.7,7.5c-1.8,1.7-4.3,2.6-7.6,2.6c-3.4,0-5.9-0.9-7.7-2.6
			c-1.8-1.7-2.7-4.3-2.7-7.6v-21.5h6.4v21.5c0,1.8,0.3,3,0.9,3.8c0.6,0.8,1.6,1.1,3.1,1.1s2.5-0.4,3.1-1.1s0.8-2,0.9-3.7v-21.6
			H875.1z"/>
		<path class="st1" d="M896.1,312.5h-9.8v8.3h11.6v5.2h-18v-31.3h17.9v5.3h-11.6v7.4h9.8V312.5z"/>
		<path class="st1" d="M911.7,317.4l5.3-22.7h7l-9,31.3h-6.6l-9-31.3h7L911.7,317.4z"/>
		<path class="st1" d="M940.2,319.6h-8.6L930,326h-6.7l9.8-31.3h5.8l9.8,31.3h-6.7L940.2,319.6z M933,314.3h5.8l-2.9-11.2L933,314.3
			z"/>
	</g>
	<g class="st0">
		<path class="st2" d="M266,388.1h-6v6h7v1.8h-9.2v-17.1h9.1v1.8H260v5.5h6V388.1z"/>
		<path class="st2" d="M271.7,396h-2.1v-18h2.1V396z"/>
		<path class="st2" d="M277.4,380c0,0.4-0.1,0.6-0.3,0.9s-0.5,0.4-0.9,0.4c-0.4,0-0.7-0.1-0.9-0.4s-0.3-0.5-0.3-0.9s0.1-0.6,0.3-0.9
			s0.5-0.4,0.9-0.4s0.7,0.1,0.9,0.4S277.4,379.6,277.4,380z M277.2,396h-2.1v-12.7h2.1V396z"/>
		<path class="st2" d="M282.6,383.3v14.3c0,2.4-1,3.5-2.8,3.5c-0.4,0-0.8-0.1-1.1-0.2l0-1.7c0.2,0.1,0.5,0.1,0.8,0.1
			c0.4,0,0.6-0.1,0.8-0.4s0.3-0.7,0.3-1.4v-14.2H282.6z M282.7,380c0,0.4-0.1,0.6-0.3,0.9s-0.5,0.4-0.9,0.4c-0.4,0-0.7-0.1-0.9-0.4
			s-0.3-0.5-0.3-0.9s0.1-0.6,0.3-0.9s0.5-0.4,0.9-0.4s0.7,0.1,0.9,0.4S282.7,379.6,282.7,380z"/>
		<path class="st2" d="M292.4,396c-0.1-0.3-0.2-0.7-0.3-1.4c-0.7,1.1-1.7,1.6-2.8,1.6c-1.1,0-2-0.3-2.7-1s-1-1.6-1-2.7
			c0-1.3,0.4-2.3,1.3-3.1s2.1-1.1,3.6-1.2h1.5V387c0-0.8-0.2-1.3-0.5-1.6s-0.8-0.5-1.5-0.5c-0.6,0-1.1,0.2-1.5,0.6s-0.6,0.8-0.6,1.4
			h-2.1c0-0.6,0.2-1.3,0.6-1.9s0.9-1.1,1.5-1.4s1.4-0.5,2.2-0.5c1.3,0,2.3,0.3,3,1s1,1.6,1,2.8v6.4c0,1,0.1,1.8,0.4,2.5v0.2H292.4z
			 M289.6,394.3c0.5,0,1-0.1,1.5-0.4s0.8-0.6,1-1.1v-3h-1.2c-1,0-1.8,0.2-2.3,0.7s-0.9,1-0.9,1.8c0,0.7,0.1,1.2,0.4,1.6
			S288.9,394.3,289.6,394.3z"/>
		<path class="st2" d="M305.1,396H303v-18h2.1V396z"/>
		<path class="st2" d="M307.9,389.1c0-1.8,0.4-3.3,1.3-4.4s2.1-1.6,3.5-1.6s2.7,0.5,3.5,1.6s1.4,2.5,1.4,4.3v1.3
			c0,1.8-0.4,3.3-1.3,4.4s-2.1,1.6-3.6,1.6c-1.5,0-2.6-0.5-3.5-1.6s-1.3-2.4-1.4-4.2V389.1z M310,390.3c0,1.3,0.3,2.3,0.8,3.1
			s1.2,1.1,2.1,1.1c1.8,0,2.8-1.3,2.8-4v-1.4c0-1.3-0.3-2.3-0.8-3.1s-1.2-1.1-2.1-1.1c-0.9,0-1.5,0.4-2,1.1s-0.8,1.8-0.8,3.1V390.3z
			"/>
		<path class="st2" d="M326.5,392.8c0-0.4-0.2-0.8-0.5-1.1s-1-0.7-1.9-1.1c-1.1-0.5-1.9-0.9-2.4-1.2s-0.8-0.7-1-1.1
			s-0.3-0.9-0.3-1.5c0-1,0.4-1.9,1.1-2.6s1.7-1,2.9-1c1.2,0,2.2,0.4,3,1.1s1.1,1.6,1.1,2.8h-2.1c0-0.6-0.2-1.1-0.6-1.5
			s-0.9-0.6-1.5-0.6c-0.6,0-1.1,0.2-1.4,0.5c-0.3,0.3-0.5,0.7-0.5,1.3c0,0.4,0.1,0.8,0.4,1c0.3,0.3,0.9,0.6,1.8,1
			c1.5,0.6,2.6,1.2,3.1,1.8s0.8,1.3,0.8,2.2c0,1.1-0.4,2-1.1,2.6c-0.8,0.7-1.8,1-3,1c-1.3,0-2.4-0.4-3.2-1.1s-1.2-1.7-1.2-2.9h2.1
			c0,0.7,0.2,1.3,0.6,1.7s1,0.6,1.7,0.6c0.7,0,1.2-0.2,1.6-0.5S326.5,393.3,326.5,392.8z"/>
		<path class="st2" d="M341.2,394.5c0.7,0,1.2-0.2,1.7-0.6s0.6-1,0.7-1.8h2c0,1.2-0.5,2.2-1.3,3s-1.8,1.2-3,1.2
			c-1.6,0-2.8-0.5-3.6-1.5s-1.2-2.5-1.2-4.4v-1.4c0-1.9,0.4-3.4,1.2-4.4s2-1.5,3.6-1.5c1.3,0,2.3,0.4,3.1,1.2s1.2,1.9,1.2,3.4h-2
			c0-0.9-0.3-1.6-0.7-2.1s-1-0.7-1.7-0.7c-0.9,0-1.6,0.3-2.1,0.9s-0.7,1.6-0.7,3v1.6c0,1.5,0.2,2.5,0.7,3.2S340.2,394.5,341.2,394.5
			z"/>
		<path class="st2" d="M354.4,396c-0.1-0.3-0.2-0.7-0.3-1.4c-0.7,1.1-1.7,1.6-2.8,1.6c-1.1,0-2-0.3-2.7-1s-1-1.6-1-2.7
			c0-1.3,0.4-2.3,1.3-3.1s2.1-1.1,3.6-1.2h1.5V387c0-0.8-0.2-1.3-0.5-1.6s-0.8-0.5-1.5-0.5c-0.6,0-1.1,0.2-1.5,0.6s-0.6,0.8-0.6,1.4
			h-2.1c0-0.6,0.2-1.3,0.6-1.9s0.9-1.1,1.5-1.4s1.4-0.5,2.2-0.5c1.3,0,2.3,0.3,3,1s1,1.6,1,2.8v6.4c0,1,0.1,1.8,0.4,2.5v0.2H354.4z
			 M351.6,394.3c0.5,0,1-0.1,1.5-0.4s0.8-0.6,1-1.1v-3h-1.2c-1,0-1.8,0.2-2.3,0.7s-0.9,1-0.9,1.8c0,0.7,0.1,1.2,0.4,1.6
			S350.9,394.3,351.6,394.3z"/>
		<path class="st2" d="M361.3,383.3l0.1,1.4c0.8-1.1,1.8-1.6,3.1-1.6c2.2,0,3.4,1.5,3.4,4.5v8.4h-2.1v-8.3c0-1-0.2-1.7-0.5-2.1
			s-0.8-0.6-1.5-0.6c-0.5,0-1,0.2-1.4,0.5s-0.7,0.8-1,1.3v9.2h-2.1v-12.7H361.3z"/>
		<path class="st2" d="M373.7,380.2v3.1h1.9v1.7h-1.9v7.9c0,0.5,0.1,0.9,0.2,1.1c0.2,0.3,0.4,0.4,0.8,0.4c0.3,0,0.6,0,0.8-0.1l0,1.7
			c-0.5,0.2-0.9,0.2-1.4,0.2c-0.8,0-1.4-0.3-1.9-0.9s-0.6-1.4-0.6-2.5V385h-1.9v-1.7h1.9v-3.1H373.7z"/>
		<path class="st2" d="M377.4,389.1c0-1.8,0.4-3.3,1.3-4.4s2.1-1.6,3.5-1.6s2.7,0.5,3.5,1.6s1.4,2.5,1.4,4.3v1.3
			c0,1.8-0.4,3.3-1.3,4.4s-2.1,1.6-3.6,1.6c-1.5,0-2.6-0.5-3.5-1.6s-1.3-2.4-1.4-4.2V389.1z M379.5,390.3c0,1.3,0.3,2.3,0.8,3.1
			s1.2,1.1,2.1,1.1c1.8,0,2.8-1.3,2.8-4v-1.4c0-1.3-0.3-2.3-0.8-3.1s-1.2-1.1-2.1-1.1c-0.9,0-1.5,0.4-2,1.1s-0.8,1.8-0.8,3.1V390.3z
			"/>
		<path class="st2" d="M396.1,392.8c0-0.4-0.2-0.8-0.5-1.1s-1-0.7-1.9-1.1c-1.1-0.5-1.9-0.9-2.4-1.2s-0.8-0.7-1-1.1
			s-0.3-0.9-0.3-1.5c0-1,0.4-1.9,1.1-2.6s1.7-1,2.9-1c1.2,0,2.2,0.4,3,1.1s1.1,1.6,1.1,2.8h-2.1c0-0.6-0.2-1.1-0.6-1.5
			s-0.9-0.6-1.5-0.6c-0.6,0-1.1,0.2-1.4,0.5c-0.3,0.3-0.5,0.7-0.5,1.3c0,0.4,0.1,0.8,0.4,1c0.3,0.3,0.9,0.6,1.8,1
			c1.5,0.6,2.6,1.2,3.1,1.8s0.8,1.3,0.8,2.2c0,1.1-0.4,2-1.1,2.6c-0.8,0.7-1.8,1-3,1c-1.3,0-2.4-0.4-3.2-1.1s-1.2-1.7-1.2-2.9h2.1
			c0,0.7,0.2,1.3,0.6,1.7s1,0.6,1.7,0.6c0.7,0,1.2-0.2,1.6-0.5S396.1,393.3,396.1,392.8z"/>
		<path class="st2" d="M405.9,389.1c0-2,0.4-3.4,1.1-4.5s1.8-1.5,3.1-1.5c1.2,0,2.2,0.5,2.8,1.5V378h2.1v18h-1.9l-0.1-1.4
			c-0.7,1.1-1.7,1.6-2.9,1.6c-1.3,0-2.3-0.5-3.1-1.5s-1.1-2.5-1.1-4.3V389.1z M408,390.3c0,1.4,0.2,2.5,0.6,3.1c0.4,0.7,1.1,1,2.1,1
			c1,0,1.8-0.5,2.3-1.6v-6.4c-0.5-1-1.3-1.5-2.3-1.5c-1,0-1.6,0.3-2.1,1s-0.6,1.7-0.6,3.1V390.3z"/>
		<path class="st2" d="M422.8,396.2c-1.6,0-2.8-0.5-3.6-1.4s-1.3-2.3-1.3-4.1v-1.5c0-1.9,0.4-3.4,1.2-4.4s2-1.6,3.5-1.6
			c1.5,0,2.6,0.5,3.3,1.4s1.1,2.4,1.1,4.4v1.4h-7.1v0.3c0,1.4,0.3,2.3,0.8,3s1.2,0.9,2.2,0.9c0.6,0,1.1-0.1,1.6-0.3s0.9-0.6,1.3-1.1
			l1.1,1.3C426,395.6,424.6,396.2,422.8,396.2z M422.5,384.9c-0.9,0-1.5,0.3-1.9,0.9s-0.6,1.5-0.7,2.7h5v-0.3
			c-0.1-1.2-0.3-2.1-0.7-2.6S423.3,384.9,422.5,384.9z"/>
		<path class="st2" d="M437.2,396h-2.1v-18h2.1V396z"/>
		<path class="st2" d="M447,396c-0.1-0.3-0.2-0.7-0.3-1.4c-0.7,1.1-1.7,1.6-2.8,1.6c-1.1,0-2-0.3-2.7-1s-1-1.6-1-2.7
			c0-1.3,0.4-2.3,1.3-3.1s2.1-1.1,3.6-1.2h1.5V387c0-0.8-0.2-1.3-0.5-1.6s-0.8-0.5-1.5-0.5c-0.6,0-1.1,0.2-1.5,0.6s-0.6,0.8-0.6,1.4
			h-2.1c0-0.6,0.2-1.3,0.6-1.9s0.9-1.1,1.5-1.4s1.4-0.5,2.2-0.5c1.3,0,2.3,0.3,3,1s1,1.6,1,2.8v6.4c0,1,0.1,1.8,0.4,2.5v0.2H447z
			 M444.2,394.3c0.5,0,1-0.1,1.5-0.4s0.8-0.6,1-1.1v-3h-1.2c-1,0-1.8,0.2-2.3,0.7s-0.9,1-0.9,1.8c0,0.7,0.1,1.2,0.4,1.6
			S443.5,394.3,444.2,394.3z"/>
		<path class="st2" d="M459.7,396h-2.1v-18h2.1V396z"/>
		<path class="st2" d="M465.3,380c0,0.4-0.1,0.6-0.3,0.9s-0.5,0.4-0.9,0.4c-0.4,0-0.7-0.1-0.9-0.4s-0.3-0.5-0.3-0.9s0.1-0.6,0.3-0.9
			s0.5-0.4,0.9-0.4s0.7,0.1,0.9,0.4S465.3,379.6,465.3,380z M465.2,396h-2.1v-12.7h2.1V396z"/>
		<path class="st2" d="M474.6,392.8c0-0.4-0.2-0.8-0.5-1.1s-1-0.7-1.9-1.1c-1.1-0.5-1.9-0.9-2.4-1.2s-0.8-0.7-1-1.1
			s-0.3-0.9-0.3-1.5c0-1,0.4-1.9,1.1-2.6s1.7-1,2.9-1c1.2,0,2.2,0.4,3,1.1s1.1,1.6,1.1,2.8h-2.1c0-0.6-0.2-1.1-0.6-1.5
			s-0.9-0.6-1.5-0.6c-0.6,0-1.1,0.2-1.4,0.5c-0.3,0.3-0.5,0.7-0.5,1.3c0,0.4,0.1,0.8,0.4,1c0.3,0.3,0.9,0.6,1.8,1
			c1.5,0.6,2.6,1.2,3.1,1.8s0.8,1.3,0.8,2.2c0,1.1-0.4,2-1.1,2.6c-0.8,0.7-1.8,1-3,1c-1.3,0-2.4-0.4-3.2-1.1s-1.2-1.7-1.2-2.9h2.1
			c0,0.7,0.2,1.3,0.6,1.7s1,0.6,1.7,0.6c0.7,0,1.2-0.2,1.6-0.5S474.6,393.3,474.6,392.8z"/>
		<path class="st2" d="M482.1,380.2v3.1h1.9v1.7h-1.9v7.9c0,0.5,0.1,0.9,0.2,1.1c0.2,0.3,0.4,0.4,0.8,0.4c0.3,0,0.6,0,0.8-0.1l0,1.7
			c-0.5,0.2-0.9,0.2-1.4,0.2c-0.8,0-1.4-0.3-1.9-0.9s-0.6-1.4-0.6-2.5V385h-1.9v-1.7h1.9v-3.1H482.1z"/>
		<path class="st2" d="M493,396c-0.1-0.3-0.2-0.7-0.3-1.4c-0.7,1.1-1.7,1.6-2.8,1.6c-1.1,0-2-0.3-2.7-1s-1-1.6-1-2.7
			c0-1.3,0.4-2.3,1.3-3.1s2.1-1.1,3.6-1.2h1.5V387c0-0.8-0.2-1.3-0.5-1.6s-0.8-0.5-1.5-0.5c-0.6,0-1.1,0.2-1.5,0.6s-0.6,0.8-0.6,1.4
			h-2.1c0-0.6,0.2-1.3,0.6-1.9s0.9-1.1,1.5-1.4s1.4-0.5,2.2-0.5c1.3,0,2.3,0.3,3,1s1,1.6,1,2.8v6.4c0,1,0.1,1.8,0.4,2.5v0.2H493z
			 M490.2,394.3c0.5,0,1-0.1,1.5-0.4s0.8-0.6,1-1.1v-3h-1.2c-1,0-1.8,0.2-2.3,0.7s-0.9,1-0.9,1.8c0,0.7,0.1,1.2,0.4,1.6
			S489.5,394.3,490.2,394.3z"/>
		<path class="st2" d="M503,389.1c0-2,0.4-3.4,1.1-4.5s1.8-1.5,3.1-1.5c1.2,0,2.2,0.5,2.8,1.5V378h2.1v18h-1.9l-0.1-1.4
			c-0.7,1.1-1.7,1.6-2.9,1.6c-1.3,0-2.3-0.5-3.1-1.5s-1.1-2.5-1.1-4.3V389.1z M505.1,390.3c0,1.4,0.2,2.5,0.6,3.1
			c0.4,0.7,1.1,1,2.1,1c1,0,1.8-0.5,2.3-1.6v-6.4c-0.5-1-1.3-1.5-2.3-1.5c-1,0-1.6,0.3-2.1,1s-0.6,1.7-0.6,3.1V390.3z"/>
		<path class="st2" d="M519.9,396.2c-1.6,0-2.8-0.5-3.6-1.4s-1.3-2.3-1.3-4.1v-1.5c0-1.9,0.4-3.4,1.2-4.4s2-1.6,3.5-1.6
			c1.5,0,2.6,0.5,3.3,1.4s1.1,2.4,1.1,4.4v1.4H517v0.3c0,1.4,0.3,2.3,0.8,3s1.2,0.9,2.2,0.9c0.6,0,1.1-0.1,1.6-0.3s0.9-0.6,1.3-1.1
			l1.1,1.3C523.1,395.6,521.7,396.2,519.9,396.2z M519.7,384.9c-0.9,0-1.5,0.3-1.9,0.9s-0.6,1.5-0.7,2.7h5v-0.3
			c-0.1-1.2-0.3-2.1-0.7-2.6S520.4,384.9,519.7,384.9z"/>
		<path class="st2" d="M536.5,394.5c0.7,0,1.2-0.2,1.7-0.6s0.6-1,0.7-1.8h2c0,1.2-0.5,2.2-1.3,3s-1.8,1.2-3,1.2
			c-1.6,0-2.8-0.5-3.6-1.5s-1.2-2.5-1.2-4.4v-1.4c0-1.9,0.4-3.4,1.2-4.4s2-1.5,3.6-1.5c1.3,0,2.3,0.4,3.1,1.2s1.2,1.9,1.2,3.4h-2
			c0-0.9-0.3-1.6-0.7-2.1s-1-0.7-1.7-0.7c-0.9,0-1.6,0.3-2.1,0.9s-0.7,1.6-0.7,3v1.6c0,1.5,0.2,2.5,0.7,3.2S535.5,394.5,536.5,394.5
			z"/>
		<path class="st2" d="M549.7,396c-0.1-0.3-0.2-0.7-0.3-1.4c-0.7,1.1-1.7,1.6-2.8,1.6c-1.1,0-2-0.3-2.7-1s-1-1.6-1-2.7
			c0-1.3,0.4-2.3,1.3-3.1s2.1-1.1,3.6-1.2h1.5V387c0-0.8-0.2-1.3-0.5-1.6s-0.8-0.5-1.5-0.5c-0.6,0-1.1,0.2-1.5,0.6s-0.6,0.8-0.6,1.4
			h-2.1c0-0.6,0.2-1.3,0.6-1.9s0.9-1.1,1.5-1.4s1.4-0.5,2.2-0.5c1.3,0,2.3,0.3,3,1s1,1.6,1,2.8v6.4c0,1,0.1,1.8,0.4,2.5v0.2H549.7z
			 M546.9,394.3c0.5,0,1-0.1,1.5-0.4s0.8-0.6,1-1.1v-3h-1.2c-1,0-1.8,0.2-2.3,0.7s-0.9,1-0.9,1.8c0,0.7,0.1,1.2,0.4,1.6
			S546.3,394.3,546.9,394.3z"/>
		<path class="st2" d="M556.6,383.3l0.1,1.4c0.8-1.1,1.8-1.6,3.1-1.6c2.2,0,3.4,1.5,3.4,4.5v8.4h-2.1v-8.3c0-1-0.2-1.7-0.5-2.1
			s-0.8-0.6-1.5-0.6c-0.5,0-1,0.2-1.4,0.5s-0.7,0.8-1,1.3v9.2h-2.1v-12.7H556.6z"/>
		<path class="st2" d="M569,380.2v3.1h1.9v1.7H569v7.9c0,0.5,0.1,0.9,0.2,1.1c0.2,0.3,0.4,0.4,0.8,0.4c0.3,0,0.6,0,0.8-0.1l0,1.7
			c-0.5,0.2-0.9,0.2-1.4,0.2c-0.8,0-1.4-0.3-1.9-0.9s-0.6-1.4-0.6-2.5V385H565v-1.7h1.9v-3.1H569z"/>
		<path class="st2" d="M572.7,389.1c0-1.8,0.4-3.3,1.3-4.4s2.1-1.6,3.5-1.6s2.7,0.5,3.5,1.6s1.4,2.5,1.4,4.3v1.3
			c0,1.8-0.4,3.3-1.3,4.4s-2.1,1.6-3.6,1.6c-1.5,0-2.6-0.5-3.5-1.6s-1.3-2.4-1.4-4.2V389.1z M574.8,390.3c0,1.3,0.3,2.3,0.8,3.1
			s1.2,1.1,2.1,1.1c1.8,0,2.8-1.3,2.8-4v-1.4c0-1.3-0.3-2.3-0.8-3.1s-1.2-1.1-2.1-1.1c-0.9,0-1.5,0.4-2,1.1s-0.8,1.8-0.8,3.1V390.3z
			"/>
		<path class="st2" d="M591.4,392.8c0-0.4-0.2-0.8-0.5-1.1s-1-0.7-1.9-1.1c-1.1-0.5-1.9-0.9-2.4-1.2s-0.8-0.7-1-1.1
			s-0.3-0.9-0.3-1.5c0-1,0.4-1.9,1.1-2.6s1.7-1,2.9-1c1.2,0,2.2,0.4,3,1.1s1.1,1.6,1.1,2.8h-2.1c0-0.6-0.2-1.1-0.6-1.5
			s-0.9-0.6-1.5-0.6c-0.6,0-1.1,0.2-1.4,0.5c-0.3,0.3-0.5,0.7-0.5,1.3c0,0.4,0.1,0.8,0.4,1c0.3,0.3,0.9,0.6,1.8,1
			c1.5,0.6,2.6,1.2,3.1,1.8s0.8,1.3,0.8,2.2c0,1.1-0.4,2-1.1,2.6c-0.8,0.7-1.8,1-3,1c-1.3,0-2.4-0.4-3.2-1.1s-1.2-1.7-1.2-2.9h2.1
			c0,0.7,0.2,1.3,0.6,1.7s1,0.6,1.7,0.6c0.7,0,1.2-0.2,1.6-0.5S591.4,393.3,591.4,392.8z"/>
		<path class="st2" d="M601.2,389.1c0-2,0.4-3.4,1.1-4.5s1.8-1.5,3.1-1.5c1.2,0,2.2,0.5,2.8,1.5V378h2.1v18h-1.9l-0.1-1.4
			c-0.7,1.1-1.7,1.6-2.9,1.6c-1.3,0-2.3-0.5-3.1-1.5s-1.1-2.5-1.1-4.3V389.1z M603.3,390.3c0,1.4,0.2,2.5,0.6,3.1
			c0.4,0.7,1.1,1,2.1,1c1,0,1.8-0.5,2.3-1.6v-6.4c-0.5-1-1.3-1.5-2.3-1.5c-1,0-1.6,0.3-2.1,1s-0.6,1.7-0.6,3.1V390.3z"/>
		<path class="st2" d="M615.9,380c0,0.4-0.1,0.6-0.3,0.9s-0.5,0.4-0.9,0.4c-0.4,0-0.7-0.1-0.9-0.4s-0.3-0.5-0.3-0.9s0.1-0.6,0.3-0.9
			s0.5-0.4,0.9-0.4s0.7,0.1,0.9,0.4S615.9,379.6,615.9,380z M615.8,396h-2.1v-12.7h2.1V396z"/>
		<path class="st2" d="M625.2,392.8c0-0.4-0.2-0.8-0.5-1.1s-1-0.7-1.9-1.1c-1.1-0.5-1.9-0.9-2.4-1.2s-0.8-0.7-1-1.1
			s-0.3-0.9-0.3-1.5c0-1,0.4-1.9,1.1-2.6s1.7-1,2.9-1c1.2,0,2.2,0.4,3,1.1s1.1,1.6,1.1,2.8h-2.1c0-0.6-0.2-1.1-0.6-1.5
			s-0.9-0.6-1.5-0.6c-0.6,0-1.1,0.2-1.4,0.5c-0.3,0.3-0.5,0.7-0.5,1.3c0,0.4,0.1,0.8,0.4,1c0.3,0.3,0.9,0.6,1.8,1
			c1.5,0.6,2.6,1.2,3.1,1.8s0.8,1.3,0.8,2.2c0,1.1-0.4,2-1.1,2.6c-0.8,0.7-1.8,1-3,1c-1.3,0-2.4-0.4-3.2-1.1s-1.2-1.7-1.2-2.9h2.1
			c0,0.7,0.2,1.3,0.6,1.7s1,0.6,1.7,0.6c0.7,0,1.2-0.2,1.6-0.5S625.2,393.3,625.2,392.8z"/>
		<path class="st2" d="M639.1,390.3c0,2-0.4,3.5-1.1,4.5s-1.7,1.5-3.1,1.5c-1.3,0-2.3-0.5-2.9-1.4v6.1H630v-17.6h1.9l0.1,1.4
			c0.7-1.1,1.7-1.6,3-1.6c1.4,0,2.4,0.5,3.1,1.5s1,2.4,1.1,4.3V390.3z M637.1,389.1c0-1.4-0.2-2.5-0.7-3.1s-1.1-1-2.1-1
			c-1,0-1.7,0.5-2.3,1.5v6.6c0.5,1,1.3,1.5,2.3,1.5c0.9,0,1.6-0.3,2.1-1s0.7-1.7,0.7-3.1V389.1z"/>
		<path class="st2" d="M641.4,389.1c0-1.8,0.4-3.3,1.3-4.4s2.1-1.6,3.5-1.6s2.7,0.5,3.5,1.6s1.4,2.5,1.4,4.3v1.3
			c0,1.8-0.4,3.3-1.3,4.4s-2.1,1.6-3.6,1.6c-1.5,0-2.6-0.5-3.5-1.6s-1.3-2.4-1.4-4.2V389.1z M643.4,390.3c0,1.3,0.3,2.3,0.8,3.1
			s1.2,1.1,2.1,1.1c1.8,0,2.8-1.3,2.8-4v-1.4c0-1.3-0.3-2.3-0.8-3.1s-1.2-1.1-2.1-1.1c-0.9,0-1.5,0.4-2,1.1s-0.8,1.8-0.8,3.1V390.3z
			"/>
		<path class="st2" d="M655.8,383.3l0.1,1.4c0.8-1.1,1.8-1.6,3.1-1.6c2.2,0,3.4,1.5,3.4,4.5v8.4h-2.1v-8.3c0-1-0.2-1.7-0.5-2.1
			s-0.8-0.6-1.5-0.6c-0.5,0-1,0.2-1.4,0.5s-0.7,0.8-1,1.3v9.2h-2.1v-12.7H655.8z"/>
		<path class="st2" d="M667.9,380c0,0.4-0.1,0.6-0.3,0.9s-0.5,0.4-0.9,0.4c-0.4,0-0.7-0.1-0.9-0.4s-0.3-0.5-0.3-0.9s0.1-0.6,0.3-0.9
			s0.5-0.4,0.9-0.4s0.7,0.1,0.9,0.4S667.9,379.6,667.9,380z M667.7,396h-2.1v-12.7h2.1V396z"/>
		<path class="st2" d="M680.1,390.3c0,2-0.4,3.5-1.1,4.5s-1.7,1.5-3.1,1.5c-1.3,0-2.4-0.6-3-1.7l-0.1,1.5H671v-18h2.1v6.7
			c0.7-1.1,1.7-1.6,2.9-1.6c1.4,0,2.4,0.5,3.1,1.5s1,2.5,1.1,4.5V390.3z M678.1,389.1c0-1.5-0.2-2.6-0.6-3.2s-1.1-1-2-1
			c-1.1,0-1.9,0.6-2.4,1.7v6c0.5,1.1,1.3,1.7,2.4,1.7c0.9,0,1.6-0.3,2-1c0.4-0.7,0.6-1.7,0.6-3.1V389.1z"/>
		<path class="st2" d="M685,396h-2.1v-18h2.1V396z"/>
		<path class="st2" d="M692.8,396.2c-1.6,0-2.8-0.5-3.6-1.4s-1.3-2.3-1.3-4.1v-1.5c0-1.9,0.4-3.4,1.2-4.4s2-1.6,3.5-1.6
			c1.5,0,2.6,0.5,3.3,1.4s1.1,2.4,1.1,4.4v1.4H690v0.3c0,1.4,0.3,2.3,0.8,3s1.2,0.9,2.2,0.9c0.6,0,1.1-0.1,1.6-0.3s0.9-0.6,1.3-1.1
			l1.1,1.3C696,395.6,694.7,396.2,692.8,396.2z M692.6,384.9c-0.9,0-1.5,0.3-1.9,0.9s-0.6,1.5-0.7,2.7h5v-0.3
			c-0.1-1.2-0.3-2.1-0.7-2.6S693.4,384.9,692.6,384.9z"/>
		<path class="st2" d="M705.7,392.8c0-0.4-0.2-0.8-0.5-1.1s-1-0.7-1.9-1.1c-1.1-0.5-1.9-0.9-2.4-1.2s-0.8-0.7-1-1.1
			s-0.3-0.9-0.3-1.5c0-1,0.4-1.9,1.1-2.6s1.7-1,2.9-1c1.2,0,2.2,0.4,3,1.1s1.1,1.6,1.1,2.8h-2.1c0-0.6-0.2-1.1-0.6-1.5
			s-0.9-0.6-1.5-0.6c-0.6,0-1.1,0.2-1.4,0.5c-0.3,0.3-0.5,0.7-0.5,1.3c0,0.4,0.1,0.8,0.4,1c0.3,0.3,0.9,0.6,1.8,1
			c1.5,0.6,2.6,1.2,3.1,1.8s0.8,1.3,0.8,2.2c0,1.1-0.4,2-1.1,2.6c-0.8,0.7-1.8,1-3,1c-1.3,0-2.4-0.4-3.2-1.1s-1.2-1.7-1.2-2.9h2.1
			c0,0.7,0.2,1.3,0.6,1.7s1,0.6,1.7,0.6c0.7,0,1.2-0.2,1.6-0.5S705.7,393.3,705.7,392.8z"/>
		<path class="st2" d="M725.1,390.3c0,2-0.4,3.5-1.1,4.5s-1.7,1.5-3.1,1.5c-1.3,0-2.3-0.5-2.9-1.4v6.1H716v-17.6h1.9l0.1,1.4
			c0.7-1.1,1.7-1.6,3-1.6c1.4,0,2.4,0.5,3.1,1.5s1,2.4,1.1,4.3V390.3z M723.1,389.1c0-1.4-0.2-2.5-0.7-3.1s-1.1-1-2.1-1
			c-1,0-1.7,0.5-2.3,1.5v6.6c0.5,1,1.3,1.5,2.3,1.5c0.9,0,1.6-0.3,2.1-1s0.7-1.7,0.7-3.1V389.1z"/>
		<path class="st2" d="M734.3,396c-0.1-0.3-0.2-0.7-0.3-1.4c-0.7,1.1-1.7,1.6-2.8,1.6c-1.1,0-2-0.3-2.7-1s-1-1.6-1-2.7
			c0-1.3,0.4-2.3,1.3-3.1s2.1-1.1,3.6-1.2h1.5V387c0-0.8-0.2-1.3-0.5-1.6s-0.8-0.5-1.5-0.5c-0.6,0-1.1,0.2-1.5,0.6s-0.6,0.8-0.6,1.4
			h-2.1c0-0.6,0.2-1.3,0.6-1.9s0.9-1.1,1.5-1.4s1.4-0.5,2.2-0.5c1.3,0,2.3,0.3,3,1s1,1.6,1,2.8v6.4c0,1,0.1,1.8,0.4,2.5v0.2H734.3z
			 M731.5,394.3c0.5,0,1-0.1,1.5-0.4s0.8-0.6,1-1.1v-3h-1.2c-1,0-1.8,0.2-2.3,0.7s-0.9,1-0.9,1.8c0,0.7,0.1,1.2,0.4,1.6
			S730.9,394.3,731.5,394.3z"/>
		<path class="st2" d="M744.5,385.3c-0.3-0.1-0.6-0.1-0.9-0.1c-1.1,0-1.8,0.6-2.2,1.7v9.1h-2.1v-12.7h2l0,1.3c0.6-1,1.3-1.5,2.4-1.5
			c0.3,0,0.6,0.1,0.8,0.2L744.5,385.3z"/>
		<path class="st2" d="M752.6,396c-0.1-0.3-0.2-0.7-0.3-1.4c-0.7,1.1-1.7,1.6-2.8,1.6c-1.1,0-2-0.3-2.7-1s-1-1.6-1-2.7
			c0-1.3,0.4-2.3,1.3-3.1s2.1-1.1,3.6-1.2h1.5V387c0-0.8-0.2-1.3-0.5-1.6s-0.8-0.5-1.5-0.5c-0.6,0-1.1,0.2-1.5,0.6s-0.6,0.8-0.6,1.4
			h-2.1c0-0.6,0.2-1.3,0.6-1.9s0.9-1.1,1.5-1.4s1.4-0.5,2.2-0.5c1.3,0,2.3,0.3,3,1s1,1.6,1,2.8v6.4c0,1,0.1,1.8,0.4,2.5v0.2H752.6z
			 M749.9,394.3c0.5,0,1-0.1,1.5-0.4s0.8-0.6,1-1.1v-3h-1.2c-1,0-1.8,0.2-2.3,0.7s-0.9,1-0.9,1.8c0,0.7,0.1,1.2,0.4,1.6
			S749.2,394.3,749.9,394.3z"/>
		<path class="st2" d="M769.3,392.8c0-0.4-0.2-0.8-0.5-1.1s-1-0.7-1.9-1.1c-1.1-0.5-1.9-0.9-2.4-1.2s-0.8-0.7-1-1.1
			s-0.3-0.9-0.3-1.5c0-1,0.4-1.9,1.1-2.6s1.7-1,2.9-1c1.2,0,2.2,0.4,3,1.1s1.1,1.6,1.1,2.8h-2.1c0-0.6-0.2-1.1-0.6-1.5
			s-0.9-0.6-1.5-0.6c-0.6,0-1.1,0.2-1.4,0.5c-0.3,0.3-0.5,0.7-0.5,1.3c0,0.4,0.1,0.8,0.4,1c0.3,0.3,0.9,0.6,1.8,1
			c1.5,0.6,2.6,1.2,3.1,1.8s0.8,1.3,0.8,2.2c0,1.1-0.4,2-1.1,2.6c-0.8,0.7-1.8,1-3,1c-1.3,0-2.4-0.4-3.2-1.1s-1.2-1.7-1.2-2.9h2.1
			c0,0.7,0.2,1.3,0.6,1.7s1,0.6,1.7,0.6c0.7,0,1.2-0.2,1.6-0.5S769.3,393.3,769.3,392.8z"/>
		<path class="st2" d="M778.6,396.2c-1.6,0-2.8-0.5-3.6-1.4s-1.3-2.3-1.3-4.1v-1.5c0-1.9,0.4-3.4,1.2-4.4s2-1.6,3.5-1.6
			c1.5,0,2.6,0.5,3.3,1.4s1.1,2.4,1.1,4.4v1.4h-7.1v0.3c0,1.4,0.3,2.3,0.8,3s1.2,0.9,2.2,0.9c0.6,0,1.1-0.1,1.6-0.3s0.9-0.6,1.3-1.1
			l1.1,1.3C781.8,395.6,780.4,396.2,778.6,396.2z M778.3,384.9c-0.9,0-1.5,0.3-1.9,0.9s-0.6,1.5-0.7,2.7h5v-0.3
			c-0.1-1.2-0.3-2.1-0.7-2.6S779.1,384.9,778.3,384.9z"/>
		<path class="st2" d="M790.5,385.3c-0.3-0.1-0.6-0.1-0.9-0.1c-1.1,0-1.8,0.6-2.2,1.7v9.1h-2.1v-12.7h2l0,1.3c0.6-1,1.3-1.5,2.4-1.5
			c0.3,0,0.6,0.1,0.8,0.2L790.5,385.3z"/>
		<path class="st2" d="M804.6,396c-0.1-0.3-0.2-0.7-0.3-1.4c-0.7,1.1-1.7,1.6-2.8,1.6c-1.1,0-2-0.3-2.7-1s-1-1.6-1-2.7
			c0-1.3,0.4-2.3,1.3-3.1s2.1-1.1,3.6-1.2h1.5V387c0-0.8-0.2-1.3-0.5-1.6s-0.8-0.5-1.5-0.5c-0.6,0-1.1,0.2-1.5,0.6s-0.6,0.8-0.6,1.4
			h-2.1c0-0.6,0.2-1.3,0.6-1.9s0.9-1.1,1.5-1.4s1.4-0.5,2.2-0.5c1.3,0,2.3,0.3,3,1s1,1.6,1,2.8v6.4c0,1,0.1,1.8,0.4,2.5v0.2H804.6z
			 M801.8,394.3c0.5,0,1-0.1,1.5-0.4s0.8-0.6,1-1.1v-3h-1.2c-1,0-1.8,0.2-2.3,0.7s-0.9,1-0.9,1.8c0,0.7,0.1,1.2,0.4,1.6
			S801.1,394.3,801.8,394.3z"/>
		<path class="st2" d="M809.2,389.1c0-2,0.4-3.5,1.1-4.5s1.8-1.5,3.2-1.5c1.3,0,2.3,0.6,2.9,1.7l0.1-1.4h1.9v12.8
			c0,1.6-0.4,2.8-1.2,3.6s-1.9,1.3-3.4,1.3c-0.6,0-1.3-0.2-2.1-0.5s-1.4-0.7-1.8-1.1l0.8-1.4c0.9,0.8,1.8,1.3,2.8,1.3
			c1.7,0,2.6-0.9,2.7-2.8v-1.7c-0.7,1-1.6,1.5-2.9,1.5c-1.3,0-2.3-0.5-3.1-1.5s-1.1-2.4-1.1-4.3V389.1z M811.2,390.3
			c0,1.4,0.2,2.5,0.6,3.1c0.4,0.7,1.1,1,2.1,1c1,0,1.8-0.5,2.3-1.6v-6.3c-0.5-1-1.3-1.6-2.3-1.6c-1,0-1.6,0.3-2.1,1
			s-0.6,1.7-0.6,3.1V390.3z"/>
		<path class="st2" d="M826.6,385.3c-0.3-0.1-0.6-0.1-0.9-0.1c-1.1,0-1.8,0.6-2.2,1.7v9.1h-2.1v-12.7h2l0,1.3c0.6-1,1.3-1.5,2.4-1.5
			c0.3,0,0.6,0.1,0.8,0.2L826.6,385.3z"/>
		<path class="st2" d="M833,396.2c-1.6,0-2.8-0.5-3.6-1.4s-1.3-2.3-1.3-4.1v-1.5c0-1.9,0.4-3.4,1.2-4.4s2-1.6,3.5-1.6
			c1.5,0,2.6,0.5,3.3,1.4s1.1,2.4,1.1,4.4v1.4h-7.1v0.3c0,1.4,0.3,2.3,0.8,3s1.2,0.9,2.2,0.9c0.6,0,1.1-0.1,1.6-0.3s0.9-0.6,1.3-1.1
			l1.1,1.3C836.2,395.6,834.9,396.2,833,396.2z M832.8,384.9c-0.9,0-1.5,0.3-1.9,0.9s-0.6,1.5-0.7,2.7h5v-0.3
			c-0.1-1.2-0.3-2.1-0.7-2.6S833.5,384.9,832.8,384.9z"/>
		<path class="st2" d="M839.3,389.1c0-2,0.4-3.5,1.1-4.5s1.8-1.5,3.2-1.5c1.3,0,2.3,0.6,2.9,1.7l0.1-1.4h1.9v12.8
			c0,1.6-0.4,2.8-1.2,3.6s-1.9,1.3-3.4,1.3c-0.6,0-1.3-0.2-2.1-0.5s-1.4-0.7-1.8-1.1l0.8-1.4c0.9,0.8,1.8,1.3,2.8,1.3
			c1.7,0,2.6-0.9,2.7-2.8v-1.7c-0.7,1-1.6,1.5-2.9,1.5c-1.3,0-2.3-0.5-3.1-1.5s-1.1-2.4-1.1-4.3V389.1z M841.4,390.3
			c0,1.4,0.2,2.5,0.6,3.1c0.4,0.7,1.1,1,2.1,1c1,0,1.8-0.5,2.3-1.6v-6.3c-0.5-1-1.3-1.6-2.3-1.6c-1,0-1.6,0.3-2.1,1
			s-0.6,1.7-0.6,3.1V390.3z"/>
		<path class="st2" d="M858.1,396c-0.1-0.3-0.2-0.7-0.3-1.4c-0.7,1.1-1.7,1.6-2.8,1.6c-1.1,0-2-0.3-2.7-1s-1-1.6-1-2.7
			c0-1.3,0.4-2.3,1.3-3.1s2.1-1.1,3.6-1.2h1.5V387c0-0.8-0.2-1.3-0.5-1.6s-0.8-0.5-1.5-0.5c-0.6,0-1.1,0.2-1.5,0.6s-0.6,0.8-0.6,1.4
			h-2.1c0-0.6,0.2-1.3,0.6-1.9s0.9-1.1,1.5-1.4s1.4-0.5,2.2-0.5c1.3,0,2.3,0.3,3,1s1,1.6,1,2.8v6.4c0,1,0.1,1.8,0.4,2.5v0.2H858.1z
			 M855.3,394.3c0.5,0,1-0.1,1.5-0.4s0.8-0.6,1-1.1v-3h-1.2c-1,0-1.8,0.2-2.3,0.7s-0.9,1-0.9,1.8c0,0.7,0.1,1.2,0.4,1.6
			S854.6,394.3,855.3,394.3z"/>
		<path class="st2" d="M862.6,389.1c0-2,0.4-3.4,1.1-4.5s1.8-1.5,3.1-1.5c1.2,0,2.2,0.5,2.8,1.5V378h2.1v18h-1.9l-0.1-1.4
			c-0.7,1.1-1.7,1.6-2.9,1.6c-1.3,0-2.3-0.5-3.1-1.5s-1.1-2.5-1.1-4.3V389.1z M864.7,390.3c0,1.4,0.2,2.5,0.6,3.1
			c0.4,0.7,1.1,1,2.1,1c1,0,1.8-0.5,2.3-1.6v-6.4c-0.5-1-1.3-1.5-2.3-1.5c-1,0-1.6,0.3-2.1,1s-0.6,1.7-0.6,3.1V390.3z"/>
		<path class="st2" d="M874.5,389.1c0-1.8,0.4-3.3,1.3-4.4s2.1-1.6,3.5-1.6s2.7,0.5,3.5,1.6s1.4,2.5,1.4,4.3v1.3
			c0,1.8-0.4,3.3-1.3,4.4s-2.1,1.6-3.6,1.6c-1.5,0-2.6-0.5-3.5-1.6s-1.3-2.4-1.4-4.2V389.1z M876.6,390.3c0,1.3,0.3,2.3,0.8,3.1
			s1.2,1.1,2.1,1.1c1.8,0,2.8-1.3,2.8-4v-1.4c0-1.3-0.3-2.3-0.8-3.1s-1.2-1.1-2.1-1.1c-0.9,0-1.5,0.4-2,1.1s-0.8,1.8-0.8,3.1V390.3z
			"/>
		<path class="st2" d="M893.1,392.8c0-0.4-0.2-0.8-0.5-1.1s-1-0.7-1.9-1.1c-1.1-0.5-1.9-0.9-2.4-1.2s-0.8-0.7-1-1.1
			s-0.3-0.9-0.3-1.5c0-1,0.4-1.9,1.1-2.6s1.7-1,2.9-1c1.2,0,2.2,0.4,3,1.1s1.1,1.6,1.1,2.8H893c0-0.6-0.2-1.1-0.6-1.5
			s-0.9-0.6-1.5-0.6c-0.6,0-1.1,0.2-1.4,0.5c-0.3,0.3-0.5,0.7-0.5,1.3c0,0.4,0.1,0.8,0.4,1c0.3,0.3,0.9,0.6,1.8,1
			c1.5,0.6,2.6,1.2,3.1,1.8s0.8,1.3,0.8,2.2c0,1.1-0.4,2-1.1,2.6c-0.8,0.7-1.8,1-3,1c-1.3,0-2.4-0.4-3.2-1.1s-1.2-1.7-1.2-2.9h2.1
			c0,0.7,0.2,1.3,0.6,1.7s1,0.6,1.7,0.6c0.7,0,1.2-0.2,1.6-0.5S893.1,393.3,893.1,392.8z"/>
		<path class="st2" d="M909.9,396c-0.1-0.3-0.2-0.7-0.3-1.4c-0.7,1.1-1.7,1.6-2.8,1.6c-1.1,0-2-0.3-2.7-1s-1-1.6-1-2.7
			c0-1.3,0.4-2.3,1.3-3.1s2.1-1.1,3.6-1.2h1.5V387c0-0.8-0.2-1.3-0.5-1.6s-0.8-0.5-1.5-0.5c-0.6,0-1.1,0.2-1.5,0.6s-0.6,0.8-0.6,1.4
			h-2.1c0-0.6,0.2-1.3,0.6-1.9s0.9-1.1,1.5-1.4s1.4-0.5,2.2-0.5c1.3,0,2.3,0.3,3,1s1,1.6,1,2.8v6.4c0,1,0.1,1.8,0.4,2.5v0.2H909.9z
			 M907.2,394.3c0.5,0,1-0.1,1.5-0.4s0.8-0.6,1-1.1v-3h-1.2c-1,0-1.8,0.2-2.3,0.7s-0.9,1-0.9,1.8c0,0.7,0.1,1.2,0.4,1.6
			S906.5,394.3,907.2,394.3z"/>
		<path class="st2" d="M922.6,396h-2.1v-18h2.1V396z"/>
		<path class="st2" d="M932.4,396c-0.1-0.3-0.2-0.7-0.3-1.4c-0.7,1.1-1.7,1.6-2.8,1.6c-1.1,0-2-0.3-2.7-1s-1-1.6-1-2.7
			c0-1.3,0.4-2.3,1.3-3.1s2.1-1.1,3.6-1.2h1.5V387c0-0.8-0.2-1.3-0.5-1.6s-0.8-0.5-1.5-0.5c-0.6,0-1.1,0.2-1.5,0.6s-0.6,0.8-0.6,1.4
			h-2.1c0-0.6,0.2-1.3,0.6-1.9s0.9-1.1,1.5-1.4s1.4-0.5,2.2-0.5c1.3,0,2.3,0.3,3,1s1,1.6,1,2.8v6.4c0,1,0.1,1.8,0.4,2.5v0.2H932.4z
			 M929.7,394.3c0.5,0,1-0.1,1.5-0.4s0.8-0.6,1-1.1v-3H931c-1,0-1.8,0.2-2.3,0.7s-0.9,1-0.9,1.8c0,0.7,0.1,1.2,0.4,1.6
			S929,394.3,929.7,394.3z"/>
	</g>
	<g class="st0">
		<path class="st2" d="M259.5,411.3l0.1,1.4c0.8-1.1,1.8-1.6,3.1-1.6c2.2,0,3.4,1.5,3.4,4.5v8.4H264v-8.3c0-1-0.2-1.7-0.5-2.1
			s-0.8-0.6-1.5-0.6c-0.5,0-1,0.2-1.4,0.5s-0.7,0.8-1,1.3v9.2h-2.1v-12.7H259.5z"/>
		<path class="st2" d="M275.6,422.9c-0.7,0.9-1.7,1.3-3,1.3c-1.1,0-2-0.4-2.6-1.2s-0.9-1.9-0.9-3.5v-8.3h2.1v8.1c0,2,0.6,3,1.8,3
			c1.3,0,2.1-0.6,2.6-1.7v-9.4h2.1V424h-2L275.6,422.9z"/>
		<path class="st2" d="M285.3,424.2c-1.6,0-2.8-0.5-3.6-1.4s-1.3-2.3-1.3-4.1v-1.5c0-1.9,0.4-3.4,1.2-4.4s2-1.6,3.5-1.6
			c1.5,0,2.6,0.5,3.3,1.4s1.1,2.4,1.1,4.4v1.4h-7.1v0.3c0,1.4,0.3,2.3,0.8,3s1.2,0.9,2.2,0.9c0.6,0,1.1-0.1,1.6-0.3s0.9-0.6,1.3-1.1
			l1.1,1.3C288.5,423.6,287.1,424.2,285.3,424.2z M285.1,412.9c-0.9,0-1.5,0.3-1.9,0.9s-0.6,1.5-0.7,2.7h5v-0.3
			c-0.1-1.2-0.3-2.1-0.7-2.6S285.8,412.9,285.1,412.9z"/>
		<path class="st2" d="M295.4,420.8l2.4-9.5h2.1l-3.8,12.7h-1.5l-3.8-12.7h2.1L295.4,420.8z"/>
		<path class="st2" d="M308.5,424c-0.1-0.3-0.2-0.7-0.3-1.4c-0.7,1.1-1.7,1.6-2.8,1.6c-1.1,0-2-0.3-2.7-1s-1-1.6-1-2.7
			c0-1.3,0.4-2.3,1.3-3.1s2.1-1.1,3.6-1.2h1.5V415c0-0.8-0.2-1.3-0.5-1.6s-0.8-0.5-1.5-0.5c-0.6,0-1.1,0.2-1.5,0.6s-0.6,0.8-0.6,1.4
			h-2.1c0-0.6,0.2-1.3,0.6-1.9s0.9-1.1,1.5-1.4s1.4-0.5,2.2-0.5c1.3,0,2.3,0.3,3,1s1,1.6,1,2.8v6.4c0,1,0.1,1.8,0.4,2.5v0.2H308.5z
			 M305.7,422.3c0.5,0,1-0.1,1.5-0.4s0.8-0.6,1-1.1v-3H307c-1,0-1.8,0.2-2.3,0.7s-0.9,1-0.9,1.8c0,0.7,0.1,1.2,0.4,1.6
			S305,422.3,305.7,422.3z"/>
		<path class="st2" d="M328.1,418.3c0,2-0.4,3.5-1.1,4.5s-1.7,1.5-3.1,1.5c-1.3,0-2.3-0.5-2.9-1.4v6.1h-2.1v-17.6h1.9l0.1,1.4
			c0.7-1.1,1.7-1.6,3-1.6c1.4,0,2.4,0.5,3.1,1.5s1,2.4,1.1,4.3V418.3z M326,417.1c0-1.4-0.2-2.5-0.7-3.1s-1.1-1-2.1-1
			c-1,0-1.7,0.5-2.3,1.5v6.6c0.5,1,1.3,1.5,2.3,1.5c0.9,0,1.6-0.3,2.1-1s0.7-1.7,0.7-3.1V417.1z"/>
		<path class="st2" d="M336,413.3c-0.3-0.1-0.6-0.1-0.9-0.1c-1.1,0-1.8,0.6-2.2,1.7v9.1h-2.1v-12.7h2l0,1.3c0.6-1,1.3-1.5,2.4-1.5
			c0.3,0,0.6,0.1,0.8,0.2L336,413.3z"/>
		<path class="st2" d="M342.4,424.2c-1.6,0-2.8-0.5-3.6-1.4s-1.3-2.3-1.3-4.1v-1.5c0-1.9,0.4-3.4,1.2-4.4s2-1.6,3.5-1.6
			c1.5,0,2.6,0.5,3.3,1.4s1.1,2.4,1.1,4.4v1.4h-7.1v0.3c0,1.4,0.3,2.3,0.8,3s1.2,0.9,2.2,0.9c0.6,0,1.1-0.1,1.6-0.3s0.9-0.6,1.3-1.1
			l1.1,1.3C345.6,423.6,344.2,424.2,342.4,424.2z M342.1,412.9c-0.9,0-1.5,0.3-1.9,0.9s-0.6,1.5-0.7,2.7h5v-0.3
			c-0.1-1.2-0.3-2.1-0.7-2.6S342.9,412.9,342.1,412.9z"/>
		<path class="st2" d="M355.2,420.8c0-0.4-0.2-0.8-0.5-1.1s-1-0.7-1.9-1.1c-1.1-0.5-1.9-0.9-2.4-1.2s-0.8-0.7-1-1.1
			s-0.3-0.9-0.3-1.5c0-1,0.4-1.9,1.1-2.6s1.7-1,2.9-1c1.2,0,2.2,0.4,3,1.1s1.1,1.6,1.1,2.8h-2.1c0-0.6-0.2-1.1-0.6-1.5
			s-0.9-0.6-1.5-0.6c-0.6,0-1.1,0.2-1.4,0.5c-0.3,0.3-0.5,0.7-0.5,1.3c0,0.4,0.1,0.8,0.4,1c0.3,0.3,0.9,0.6,1.8,1
			c1.5,0.6,2.6,1.2,3.1,1.8s0.8,1.3,0.8,2.2c0,1.1-0.4,2-1.1,2.6c-0.8,0.7-1.8,1-3,1c-1.3,0-2.4-0.4-3.2-1.1s-1.2-1.7-1.2-2.9h2.1
			c0,0.7,0.2,1.3,0.6,1.7s1,0.6,1.7,0.6c0.7,0,1.2-0.2,1.6-0.5S355.2,421.3,355.2,420.8z"/>
		<path class="st2" d="M364.6,424.2c-1.6,0-2.8-0.5-3.6-1.4s-1.3-2.3-1.3-4.1v-1.5c0-1.9,0.4-3.4,1.2-4.4s2-1.6,3.5-1.6
			c1.5,0,2.6,0.5,3.3,1.4s1.1,2.4,1.1,4.4v1.4h-7.1v0.3c0,1.4,0.3,2.3,0.8,3s1.2,0.9,2.2,0.9c0.6,0,1.1-0.1,1.6-0.3s0.9-0.6,1.3-1.1
			l1.1,1.3C367.8,423.6,366.4,424.2,364.6,424.2z M364.3,412.9c-0.9,0-1.5,0.3-1.9,0.9s-0.6,1.5-0.7,2.7h5v-0.3
			c-0.1-1.2-0.3-2.1-0.7-2.6S365.1,412.9,364.3,412.9z"/>
		<path class="st2" d="M373.2,411.3l0.1,1.4c0.8-1.1,1.8-1.6,3.1-1.6c2.2,0,3.4,1.5,3.4,4.5v8.4h-2.1v-8.3c0-1-0.2-1.7-0.5-2.1
			s-0.8-0.6-1.5-0.6c-0.5,0-1,0.2-1.4,0.5s-0.7,0.8-1,1.3v9.2h-2.1v-12.7H373.2z"/>
		<path class="st2" d="M385.6,408.2v3.1h1.9v1.7h-1.9v7.9c0,0.5,0.1,0.9,0.2,1.1c0.2,0.3,0.4,0.4,0.8,0.4c0.3,0,0.6,0,0.8-0.1l0,1.7
			c-0.5,0.2-0.9,0.2-1.4,0.2c-0.8,0-1.4-0.3-1.9-0.9s-0.6-1.4-0.6-2.5V413h-1.9v-1.7h1.9v-3.1H385.6z"/>
		<path class="st2" d="M396.5,424c-0.1-0.3-0.2-0.7-0.3-1.4c-0.7,1.1-1.7,1.6-2.8,1.6c-1.1,0-2-0.3-2.7-1s-1-1.6-1-2.7
			c0-1.3,0.4-2.3,1.3-3.1s2.1-1.1,3.6-1.2h1.5V415c0-0.8-0.2-1.3-0.5-1.6s-0.8-0.5-1.5-0.5c-0.6,0-1.1,0.2-1.5,0.6s-0.6,0.8-0.6,1.4
			H390c0-0.6,0.2-1.3,0.6-1.9s0.9-1.1,1.5-1.4s1.4-0.5,2.2-0.5c1.3,0,2.3,0.3,3,1s1,1.6,1,2.8v6.4c0,1,0.1,1.8,0.4,2.5v0.2H396.5z
			 M393.7,422.3c0.5,0,1-0.1,1.5-0.4s0.8-0.6,1-1.1v-3H395c-1,0-1.8,0.2-2.3,0.7s-0.9,1-0.9,1.8c0,0.7,0.1,1.2,0.4,1.6
			S393,422.3,393.7,422.3z"/>
		<path class="st2" d="M405.9,422.5c0.7,0,1.2-0.2,1.7-0.6s0.6-1,0.7-1.8h2c0,1.2-0.5,2.2-1.3,3s-1.8,1.2-3,1.2
			c-1.6,0-2.8-0.5-3.6-1.5s-1.2-2.5-1.2-4.4v-1.4c0-1.9,0.4-3.4,1.2-4.4s2-1.5,3.6-1.5c1.3,0,2.3,0.4,3.1,1.2s1.2,1.9,1.2,3.4h-2
			c0-0.9-0.3-1.6-0.7-2.1s-1-0.7-1.7-0.7c-0.9,0-1.6,0.3-2.1,0.9s-0.7,1.6-0.7,3v1.6c0,1.5,0.2,2.5,0.7,3.2S404.9,422.5,405.9,422.5
			z"/>
		<path class="st2" d="M414.9,408c0,0.4-0.1,0.6-0.3,0.9s-0.5,0.4-0.9,0.4c-0.4,0-0.7-0.1-0.9-0.4s-0.3-0.5-0.3-0.9s0.1-0.6,0.3-0.9
			s0.5-0.4,0.9-0.4s0.7,0.1,0.9,0.4S414.9,407.6,414.9,408z M414.8,424h-2.1v-12.7h2.1V424z"/>
		<path class="st2" d="M417.6,417.1c0-1.8,0.4-3.3,1.3-4.4s2.1-1.6,3.5-1.6s2.7,0.5,3.5,1.6s1.4,2.5,1.4,4.3v1.3
			c0,1.8-0.4,3.3-1.3,4.4s-2.1,1.6-3.6,1.6c-1.5,0-2.6-0.5-3.5-1.6s-1.3-2.4-1.4-4.2V417.1z M419.7,418.3c0,1.3,0.3,2.3,0.8,3.1
			s1.2,1.1,2.1,1.1c1.8,0,2.8-1.3,2.8-4v-1.4c0-1.3-0.3-2.3-0.8-3.1s-1.2-1.1-2.1-1.1c-0.9,0-1.5,0.4-2,1.1s-0.8,1.8-0.8,3.1V418.3z
			 M423.5,406h2.6l-3.1,3.4l-1.7,0L423.5,406z"/>
		<path class="st2" d="M432,411.3l0.1,1.4c0.8-1.1,1.8-1.6,3.1-1.6c2.2,0,3.4,1.5,3.4,4.5v8.4h-2.1v-8.3c0-1-0.2-1.7-0.5-2.1
			s-0.8-0.6-1.5-0.6c-0.5,0-1,0.2-1.4,0.5s-0.7,0.8-1,1.3v9.2h-2.1v-12.7H432z"/>
		<path class="st2" d="M441.8,422.9c0-0.4,0.1-0.7,0.3-0.9s0.6-0.4,1-0.4s0.8,0.1,1,0.4s0.3,0.6,0.3,0.9c0,0.4-0.1,0.7-0.3,0.9
			s-0.6,0.4-1,0.4s-0.8-0.1-1-0.4S441.8,423.2,441.8,422.9z"/>
		<path class="st2" d="M456,422.2h6.7v1.8h-8.8v-17.1h2.2V422.2z"/>
		<path class="st2" d="M464.5,417.1c0-1.8,0.4-3.3,1.3-4.4s2.1-1.6,3.5-1.6s2.7,0.5,3.5,1.6s1.4,2.5,1.4,4.3v1.3
			c0,1.8-0.4,3.3-1.3,4.4s-2.1,1.6-3.6,1.6c-1.5,0-2.6-0.5-3.5-1.6s-1.3-2.4-1.4-4.2V417.1z M466.6,418.3c0,1.3,0.3,2.3,0.8,3.1
			s1.2,1.1,2.1,1.1c1.8,0,2.8-1.3,2.8-4v-1.4c0-1.3-0.3-2.3-0.8-3.1s-1.2-1.1-2.1-1.1c-0.9,0-1.5,0.4-2,1.1s-0.8,1.8-0.8,3.1V418.3z
			"/>
		<path class="st2" d="M483.1,420.8c0-0.4-0.2-0.8-0.5-1.1s-1-0.7-1.9-1.1c-1.1-0.5-1.9-0.9-2.4-1.2s-0.8-0.7-1-1.1
			s-0.3-0.9-0.3-1.5c0-1,0.4-1.9,1.1-2.6s1.7-1,2.9-1c1.2,0,2.2,0.4,3,1.1s1.1,1.6,1.1,2.8H483c0-0.6-0.2-1.1-0.6-1.5
			s-0.9-0.6-1.5-0.6c-0.6,0-1.1,0.2-1.4,0.5c-0.3,0.3-0.5,0.7-0.5,1.3c0,0.4,0.1,0.8,0.4,1c0.3,0.3,0.9,0.6,1.8,1
			c1.5,0.6,2.6,1.2,3.1,1.8s0.8,1.3,0.8,2.2c0,1.1-0.4,2-1.1,2.6c-0.8,0.7-1.8,1-3,1c-1.3,0-2.4-0.4-3.2-1.1s-1.2-1.7-1.2-2.9h2.1
			c0,0.7,0.2,1.3,0.6,1.7s1,0.6,1.7,0.6c0.7,0,1.2-0.2,1.6-0.5S483.1,421.3,483.1,420.8z"/>
		<path class="st2" d="M495.5,412.6c0.8-1,1.8-1.5,3-1.5c2.2,0,3.4,1.5,3.4,4.5v8.4h-2.1v-8.3c0-1-0.2-1.7-0.5-2.1s-0.8-0.6-1.5-0.6
			c-0.5,0-1,0.2-1.4,0.5s-0.7,0.8-1,1.3v9.2h-2.1v-18h2.1V412.6z"/>
		<path class="st2" d="M507.4,408c0,0.4-0.1,0.6-0.3,0.9s-0.5,0.4-0.9,0.4c-0.4,0-0.7-0.1-0.9-0.4s-0.3-0.5-0.3-0.9s0.1-0.6,0.3-0.9
			s0.5-0.4,0.9-0.4s0.7,0.1,0.9,0.4S507.4,407.6,507.4,408z M507.2,424h-2.1v-12.7h2.1V424z"/>
		<path class="st2" d="M512.4,411.3l0,1.2c0.8-0.9,1.8-1.4,3.1-1.4c1.4,0,2.4,0.6,3,1.8c0.8-1.2,1.9-1.8,3.3-1.8
			c2.3,0,3.5,1.5,3.6,4.4v8.5h-2.1v-8.3c0-0.9-0.2-1.6-0.5-2.1s-0.9-0.7-1.7-0.7c-0.6,0-1.1,0.2-1.5,0.7s-0.6,1.1-0.7,1.9v8.5h-2.1
			v-8.4c0-1.8-0.7-2.6-2.1-2.6c-1,0-1.8,0.5-2.2,1.6v9.5h-2.1v-12.7H512.4z"/>
		<path class="st2" d="M530.5,411.3l0.1,1.4c0.8-1.1,1.8-1.6,3.1-1.6c2.2,0,3.4,1.5,3.4,4.5v8.4H535v-8.3c0-1-0.2-1.7-0.5-2.1
			s-0.8-0.6-1.5-0.6c-0.5,0-1,0.2-1.4,0.5s-0.7,0.8-1,1.3v9.2h-2.1v-12.7H530.5z"/>
		<path class="st2" d="M539.7,417.1c0-1.8,0.4-3.3,1.3-4.4s2.1-1.6,3.5-1.6s2.7,0.5,3.5,1.6s1.4,2.5,1.4,4.3v1.3
			c0,1.8-0.4,3.3-1.3,4.4s-2.1,1.6-3.6,1.6c-1.5,0-2.6-0.5-3.5-1.6s-1.3-2.4-1.4-4.2V417.1z M541.8,418.3c0,1.3,0.3,2.3,0.8,3.1
			s1.2,1.1,2.1,1.1c1.8,0,2.8-1.3,2.8-4v-1.4c0-1.3-0.3-2.3-0.8-3.1s-1.2-1.1-2.1-1.1c-0.9,0-1.5,0.4-2,1.1s-0.8,1.8-0.8,3.1V418.3z
			"/>
		<path class="st2" d="M558.4,420.8c0-0.4-0.2-0.8-0.5-1.1s-1-0.7-1.9-1.1c-1.1-0.5-1.9-0.9-2.4-1.2s-0.8-0.7-1-1.1
			s-0.3-0.9-0.3-1.5c0-1,0.4-1.9,1.1-2.6s1.7-1,2.9-1c1.2,0,2.2,0.4,3,1.1s1.1,1.6,1.1,2.8h-2.1c0-0.6-0.2-1.1-0.6-1.5
			s-0.9-0.6-1.5-0.6c-0.6,0-1.1,0.2-1.4,0.5c-0.3,0.3-0.5,0.7-0.5,1.3c0,0.4,0.1,0.8,0.4,1c0.3,0.3,0.9,0.6,1.8,1
			c1.5,0.6,2.6,1.2,3.1,1.8s0.8,1.3,0.8,2.2c0,1.1-0.4,2-1.1,2.6c-0.8,0.7-1.8,1-3,1c-1.3,0-2.4-0.4-3.2-1.1s-1.2-1.7-1.2-2.9h2.1
			c0,0.7,0.2,1.3,0.6,1.7s1,0.6,1.7,0.6c0.7,0,1.2-0.2,1.6-0.5S558.4,421.3,558.4,420.8z"/>
		<path class="st2" d="M574.8,420.8c0-0.4-0.2-0.8-0.5-1.1s-1-0.7-1.9-1.1c-1.1-0.5-1.9-0.9-2.4-1.2s-0.8-0.7-1-1.1
			s-0.3-0.9-0.3-1.5c0-1,0.4-1.9,1.1-2.6s1.7-1,2.9-1c1.2,0,2.2,0.4,3,1.1s1.1,1.6,1.1,2.8h-2.1c0-0.6-0.2-1.1-0.6-1.5
			s-0.9-0.6-1.5-0.6c-0.6,0-1.1,0.2-1.4,0.5c-0.3,0.3-0.5,0.7-0.5,1.3c0,0.4,0.1,0.8,0.4,1c0.3,0.3,0.9,0.6,1.8,1
			c1.5,0.6,2.6,1.2,3.1,1.8s0.8,1.3,0.8,2.2c0,1.1-0.4,2-1.1,2.6c-0.8,0.7-1.8,1-3,1c-1.3,0-2.4-0.4-3.2-1.1s-1.2-1.7-1.2-2.9h2.1
			c0,0.7,0.2,1.3,0.6,1.7s1,0.6,1.7,0.6c0.7,0,1.2-0.2,1.6-0.5S574.8,421.3,574.8,420.8z"/>
		<path class="st2" d="M584.1,424.2c-1.6,0-2.8-0.5-3.6-1.4s-1.3-2.3-1.3-4.1v-1.5c0-1.9,0.4-3.4,1.2-4.4s2-1.6,3.5-1.6
			c1.5,0,2.6,0.5,3.3,1.4s1.1,2.4,1.1,4.4v1.4h-7.1v0.3c0,1.4,0.3,2.3,0.8,3s1.2,0.9,2.2,0.9c0.6,0,1.1-0.1,1.6-0.3s0.9-0.6,1.3-1.1
			l1.1,1.3C587.3,423.6,585.9,424.2,584.1,424.2z M583.9,412.9c-0.9,0-1.5,0.3-1.9,0.9s-0.6,1.5-0.7,2.7h5v-0.3
			c-0.1-1.2-0.3-2.1-0.7-2.6S584.6,412.9,583.9,412.9z"/>
		<path class="st2" d="M593,424H591v-18h2.1V424z"/>
		<path class="st2" d="M600.8,424.2c-1.6,0-2.8-0.5-3.6-1.4s-1.3-2.3-1.3-4.1v-1.5c0-1.9,0.4-3.4,1.2-4.4s2-1.6,3.5-1.6
			c1.5,0,2.6,0.5,3.3,1.4s1.1,2.4,1.1,4.4v1.4H598v0.3c0,1.4,0.3,2.3,0.8,3s1.2,0.9,2.2,0.9c0.6,0,1.1-0.1,1.6-0.3s0.9-0.6,1.3-1.1
			l1.1,1.3C604,423.6,602.7,424.2,600.8,424.2z M600.6,412.9c-0.9,0-1.5,0.3-1.9,0.9s-0.6,1.5-0.7,2.7h5v-0.3
			c-0.1-1.2-0.3-2.1-0.7-2.6S601.4,412.9,600.6,412.9z"/>
		<path class="st2" d="M611.9,422.5c0.7,0,1.2-0.2,1.7-0.6s0.6-1,0.7-1.8h2c0,1.2-0.5,2.2-1.3,3s-1.8,1.2-3,1.2
			c-1.6,0-2.8-0.5-3.6-1.5s-1.2-2.5-1.2-4.4v-1.4c0-1.9,0.4-3.4,1.2-4.4s2-1.5,3.6-1.5c1.3,0,2.3,0.4,3.1,1.2s1.2,1.9,1.2,3.4h-2
			c0-0.9-0.3-1.6-0.7-2.1s-1-0.7-1.7-0.7c-0.9,0-1.6,0.3-2.1,0.9s-0.7,1.6-0.7,3v1.6c0,1.5,0.2,2.5,0.7,3.2S611,422.5,611.9,422.5z"
			/>
		<path class="st2" d="M623,422.5c0.7,0,1.2-0.2,1.7-0.6s0.6-1,0.7-1.8h2c0,1.2-0.5,2.2-1.3,3s-1.8,1.2-3,1.2
			c-1.6,0-2.8-0.5-3.6-1.5s-1.2-2.5-1.2-4.4v-1.4c0-1.9,0.4-3.4,1.2-4.4s2-1.5,3.6-1.5c1.3,0,2.3,0.4,3.1,1.2s1.2,1.9,1.2,3.4h-2
			c0-0.9-0.3-1.6-0.7-2.1s-1-0.7-1.7-0.7c-0.9,0-1.6,0.3-2.1,0.9s-0.7,1.6-0.7,3v1.6c0,1.5,0.2,2.5,0.7,3.2S622.1,422.5,623,422.5z"
			/>
		<path class="st2" d="M632.1,408c0,0.4-0.1,0.6-0.3,0.9s-0.5,0.4-0.9,0.4c-0.4,0-0.7-0.1-0.9-0.4s-0.3-0.5-0.3-0.9s0.1-0.6,0.3-0.9
			s0.5-0.4,0.9-0.4s0.7,0.1,0.9,0.4S632.1,407.6,632.1,408z M631.9,424h-2.1v-12.7h2.1V424z"/>
		<path class="st2" d="M634.8,417.1c0-1.8,0.4-3.3,1.3-4.4s2.1-1.6,3.5-1.6s2.7,0.5,3.5,1.6s1.4,2.5,1.4,4.3v1.3
			c0,1.8-0.4,3.3-1.3,4.4s-2.1,1.6-3.6,1.6c-1.5,0-2.6-0.5-3.5-1.6s-1.3-2.4-1.4-4.2V417.1z M636.8,418.3c0,1.3,0.3,2.3,0.8,3.1
			s1.2,1.1,2.1,1.1c1.8,0,2.8-1.3,2.8-4v-1.4c0-1.3-0.3-2.3-0.8-3.1s-1.2-1.1-2.1-1.1c-0.9,0-1.5,0.4-2,1.1s-0.8,1.8-0.8,3.1V418.3z
			"/>
		<path class="st2" d="M649.2,411.3l0.1,1.4c0.8-1.1,1.8-1.6,3.1-1.6c2.2,0,3.4,1.5,3.4,4.5v8.4h-2.1v-8.3c0-1-0.2-1.7-0.5-2.1
			s-0.8-0.6-1.5-0.6c-0.5,0-1,0.2-1.4,0.5s-0.7,0.8-1,1.3v9.2h-2.1v-12.7H649.2z"/>
		<path class="st2" d="M665.4,424c-0.1-0.3-0.2-0.7-0.3-1.4c-0.7,1.1-1.7,1.6-2.8,1.6c-1.1,0-2-0.3-2.7-1s-1-1.6-1-2.7
			c0-1.3,0.4-2.3,1.3-3.1s2.1-1.1,3.6-1.2h1.5V415c0-0.8-0.2-1.3-0.5-1.6s-0.8-0.5-1.5-0.5c-0.6,0-1.1,0.2-1.5,0.6s-0.6,0.8-0.6,1.4
			h-2.1c0-0.6,0.2-1.3,0.6-1.9s0.9-1.1,1.5-1.4s1.4-0.5,2.2-0.5c1.3,0,2.3,0.3,3,1s1,1.6,1,2.8v6.4c0,1,0.1,1.8,0.4,2.5v0.2H665.4z
			 M662.6,422.3c0.5,0,1-0.1,1.5-0.4s0.8-0.6,1-1.1v-3h-1.2c-1,0-1.8,0.2-2.3,0.7s-0.9,1-0.9,1.8c0,0.7,0.1,1.2,0.4,1.6
			S661.9,422.3,662.6,422.3z"/>
		<path class="st2" d="M669.9,417.1c0-2,0.4-3.4,1.1-4.5s1.8-1.5,3.1-1.5c1.2,0,2.2,0.5,2.8,1.5V406h2.1v18h-1.9l-0.1-1.4
			c-0.7,1.1-1.7,1.6-2.9,1.6c-1.3,0-2.3-0.5-3.1-1.5s-1.1-2.5-1.1-4.3V417.1z M672,418.3c0,1.4,0.2,2.5,0.6,3.1c0.4,0.7,1.1,1,2.1,1
			c1,0,1.8-0.5,2.3-1.6v-6.4c-0.5-1-1.3-1.5-2.3-1.5c-1,0-1.6,0.3-2.1,1s-0.6,1.7-0.6,3.1V418.3z"/>
		<path class="st2" d="M681.8,417.1c0-1.8,0.4-3.3,1.3-4.4s2.1-1.6,3.5-1.6s2.7,0.5,3.5,1.6s1.4,2.5,1.4,4.3v1.3
			c0,1.8-0.4,3.3-1.3,4.4s-2.1,1.6-3.6,1.6c-1.5,0-2.6-0.5-3.5-1.6s-1.3-2.4-1.4-4.2V417.1z M683.9,418.3c0,1.3,0.3,2.3,0.8,3.1
			s1.2,1.1,2.1,1.1c1.8,0,2.8-1.3,2.8-4v-1.4c0-1.3-0.3-2.3-0.8-3.1s-1.2-1.1-2.1-1.1c-0.9,0-1.5,0.4-2,1.1s-0.8,1.8-0.8,3.1V418.3z
			"/>
		<path class="st2" d="M700.5,420.8c0-0.4-0.2-0.8-0.5-1.1s-1-0.7-1.9-1.1c-1.1-0.5-1.9-0.9-2.4-1.2s-0.8-0.7-1-1.1
			s-0.3-0.9-0.3-1.5c0-1,0.4-1.9,1.1-2.6s1.7-1,2.9-1c1.2,0,2.2,0.4,3,1.1s1.1,1.6,1.1,2.8h-2.1c0-0.6-0.2-1.1-0.6-1.5
			s-0.9-0.6-1.5-0.6c-0.6,0-1.1,0.2-1.4,0.5c-0.3,0.3-0.5,0.7-0.5,1.3c0,0.4,0.1,0.8,0.4,1c0.3,0.3,0.9,0.6,1.8,1
			c1.5,0.6,2.6,1.2,3.1,1.8s0.8,1.3,0.8,2.2c0,1.1-0.4,2-1.1,2.6c-0.8,0.7-1.8,1-3,1c-1.3,0-2.4-0.4-3.2-1.1s-1.2-1.7-1.2-2.9h2.1
			c0,0.7,0.2,1.3,0.6,1.7s1,0.6,1.7,0.6c0.7,0,1.2-0.2,1.6-0.5S700.5,421.3,700.5,420.8z"/>
		<path class="st2" d="M716.9,420.8c0-0.4-0.2-0.8-0.5-1.1s-1-0.7-1.9-1.1c-1.1-0.5-1.9-0.9-2.4-1.2s-0.8-0.7-1-1.1
			s-0.3-0.9-0.3-1.5c0-1,0.4-1.9,1.1-2.6s1.7-1,2.9-1c1.2,0,2.2,0.4,3,1.1s1.1,1.6,1.1,2.8h-2.1c0-0.6-0.2-1.1-0.6-1.5
			s-0.9-0.6-1.5-0.6c-0.6,0-1.1,0.2-1.4,0.5c-0.3,0.3-0.5,0.7-0.5,1.3c0,0.4,0.1,0.8,0.4,1c0.3,0.3,0.9,0.6,1.8,1
			c1.5,0.6,2.6,1.2,3.1,1.8s0.8,1.3,0.8,2.2c0,1.1-0.4,2-1.1,2.6c-0.8,0.7-1.8,1-3,1c-1.3,0-2.4-0.4-3.2-1.1s-1.2-1.7-1.2-2.9h2.1
			c0,0.7,0.2,1.3,0.6,1.7s1,0.6,1.7,0.6c0.7,0,1.2-0.2,1.6-0.5S716.9,421.3,716.9,420.8z"/>
		<path class="st2" d="M726.2,424.2c-1.6,0-2.8-0.5-3.6-1.4s-1.3-2.3-1.3-4.1v-1.5c0-1.9,0.4-3.4,1.2-4.4s2-1.6,3.5-1.6
			c1.5,0,2.6,0.5,3.3,1.4s1.1,2.4,1.1,4.4v1.4h-7.1v0.3c0,1.4,0.3,2.3,0.8,3s1.2,0.9,2.2,0.9c0.6,0,1.1-0.1,1.6-0.3s0.9-0.6,1.3-1.1
			l1.1,1.3C729.4,423.6,728,424.2,726.2,424.2z M726,412.9c-0.9,0-1.5,0.3-1.9,0.9s-0.6,1.5-0.7,2.7h5v-0.3
			c-0.1-1.2-0.3-2.1-0.7-2.6S726.7,412.9,726,412.9z"/>
		<path class="st2" d="M738,417.1c0-2,0.4-3.4,1.1-4.5s1.8-1.5,3.1-1.5c1.2,0,2.2,0.5,2.8,1.5V406h2.1v18h-1.9l-0.1-1.4
			c-0.7,1.1-1.7,1.6-2.9,1.6c-1.3,0-2.3-0.5-3.1-1.5s-1.1-2.5-1.1-4.3V417.1z M740,418.3c0,1.4,0.2,2.5,0.6,3.1c0.4,0.7,1.1,1,2.1,1
			c1,0,1.8-0.5,2.3-1.6v-6.4c-0.5-1-1.3-1.5-2.3-1.5c-1,0-1.6,0.3-2.1,1s-0.6,1.7-0.6,3.1V418.3z"/>
		<path class="st2" d="M754.8,424.2c-1.6,0-2.8-0.5-3.6-1.4s-1.3-2.3-1.3-4.1v-1.5c0-1.9,0.4-3.4,1.2-4.4s2-1.6,3.5-1.6
			c1.5,0,2.6,0.5,3.3,1.4s1.1,2.4,1.1,4.4v1.4H752v0.3c0,1.4,0.3,2.3,0.8,3s1.2,0.9,2.2,0.9c0.6,0,1.1-0.1,1.6-0.3s0.9-0.6,1.3-1.1
			l1.1,1.3C758.1,423.6,756.7,424.2,754.8,424.2z M754.6,412.9c-0.9,0-1.5,0.3-1.9,0.9s-0.6,1.5-0.7,2.7h5v-0.3
			c-0.1-1.2-0.3-2.1-0.7-2.6S755.4,412.9,754.6,412.9z"/>
		<path class="st2" d="M767.7,420.8c0-0.4-0.2-0.8-0.5-1.1s-1-0.7-1.9-1.1c-1.1-0.5-1.9-0.9-2.4-1.2s-0.8-0.7-1-1.1
			s-0.3-0.9-0.3-1.5c0-1,0.4-1.9,1.1-2.6s1.7-1,2.9-1c1.2,0,2.2,0.4,3,1.1s1.1,1.6,1.1,2.8h-2.1c0-0.6-0.2-1.1-0.6-1.5
			s-0.9-0.6-1.5-0.6c-0.6,0-1.1,0.2-1.4,0.5c-0.3,0.3-0.5,0.7-0.5,1.3c0,0.4,0.1,0.8,0.4,1c0.3,0.3,0.9,0.6,1.8,1
			c1.5,0.6,2.6,1.2,3.1,1.8s0.8,1.3,0.8,2.2c0,1.1-0.4,2-1.1,2.6c-0.8,0.7-1.8,1-3,1c-1.3,0-2.4-0.4-3.2-1.1s-1.2-1.7-1.2-2.9h2.1
			c0,0.7,0.2,1.3,0.6,1.7s1,0.6,1.7,0.6c0.7,0,1.2-0.2,1.6-0.5S767.7,421.3,767.7,420.8z"/>
		<path class="st2" d="M781.6,418.3c0,2-0.4,3.5-1.1,4.5s-1.7,1.5-3.1,1.5c-1.3,0-2.3-0.5-2.9-1.4v6.1h-2.1v-17.6h1.9l0.1,1.4
			c0.7-1.1,1.7-1.6,3-1.6c1.4,0,2.4,0.5,3.1,1.5s1,2.4,1.1,4.3V418.3z M779.6,417.1c0-1.4-0.2-2.5-0.7-3.1s-1.1-1-2.1-1
			c-1,0-1.7,0.5-2.3,1.5v6.6c0.5,1,1.3,1.5,2.3,1.5c0.9,0,1.6-0.3,2.1-1s0.7-1.7,0.7-3.1V417.1z"/>
		<path class="st2" d="M786.6,424h-2.1v-18h2.1V424z"/>
		<path class="st2" d="M794.3,424.2c-1.6,0-2.8-0.5-3.6-1.4s-1.3-2.3-1.3-4.1v-1.5c0-1.9,0.4-3.4,1.2-4.4s2-1.6,3.5-1.6
			c1.5,0,2.6,0.5,3.3,1.4s1.1,2.4,1.1,4.4v1.4h-7.1v0.3c0,1.4,0.3,2.3,0.8,3s1.2,0.9,2.2,0.9c0.6,0,1.1-0.1,1.6-0.3s0.9-0.6,1.3-1.1
			l1.1,1.3C797.6,423.6,796.2,424.2,794.3,424.2z M794.1,412.9c-0.9,0-1.5,0.3-1.9,0.9s-0.6,1.5-0.7,2.7h5v-0.3
			c-0.1-1.2-0.3-2.1-0.7-2.6S794.9,412.9,794.1,412.9z"/>
		<path class="st2" d="M800.6,417.1c0-2,0.4-3.5,1.1-4.5s1.8-1.5,3.2-1.5c1.3,0,2.3,0.6,2.9,1.7l0.1-1.4h1.9v12.8
			c0,1.6-0.4,2.8-1.2,3.6s-1.9,1.3-3.4,1.3c-0.6,0-1.3-0.2-2.1-0.5s-1.4-0.7-1.8-1.1l0.8-1.4c0.9,0.8,1.8,1.3,2.8,1.3
			c1.7,0,2.6-0.9,2.7-2.8v-1.7c-0.7,1-1.6,1.5-2.9,1.5c-1.3,0-2.3-0.5-3.1-1.5s-1.1-2.4-1.1-4.3V417.1z M802.7,418.3
			c0,1.4,0.2,2.5,0.6,3.1c0.4,0.7,1.1,1,2.1,1c1,0,1.8-0.5,2.3-1.6v-6.3c-0.5-1-1.3-1.6-2.3-1.6c-1,0-1.6,0.3-2.1,1
			s-0.6,1.7-0.6,3.1V418.3z"/>
		<path class="st2" d="M819.4,424c-0.1-0.3-0.2-0.7-0.3-1.4c-0.7,1.1-1.7,1.6-2.8,1.6c-1.1,0-2-0.3-2.7-1s-1-1.6-1-2.7
			c0-1.3,0.4-2.3,1.3-3.1s2.1-1.1,3.6-1.2h1.5V415c0-0.8-0.2-1.3-0.5-1.6s-0.8-0.5-1.5-0.5c-0.6,0-1.1,0.2-1.5,0.6s-0.6,0.8-0.6,1.4
			h-2.1c0-0.6,0.2-1.3,0.6-1.9s0.9-1.1,1.5-1.4s1.4-0.5,2.2-0.5c1.3,0,2.3,0.3,3,1s1,1.6,1,2.8v6.4c0,1,0.1,1.8,0.4,2.5v0.2H819.4z
			 M816.6,422.3c0.5,0,1-0.1,1.5-0.4s0.8-0.6,1-1.1v-3h-1.2c-1,0-1.8,0.2-2.3,0.7s-0.9,1-0.9,1.8c0,0.7,0.1,1.2,0.4,1.6
			S815.9,422.3,816.6,422.3z"/>
		<path class="st2" d="M829.6,413.3c-0.3-0.1-0.6-0.1-0.9-0.1c-1.1,0-1.8,0.6-2.2,1.7v9.1h-2.1v-12.7h2l0,1.3c0.6-1,1.3-1.5,2.4-1.5
			c0.3,0,0.6,0.1,0.8,0.2L829.6,413.3z"/>
		<path class="st2" d="M837.7,424c-0.1-0.3-0.2-0.7-0.3-1.4c-0.7,1.1-1.7,1.6-2.8,1.6c-1.1,0-2-0.3-2.7-1s-1-1.6-1-2.7
			c0-1.3,0.4-2.3,1.3-3.1s2.1-1.1,3.6-1.2h1.5V415c0-0.8-0.2-1.3-0.5-1.6s-0.8-0.5-1.5-0.5c-0.6,0-1.1,0.2-1.5,0.6s-0.6,0.8-0.6,1.4
			h-2.1c0-0.6,0.2-1.3,0.6-1.9s0.9-1.1,1.5-1.4s1.4-0.5,2.2-0.5c1.3,0,2.3,0.3,3,1s1,1.6,1,2.8v6.4c0,1,0.1,1.8,0.4,2.5v0.2H837.7z
			 M835,422.3c0.5,0,1-0.1,1.5-0.4s0.8-0.6,1-1.1v-3h-1.2c-1,0-1.8,0.2-2.3,0.7s-0.9,1-0.9,1.8c0,0.7,0.1,1.2,0.4,1.6
			S834.3,422.3,835,422.3z M836.7,406h2.6l-3.1,3.4l-1.7,0L836.7,406z"/>
		<path class="st2" d="M844.7,411.3l0.1,1.4c0.8-1.1,1.8-1.6,3.1-1.6c2.2,0,3.4,1.5,3.4,4.5v8.4h-2.1v-8.3c0-1-0.2-1.7-0.5-2.1
			s-0.8-0.6-1.5-0.6c-0.5,0-1,0.2-1.4,0.5s-0.7,0.8-1,1.3v9.2h-2.1v-12.7H844.7z"/>
		<path class="st2" d="M864.3,424.2c-1.6,0-2.8-0.5-3.6-1.4s-1.3-2.3-1.3-4.1v-1.5c0-1.9,0.4-3.4,1.2-4.4s2-1.6,3.5-1.6
			c1.5,0,2.6,0.5,3.3,1.4s1.1,2.4,1.1,4.4v1.4h-7.1v0.3c0,1.4,0.3,2.3,0.8,3s1.2,0.9,2.2,0.9c0.6,0,1.1-0.1,1.6-0.3s0.9-0.6,1.3-1.1
			l1.1,1.3C867.6,423.6,866.2,424.2,864.3,424.2z M864.1,412.9c-0.9,0-1.5,0.3-1.9,0.9s-0.6,1.5-0.7,2.7h5v-0.3
			c-0.1-1.2-0.3-2.1-0.7-2.6S864.9,412.9,864.1,412.9z"/>
		<path class="st2" d="M873,411.3l0.1,1.4c0.8-1.1,1.8-1.6,3.1-1.6c2.2,0,3.4,1.5,3.4,4.5v8.4h-2.1v-8.3c0-1-0.2-1.7-0.5-2.1
			s-0.8-0.6-1.5-0.6c-0.5,0-1,0.2-1.4,0.5s-0.7,0.8-1,1.3v9.2H871v-12.7H873z"/>
		<path class="st2" d="M890.4,424h-2.1v-18h2.1V424z"/>
		<path class="st2" d="M900.2,424c-0.1-0.3-0.2-0.7-0.3-1.4c-0.7,1.1-1.7,1.6-2.8,1.6c-1.1,0-2-0.3-2.7-1s-1-1.6-1-2.7
			c0-1.3,0.4-2.3,1.3-3.1s2.1-1.1,3.6-1.2h1.5V415c0-0.8-0.2-1.3-0.5-1.6s-0.8-0.5-1.5-0.5c-0.6,0-1.1,0.2-1.5,0.6s-0.6,0.8-0.6,1.4
			h-2.1c0-0.6,0.2-1.3,0.6-1.9s0.9-1.1,1.5-1.4s1.4-0.5,2.2-0.5c1.3,0,2.3,0.3,3,1s1,1.6,1,2.8v6.4c0,1,0.1,1.8,0.4,2.5v0.2H900.2z
			 M897.4,422.3c0.5,0,1-0.1,1.5-0.4s0.8-0.6,1-1.1v-3h-1.2c-1,0-1.8,0.2-2.3,0.7s-0.9,1-0.9,1.8c0,0.7,0.1,1.2,0.4,1.6
			S896.7,422.3,897.4,422.3z"/>
		<path class="st2" d="M912.9,424h-2.1v-18h2.1V424z"/>
		<path class="st2" d="M918.5,408c0,0.4-0.1,0.6-0.3,0.9s-0.5,0.4-0.9,0.4c-0.4,0-0.7-0.1-0.9-0.4s-0.3-0.5-0.3-0.9s0.1-0.6,0.3-0.9
			s0.5-0.4,0.9-0.4s0.7,0.1,0.9,0.4S918.5,407.6,918.5,408z M918.4,424h-2.1v-12.7h2.1V424z"/>
		<path class="st2" d="M927.8,420.8c0-0.4-0.2-0.8-0.5-1.1s-1-0.7-1.9-1.1c-1.1-0.5-1.9-0.9-2.4-1.2s-0.8-0.7-1-1.1
			s-0.3-0.9-0.3-1.5c0-1,0.4-1.9,1.1-2.6s1.7-1,2.9-1c1.2,0,2.2,0.4,3,1.1s1.1,1.6,1.1,2.8h-2.1c0-0.6-0.2-1.1-0.6-1.5
			s-0.9-0.6-1.5-0.6c-0.6,0-1.1,0.2-1.4,0.5c-0.3,0.3-0.5,0.7-0.5,1.3c0,0.4,0.1,0.8,0.4,1c0.3,0.3,0.9,0.6,1.8,1
			c1.5,0.6,2.6,1.2,3.1,1.8s0.8,1.3,0.8,2.2c0,1.1-0.4,2-1.1,2.6c-0.8,0.7-1.8,1-3,1c-1.3,0-2.4-0.4-3.2-1.1s-1.2-1.7-1.2-2.9h2.1
			c0,0.7,0.2,1.3,0.6,1.7s1,0.6,1.7,0.6c0.7,0,1.2-0.2,1.6-0.5S927.8,421.3,927.8,420.8z"/>
		<path class="st2" d="M935.3,408.2v3.1h1.9v1.7h-1.9v7.9c0,0.5,0.1,0.9,0.2,1.1c0.2,0.3,0.4,0.4,0.8,0.4c0.3,0,0.6,0,0.8-0.1l0,1.7
			c-0.5,0.2-0.9,0.2-1.4,0.2c-0.8,0-1.4-0.3-1.9-0.9s-0.6-1.4-0.6-2.5V413h-1.9v-1.7h1.9v-3.1H935.3z"/>
		<path class="st2" d="M946.2,424c-0.1-0.3-0.2-0.7-0.3-1.4c-0.7,1.1-1.7,1.6-2.8,1.6c-1.1,0-2-0.3-2.7-1s-1-1.6-1-2.7
			c0-1.3,0.4-2.3,1.3-3.1s2.1-1.1,3.6-1.2h1.5V415c0-0.8-0.2-1.3-0.5-1.6s-0.8-0.5-1.5-0.5c-0.6,0-1.1,0.2-1.5,0.6s-0.6,0.8-0.6,1.4
			h-2.1c0-0.6,0.2-1.3,0.6-1.9s0.9-1.1,1.5-1.4s1.4-0.5,2.2-0.5c1.3,0,2.3,0.3,3,1s1,1.6,1,2.8v6.4c0,1,0.1,1.8,0.4,2.5v0.2H946.2z
			 M943.4,422.3c0.5,0,1-0.1,1.5-0.4s0.8-0.6,1-1.1v-3h-1.2c-1,0-1.8,0.2-2.3,0.7s-0.9,1-0.9,1.8c0,0.7,0.1,1.2,0.4,1.6
			S942.7,422.3,943.4,422.3z"/>
	</g>
	<g class="st0">
		<path class="st2" d="M257.1,445.1c0-2,0.4-3.4,1.1-4.5s1.8-1.5,3.1-1.5c1.2,0,2.2,0.5,2.8,1.5V434h2.1v18h-1.9l-0.1-1.4
			c-0.7,1.1-1.7,1.6-2.9,1.6c-1.3,0-2.3-0.5-3.1-1.5s-1.1-2.5-1.1-4.3V445.1z M259.2,446.3c0,1.4,0.2,2.5,0.6,3.1
			c0.4,0.7,1.1,1,2.1,1c1,0,1.8-0.5,2.3-1.6v-6.4c-0.5-1-1.3-1.5-2.3-1.5c-1,0-1.6,0.3-2.1,1s-0.6,1.7-0.6,3.1V446.3z"/>
		<path class="st2" d="M274,452.2c-1.6,0-2.8-0.5-3.6-1.4s-1.3-2.3-1.3-4.1v-1.5c0-1.9,0.4-3.4,1.2-4.4s2-1.6,3.5-1.6
			c1.5,0,2.6,0.5,3.3,1.4s1.1,2.4,1.1,4.4v1.4h-7.1v0.3c0,1.4,0.3,2.3,0.8,3s1.2,0.9,2.2,0.9c0.6,0,1.1-0.1,1.6-0.3s0.9-0.6,1.3-1.1
			l1.1,1.3C277.2,451.6,275.8,452.2,274,452.2z M273.8,440.9c-0.9,0-1.5,0.3-1.9,0.9s-0.6,1.5-0.7,2.7h5v-0.3
			c-0.1-1.2-0.3-2.1-0.7-2.6S274.5,440.9,273.8,440.9z"/>
		<path class="st2" d="M290.7,452.2c-1.6,0-2.8-0.5-3.6-1.4s-1.3-2.3-1.3-4.1v-1.5c0-1.9,0.4-3.4,1.2-4.4s2-1.6,3.5-1.6
			c1.5,0,2.6,0.5,3.3,1.4s1.1,2.4,1.1,4.4v1.4h-7.1v0.3c0,1.4,0.3,2.3,0.8,3s1.2,0.9,2.2,0.9c0.6,0,1.1-0.1,1.6-0.3s0.9-0.6,1.3-1.1
			l1.1,1.3C293.9,451.6,292.6,452.2,290.7,452.2z M290.5,440.9c-0.9,0-1.5,0.3-1.9,0.9s-0.6,1.5-0.7,2.7h5v-0.3
			c-0.1-1.2-0.3-2.1-0.7-2.6S291.3,440.9,290.5,440.9z"/>
		<path class="st2" d="M299.7,452h-2.1v-18h2.1V452z"/>
		<path class="st2" d="M307.5,452.2c-1.6,0-2.8-0.5-3.6-1.4s-1.3-2.3-1.3-4.1v-1.5c0-1.9,0.4-3.4,1.2-4.4s2-1.6,3.5-1.6
			c1.5,0,2.6,0.5,3.3,1.4s1.1,2.4,1.1,4.4v1.4h-7.1v0.3c0,1.4,0.3,2.3,0.8,3s1.2,0.9,2.2,0.9c0.6,0,1.1-0.1,1.6-0.3s0.9-0.6,1.3-1.1
			l1.1,1.3C310.7,451.6,309.3,452.2,307.5,452.2z M307.2,440.9c-0.9,0-1.5,0.3-1.9,0.9s-0.6,1.5-0.7,2.7h5v-0.3
			c-0.1-1.2-0.3-2.1-0.7-2.6S308,440.9,307.2,440.9z"/>
		<path class="st2" d="M316.1,439.3l0,1.2c0.8-0.9,1.8-1.4,3.1-1.4c1.4,0,2.4,0.6,3,1.8c0.8-1.2,1.9-1.8,3.3-1.8
			c2.3,0,3.5,1.5,3.6,4.4v8.5H327v-8.3c0-0.9-0.2-1.6-0.5-2.1s-0.9-0.7-1.7-0.7c-0.6,0-1.1,0.2-1.5,0.7s-0.6,1.1-0.7,1.9v8.5h-2.1
			v-8.4c0-1.8-0.7-2.6-2.1-2.6c-1,0-1.8,0.5-2.2,1.6v9.5h-2.1v-12.7H316.1z"/>
		<path class="st2" d="M336.8,452.2c-1.6,0-2.8-0.5-3.6-1.4s-1.3-2.3-1.3-4.1v-1.5c0-1.9,0.4-3.4,1.2-4.4s2-1.6,3.5-1.6
			c1.5,0,2.6,0.5,3.3,1.4s1.1,2.4,1.1,4.4v1.4h-7.1v0.3c0,1.4,0.3,2.3,0.8,3s1.2,0.9,2.2,0.9c0.6,0,1.1-0.1,1.6-0.3s0.9-0.6,1.3-1.1
			l1.1,1.3C340,451.6,338.6,452.2,336.8,452.2z M336.5,440.9c-0.9,0-1.5,0.3-1.9,0.9s-0.6,1.5-0.7,2.7h5v-0.3
			c-0.1-1.2-0.3-2.1-0.7-2.6S337.3,440.9,336.5,440.9z"/>
		<path class="st2" d="M345.4,439.3l0.1,1.4c0.8-1.1,1.8-1.6,3.1-1.6c2.2,0,3.4,1.5,3.4,4.5v8.4h-2.1v-8.3c0-1-0.2-1.7-0.5-2.1
			s-0.8-0.6-1.5-0.6c-0.5,0-1,0.2-1.4,0.5s-0.7,0.8-1,1.3v9.2h-2.1v-12.7H345.4z"/>
		<path class="st2" d="M357.8,436.2v3.1h1.9v1.7h-1.9v7.9c0,0.5,0.1,0.9,0.2,1.1c0.2,0.3,0.4,0.4,0.8,0.4c0.3,0,0.6,0,0.8-0.1l0,1.7
			c-0.5,0.2-0.9,0.2-1.4,0.2c-0.8,0-1.4-0.3-1.9-0.9s-0.6-1.4-0.6-2.5V441h-1.9v-1.7h1.9v-3.1H357.8z"/>
		<path class="st2" d="M361.5,445.1c0-1.8,0.4-3.3,1.3-4.4s2.1-1.6,3.5-1.6s2.7,0.5,3.5,1.6s1.4,2.5,1.4,4.3v1.3
			c0,1.8-0.4,3.3-1.3,4.4s-2.1,1.6-3.6,1.6c-1.5,0-2.6-0.5-3.5-1.6s-1.3-2.4-1.4-4.2V445.1z M363.6,446.3c0,1.3,0.3,2.3,0.8,3.1
			s1.2,1.1,2.1,1.1c1.8,0,2.8-1.3,2.8-4v-1.4c0-1.3-0.3-2.3-0.8-3.1s-1.2-1.1-2.1-1.1c-0.9,0-1.5,0.4-2,1.1s-0.8,1.8-0.8,3.1V446.3z
			"/>
		<path class="st2" d="M380.1,448.8c0-0.4-0.2-0.8-0.5-1.1s-1-0.7-1.9-1.1c-1.1-0.5-1.9-0.9-2.4-1.2s-0.8-0.7-1-1.1
			s-0.3-0.9-0.3-1.5c0-1,0.4-1.9,1.1-2.6s1.7-1,2.9-1c1.2,0,2.2,0.4,3,1.1s1.1,1.6,1.1,2.8H380c0-0.6-0.2-1.1-0.6-1.5
			s-0.9-0.6-1.5-0.6c-0.6,0-1.1,0.2-1.4,0.5c-0.3,0.3-0.5,0.7-0.5,1.3c0,0.4,0.1,0.8,0.4,1c0.3,0.3,0.9,0.6,1.8,1
			c1.5,0.6,2.6,1.2,3.1,1.8s0.8,1.3,0.8,2.2c0,1.1-0.4,2-1.1,2.6c-0.8,0.7-1.8,1-3,1c-1.3,0-2.4-0.4-3.2-1.1s-1.2-1.7-1.2-2.9h2.1
			c0,0.7,0.2,1.3,0.6,1.7s1,0.6,1.7,0.6c0.7,0,1.2-0.2,1.6-0.5S380.1,449.3,380.1,448.8z"/>
		<path class="st2" d="M390,445.1c0-2,0.4-3.4,1.1-4.5s1.8-1.5,3.1-1.5c1.2,0,2.2,0.5,2.8,1.5V434h2.1v18h-1.9l-0.1-1.4
			c-0.7,1.1-1.7,1.6-2.9,1.6c-1.3,0-2.3-0.5-3.1-1.5s-1.1-2.5-1.1-4.3V445.1z M392,446.3c0,1.4,0.2,2.5,0.6,3.1c0.4,0.7,1.1,1,2.1,1
			c1,0,1.8-0.5,2.3-1.6v-6.4c-0.5-1-1.3-1.5-2.3-1.5c-1,0-1.6,0.3-2.1,1s-0.6,1.7-0.6,3.1V446.3z"/>
		<path class="st2" d="M406.8,452.2c-1.6,0-2.8-0.5-3.6-1.4s-1.3-2.3-1.3-4.1v-1.5c0-1.9,0.4-3.4,1.2-4.4s2-1.6,3.5-1.6
			c1.5,0,2.6,0.5,3.3,1.4s1.1,2.4,1.1,4.4v1.4H404v0.3c0,1.4,0.3,2.3,0.8,3s1.2,0.9,2.2,0.9c0.6,0,1.1-0.1,1.6-0.3s0.9-0.6,1.3-1.1
			l1.1,1.3C410.1,451.6,408.7,452.2,406.8,452.2z M406.6,440.9c-0.9,0-1.5,0.3-1.9,0.9s-0.6,1.5-0.7,2.7h5v-0.3
			c-0.1-1.2-0.3-2.1-0.7-2.6S407.4,440.9,406.6,440.9z"/>
		<path class="st2" d="M421.3,452h-2.1v-18h2.1V452z"/>
		<path class="st2" d="M431.1,452c-0.1-0.3-0.2-0.7-0.3-1.4c-0.7,1.1-1.7,1.6-2.8,1.6c-1.1,0-2-0.3-2.7-1s-1-1.6-1-2.7
			c0-1.3,0.4-2.3,1.3-3.1s2.1-1.1,3.6-1.2h1.5V443c0-0.8-0.2-1.3-0.5-1.6s-0.8-0.5-1.5-0.5c-0.6,0-1.1,0.2-1.5,0.6s-0.6,0.8-0.6,1.4
			h-2.1c0-0.6,0.2-1.3,0.6-1.9s0.9-1.1,1.5-1.4s1.4-0.5,2.2-0.5c1.3,0,2.3,0.3,3,1s1,1.6,1,2.8v6.4c0,1,0.1,1.8,0.4,2.5v0.2H431.1z
			 M428.3,450.3c0.5,0,1-0.1,1.5-0.4s0.8-0.6,1-1.1v-3h-1.2c-1,0-1.8,0.2-2.3,0.7s-0.9,1-0.9,1.8c0,0.7,0.1,1.2,0.4,1.6
			S427.6,450.3,428.3,450.3z"/>
		<path class="st2" d="M450.7,446.3c0,2-0.4,3.5-1.1,4.5s-1.7,1.5-3.1,1.5c-1.3,0-2.3-0.5-2.9-1.4v6.1h-2.1v-17.6h1.9l0.1,1.4
			c0.7-1.1,1.7-1.6,3-1.6c1.4,0,2.4,0.5,3.1,1.5s1,2.4,1.1,4.3V446.3z M448.6,445.1c0-1.4-0.2-2.5-0.7-3.1s-1.1-1-2.1-1
			c-1,0-1.7,0.5-2.3,1.5v6.6c0.5,1,1.3,1.5,2.3,1.5c0.9,0,1.6-0.3,2.1-1s0.7-1.7,0.7-3.1V445.1z"/>
		<path class="st2" d="M458.6,441.3c-0.3-0.1-0.6-0.1-0.9-0.1c-1.1,0-1.8,0.6-2.2,1.7v9.1h-2.1v-12.7h2l0,1.3c0.6-1,1.3-1.5,2.4-1.5
			c0.3,0,0.6,0.1,0.8,0.2L458.6,441.3z"/>
		<path class="st2" d="M465,452.2c-1.6,0-2.8-0.5-3.6-1.4s-1.3-2.3-1.3-4.1v-1.5c0-1.9,0.4-3.4,1.2-4.4s2-1.6,3.5-1.6
			c1.5,0,2.6,0.5,3.3,1.4s1.1,2.4,1.1,4.4v1.4h-7.1v0.3c0,1.4,0.3,2.3,0.8,3s1.2,0.9,2.2,0.9c0.6,0,1.1-0.1,1.6-0.3s0.9-0.6,1.3-1.1
			l1.1,1.3C468.2,451.6,466.8,452.2,465,452.2z M464.7,440.9c-0.9,0-1.5,0.3-1.9,0.9s-0.6,1.5-0.7,2.7h5v-0.3
			c-0.1-1.2-0.3-2.1-0.7-2.6S465.5,440.9,464.7,440.9z"/>
		<path class="st2" d="M477.8,448.8c0-0.4-0.2-0.8-0.5-1.1s-1-0.7-1.9-1.1c-1.1-0.5-1.9-0.9-2.4-1.2s-0.8-0.7-1-1.1
			s-0.3-0.9-0.3-1.5c0-1,0.4-1.9,1.1-2.6s1.7-1,2.9-1c1.2,0,2.2,0.4,3,1.1s1.1,1.6,1.1,2.8h-2.1c0-0.6-0.2-1.1-0.6-1.5
			s-0.9-0.6-1.5-0.6c-0.6,0-1.1,0.2-1.4,0.5c-0.3,0.3-0.5,0.7-0.5,1.3c0,0.4,0.1,0.8,0.4,1c0.3,0.3,0.9,0.6,1.8,1
			c1.5,0.6,2.6,1.2,3.1,1.8s0.8,1.3,0.8,2.2c0,1.1-0.4,2-1.1,2.6c-0.8,0.7-1.8,1-3,1c-1.3,0-2.4-0.4-3.2-1.1s-1.2-1.7-1.2-2.9h2.1
			c0,0.7,0.2,1.3,0.6,1.7s1,0.6,1.7,0.6c0.7,0,1.2-0.2,1.6-0.5S477.8,449.3,477.8,448.8z"/>
		<path class="st2" d="M487.2,452.2c-1.6,0-2.8-0.5-3.6-1.4s-1.3-2.3-1.3-4.1v-1.5c0-1.9,0.4-3.4,1.2-4.4s2-1.6,3.5-1.6
			c1.5,0,2.6,0.5,3.3,1.4s1.1,2.4,1.1,4.4v1.4h-7.1v0.3c0,1.4,0.3,2.3,0.8,3s1.2,0.9,2.2,0.9c0.6,0,1.1-0.1,1.6-0.3s0.9-0.6,1.3-1.1
			l1.1,1.3C490.4,451.6,489,452.2,487.2,452.2z M486.9,440.9c-0.9,0-1.5,0.3-1.9,0.9s-0.6,1.5-0.7,2.7h5v-0.3
			c-0.1-1.2-0.3-2.1-0.7-2.6S487.7,440.9,486.9,440.9z"/>
		<path class="st2" d="M495.8,439.3l0.1,1.4c0.8-1.1,1.8-1.6,3.1-1.6c2.2,0,3.4,1.5,3.4,4.5v8.4h-2.1v-8.3c0-1-0.2-1.7-0.5-2.1
			s-0.8-0.6-1.5-0.6c-0.5,0-1,0.2-1.4,0.5s-0.7,0.8-1,1.3v9.2h-2.1v-12.7H495.8z"/>
		<path class="st2" d="M508.2,436.2v3.1h1.9v1.7h-1.9v7.9c0,0.5,0.1,0.9,0.2,1.1c0.2,0.3,0.4,0.4,0.8,0.4c0.3,0,0.6,0,0.8-0.1l0,1.7
			c-0.5,0.2-0.9,0.2-1.4,0.2c-0.8,0-1.4-0.3-1.9-0.9s-0.6-1.4-0.6-2.5V441h-1.9v-1.7h1.9v-3.1H508.2z"/>
		<path class="st2" d="M519.1,452c-0.1-0.3-0.2-0.7-0.3-1.4c-0.7,1.1-1.7,1.6-2.8,1.6c-1.1,0-2-0.3-2.7-1s-1-1.6-1-2.7
			c0-1.3,0.4-2.3,1.3-3.1s2.1-1.1,3.6-1.2h1.5V443c0-0.8-0.2-1.3-0.5-1.6s-0.8-0.5-1.5-0.5c-0.6,0-1.1,0.2-1.5,0.6s-0.6,0.8-0.6,1.4
			h-2.1c0-0.6,0.2-1.3,0.6-1.9s0.9-1.1,1.5-1.4s1.4-0.5,2.2-0.5c1.3,0,2.3,0.3,3,1s1,1.6,1,2.8v6.4c0,1,0.1,1.8,0.4,2.5v0.2H519.1z
			 M516.3,450.3c0.5,0,1-0.1,1.5-0.4s0.8-0.6,1-1.1v-3h-1.2c-1,0-1.8,0.2-2.3,0.7s-0.9,1-0.9,1.8c0,0.7,0.1,1.2,0.4,1.6
			S515.6,450.3,516.3,450.3z"/>
		<path class="st2" d="M528.5,450.5c0.7,0,1.2-0.2,1.7-0.6s0.6-1,0.7-1.8h2c0,1.2-0.5,2.2-1.3,3s-1.8,1.2-3,1.2
			c-1.6,0-2.8-0.5-3.6-1.5s-1.2-2.5-1.2-4.4v-1.4c0-1.9,0.4-3.4,1.2-4.4s2-1.5,3.6-1.5c1.3,0,2.3,0.4,3.1,1.2s1.2,1.9,1.2,3.4h-2
			c0-0.9-0.3-1.6-0.7-2.1s-1-0.7-1.7-0.7c-0.9,0-1.6,0.3-2.1,0.9s-0.7,1.6-0.7,3v1.6c0,1.5,0.2,2.5,0.7,3.2S527.5,450.5,528.5,450.5
			z"/>
		<path class="st2" d="M537.5,436c0,0.4-0.1,0.6-0.3,0.9s-0.5,0.4-0.9,0.4c-0.4,0-0.7-0.1-0.9-0.4s-0.3-0.5-0.3-0.9s0.1-0.6,0.3-0.9
			s0.5-0.4,0.9-0.4s0.7,0.1,0.9,0.4S537.5,435.6,537.5,436z M537.4,452h-2.1v-12.7h2.1V452z"/>
		<path class="st2" d="M540.2,445.1c0-1.8,0.4-3.3,1.3-4.4s2.1-1.6,3.5-1.6s2.7,0.5,3.5,1.6s1.4,2.5,1.4,4.3v1.3
			c0,1.8-0.4,3.3-1.3,4.4s-2.1,1.6-3.6,1.6c-1.5,0-2.6-0.5-3.5-1.6s-1.3-2.4-1.4-4.2V445.1z M542.3,446.3c0,1.3,0.3,2.3,0.8,3.1
			s1.2,1.1,2.1,1.1c1.8,0,2.8-1.3,2.8-4v-1.4c0-1.3-0.3-2.3-0.8-3.1s-1.2-1.1-2.1-1.1c-0.9,0-1.5,0.4-2,1.1s-0.8,1.8-0.8,3.1V446.3z
			 M546.1,434h2.6l-3.1,3.4l-1.7,0L546.1,434z"/>
		<path class="st2" d="M554.6,439.3l0.1,1.4c0.8-1.1,1.8-1.6,3.1-1.6c2.2,0,3.4,1.5,3.4,4.5v8.4h-2.1v-8.3c0-1-0.2-1.7-0.5-2.1
			s-0.8-0.6-1.5-0.6c-0.5,0-1,0.2-1.4,0.5s-0.7,0.8-1,1.3v9.2h-2.1v-12.7H554.6z"/>
		<path class="st2" d="M564.4,450.9c0-0.4,0.1-0.7,0.3-0.9s0.6-0.4,1-0.4s0.8,0.1,1,0.4s0.3,0.6,0.3,0.9c0,0.4-0.1,0.7-0.3,0.9
			s-0.6,0.4-1,0.4s-0.8-0.1-1-0.4S564.4,451.2,564.4,450.9z"/>
	</g>
	<rect x="256" y="266" class="st1" width="177" height="88"/>
	<g class="st0">
		<path class="st2" d="M297.4,316.2c-0.2,4.4-1.4,7.7-3.7,9.9s-5.5,3.4-9.6,3.4c-4.3,0-7.7-1.4-10-4.3c-2.3-2.9-3.5-6.9-3.5-12.2
			v-6.5c0-5.3,1.2-9.3,3.6-12.2c2.4-2.9,5.7-4.3,10-4.3c4.2,0,7.4,1.2,9.5,3.5c2.2,2.3,3.4,5.7,3.7,10.1h-7.8
			c-0.1-2.7-0.5-4.6-1.3-5.6s-2.2-1.5-4.2-1.5c-2.1,0-3.5,0.7-4.4,2.2c-0.9,1.5-1.3,3.8-1.4,7.2v7.3c0,3.8,0.4,6.4,1.3,7.9
			c0.9,1.4,2.3,2.1,4.4,2.1c2,0,3.4-0.5,4.2-1.5c0.8-1,1.2-2.8,1.3-5.4H297.4z"/>
		<path class="st2" d="M313.8,315H310v14h-7.8v-38.4h12.4c3.9,0,6.9,1,9,3c2.1,2,3.2,4.9,3.2,8.6c0,5.1-1.9,8.7-5.6,10.7l6.7,15.7
			v0.4h-8.3L313.8,315z M310,308.5h4.4c1.5,0,2.7-0.5,3.5-1.5c0.8-1,1.2-2.4,1.2-4.1c0-3.8-1.5-5.8-4.5-5.8H310V308.5z"/>
		<path class="st2" d="M351.9,312.4h-12.1v10.2h14.3v6.4h-22v-38.4h22v6.5h-14.2v9.1h12.1V312.4z"/>
		<path class="st2" d="M376.9,321.1h-10.6l-2.1,7.9h-8.2l12-38.4h7.1l12.1,38.4H379L376.9,321.1z M368,314.7h7.2l-3.6-13.7
			L368,314.7z"/>
		<path class="st2" d="M402.5,315h-3.8v14h-7.8v-38.4h12.4c3.9,0,6.9,1,9,3c2.1,2,3.2,4.9,3.2,8.6c0,5.1-1.9,8.7-5.6,10.7l6.7,15.7
			v0.4h-8.3L402.5,315z M398.6,308.5h4.4c1.5,0,2.7-0.5,3.5-1.5s1.2-2.4,1.2-4.1c0-3.8-1.5-5.8-4.5-5.8h-4.5V308.5z"/>
	</g>
</g>
</svg>
