<svg xmlns="http://www.w3.org/2000/svg" width="308.75" height="308.21" viewBox="0 0 308.75 308.21"><g transform="translate(-0.025)" style="isolation:isolate"><g transform="translate(0.025)"><circle cx="154.105" cy="154.105" r="154.105" transform="translate(0.54)" fill="#80b041"/><g transform="translate(66.497 29.28)"><rect width="7.705" height="1.788" transform="translate(123.9 55.786)" fill="#999"/><path d="M27.7,146.223h7.705V98.143h2.157v.616h6.472V75.027h4.007V98.759h6.472v47.464h4.315V123.108h3.7V114.17H75.473v32.054H85.643V116.635h5.548V132.97h4.623V116.635h5.548v29.588h10.171V114.17h4.623V98.451H132.8v47.464h16.335V98.143H142.97V91.979h-3.082V75.027h3.082V69.171h0L144.2,67.63,133.724,55.61l-5.548-6.164-3.7-4.623L101.054,17.7,73.931,24.172,48.042,66.089v1.233H27.7ZM125.711,88.28l2.466-2.774V88.28Z" transform="translate(-27.7 -11.536)" fill="#999"/><path d="M71.41,79.242H65.246V50.27h0l1.233-1.541L56,36.709V17.6H73.876V50.27h7.4v76.744h-7.4V79.242Z" transform="translate(50.024 7.365)" fill="gray"/><path d="M67.1,59.4Z" transform="translate(54.335 75.288)" fill="gray"/><path d="M53,9.5h3.7V47.1L53,42.787Z" transform="translate(43.778 -9.5)" fill="gray"/><path d="M55.866,36.274H53.4L55.866,33.5Z" transform="translate(44.611 40.47)" fill="gray"/><rect width="4.931" height="26.537" transform="translate(31.129)" fill="#b3b3b3"/><path d="M24.1,48.421V17.6H36.737V48.421Z" transform="translate(-16.395 7.365)" fill="#b3b3b3"/><path d="M26.257,37.6V85.372H24.1V37.6Z" transform="translate(-16.395 49.007)" fill="gray"/><rect width="3.699" height="23.085" transform="translate(31.129 111.264)" fill="gray"/><path d="M58.622,62.357V53.419H50.3V37.7H66.943V85.164H62.32V62.357Z" transform="translate(38.156 49.215)" fill="#666"/><rect width="4.623" height="13.161" transform="translate(63.491 121.435)" fill="gray"/><path d="M53,45.6h3.7V68.716H53Z" transform="translate(43.778 65.664)" fill="gray"/><path d="M61,85.064V37.6h2.466V85.372H61Z" transform="translate(60.435 49.007)" fill="#666"/><path d="M53.423,42.7h8.322V74.754H48.8V42.7Z" transform="translate(35.033 59.626)" fill="#b3b3b3"/><path d="M45.948,43.6V72.88H40.4V43.6Z" transform="translate(17.543 61.5)" fill="#b3b3b3"/><path d="M43.7,43.6h5.548V72.88H43.7V43.6Z" transform="translate(24.414 61.5)" fill="#666"/><path d="M32.9,42.7H45.845V74.754H32.9V42.7Z" transform="translate(1.928 59.626)" fill="#666"/><rect width="3.082" height="16.982" transform="translate(112.188 63.491)" fill="#666"/><path d="M31.272,37.8H41.752V84.956H24.8V37.8Z" transform="translate(-14.937 49.423)" fill="#666"/><rect width="4.007" height="23.701" transform="translate(16.335 63.491)" fill="#b3b3b3"/><path d="M36.4,58.4s4.931-29.28,6.164-28.355S63.214,20.8,65.68,20.8l27.739,2.466s17.876,9.863,18.493,11.712,6.781,29.9,6.781,30.821a52.7,52.7,0,0,1-.925,9.554c-.616,1.541-3.082,10.171-3.082,10.171L38.249,79.052Z" transform="translate(-9.586 -5.081)" fill="gray"/></g><path d="M111.533,125l12.945,11.1,3.7-2.157-3.39-16.952a43.765,43.765,0,0,0,7.705-7.4l16.643,3.39,2.157-4.007L140.2,96.025a49,49,0,0,0,2.774-10.171L159,80.306V75.991L142.97,70.443A58.251,58.251,0,0,0,140.2,59.964l11.1-12.637-2.157-4.007-16.643,3.39a43.767,43.767,0,0,0-7.705-7.4l3.39-16.952-3.7-2.157L111.533,31.3a58.252,58.252,0,0,0-10.479-2.774L95.814,12.5H91.191L85.643,28.527A54.86,54.86,0,0,0,75.473,31.3l-12.945-11.1-3.7,2.157,3.082,16.952a41.916,41.916,0,0,0-7.4,7.4l-16.643-3.39-2.466,4.007,11.4,12.637a58.251,58.251,0,0,0-2.774,10.479L27.7,75.991v4.315l16.335,5.548a49.005,49.005,0,0,0,2.774,10.171l-11.4,12.945,2.466,4.007,16.643-3.39a41.917,41.917,0,0,0,7.4,7.4l-3.082,16.952,3.7,2.157L75.473,125a37.91,37.91,0,0,0,10.171,2.466L91.191,143.8h4.623l5.24-16.335A40.068,40.068,0,0,0,111.533,125Zm-18.184-9.554a37.293,37.293,0,1,1,26.569-10.813,37.293,37.293,0,0,1-26.569,10.813Z" transform="translate(38.797 6.917)" fill="#f2f2f2"/><path d="M44.908,92.56,35.353,75.3,22.1,75.916,35.969,97.183Z" transform="translate(45.938 156.782)" fill="#b3b3b3"/><path d="M21.4,86.119,36.81,85.5l4.931-8.013L36.5,70.4Z" transform="translate(44.481 146.58)" fill="#999"/><path d="M95.8,116.767a12.637,12.637,0,0,0,8.938-4.623,23.424,23.424,0,0,0,5.24-9.863,28.664,28.664,0,0,0,.616-7.089,16.951,16.951,0,0,0-1.849-6.781,17.876,17.876,0,0,0-5.548-5.24,20.342,20.342,0,0,0-7.4-.925V76.7H126v44.074H95.8Z" transform="translate(180.588 140.588)" fill="#ccc"/><path d="M95.8,108.647a12.637,12.637,0,0,0,8.938-4.623,23.424,23.424,0,0,0,5.24-9.863,55.177,55.177,0,0,0,.616-7.089L126,80.6v32.054H95.8Z" transform="translate(180.588 148.708)" fill="#e6e6e6" style="mix-blend-mode:multiply;isolation:isolate"/><path d="M95.8,99.278a12.637,12.637,0,0,0,8.938-4.623,11.1,11.1,0,0,0,2.157-3.082L126,85.1v18.184H95.8Z" transform="translate(180.588 158.077)" fill="#e6e6e6" style="mix-blend-mode:multiply;isolation:isolate"/><path d="M58.751,146.929a9.863,9.863,0,0,0,3.39-3.7,47.157,47.157,0,0,0,8.322-3.39c4.931-2.466,9.554-6.164,10.171-12.02a13.869,13.869,0,0,0-2.157-8.63A40.376,40.376,0,0,0,70.155,108.4a133.765,133.765,0,0,0-15.1-10.787l-2.774-4.623a56.1,56.1,0,0,0-9.863-12.328A26.814,26.814,0,0,0,29.779,74.5,17.26,17.26,0,0,0,19.3,77.274l4.931-13.253s24.657-1.233,32.362,2.774c18.493,9.555,44.382,66.882,44.382,66.882l-10.171,3.7L84.64,152.169l-21.575,3.39Z" transform="translate(21.308 113.816)" fill="#ccc"/><path d="M79.937,116.471l-13.253,5.856a13.253,13.253,0,0,0-1.541-4.931L63.6,114.314a12.02,12.02,0,0,0-2.466-3.082,39.758,39.758,0,0,0-4.931-5.24l-4.623-5.24h-.308l-.616-.616-.925-1.541-1.849-2.774c-2.157-3.7-4.007-7.4-6.164-10.787a37.294,37.294,0,0,0-6.781-9.863A88.454,88.454,0,0,0,26,65l22.808,4.007C59.9,79.794,72.231,101.985,79.937,116.471Z" transform="translate(35.258 116.227)" fill="#e6e6e6" style="mix-blend-mode:multiply;isolation:isolate"/><path d="M32.2,102.368l2.774-1.541,7.089-3.39,3.39-1.849,2.774-1.849A43.766,43.766,0,0,0,56.24,84.8H67.952L57.781,108.532l-21.575,3.39Z" transform="translate(48.167 157.453)" fill="#e6e6e6" style="mix-blend-mode:multiply;isolation:isolate"/><path d="M32.2,102.368l2.774-1.541,7.089-3.39,3.39-1.849,2.774-1.849A43.766,43.766,0,0,0,56.24,84.8H67.952L57.781,108.532l-21.575,3.39Z" transform="translate(48.167 157.453)" fill="#e6e6e6" style="mix-blend-mode:multiply;isolation:isolate"/><path d="M61.646,110.243,51.475,96.99,29.9,71.1l27.739,7.4,13.253,23.424,1.233,8.63Z" transform="translate(43.378 128.928)" fill="#e6e6e6" style="mix-blend-mode:multiply;isolation:isolate"/><path d="M89.208,77.3l28.047.925L119.1,82.54h-.616a15.1,15.1,0,0,0-15.411,15.1,14.794,14.794,0,0,0,15.411,14.794h.616l-2.466,4.931-27.739.616Z" transform="translate(166.222 141.837)" fill="#ccc"/><path d="M88.9,104.839l14.486-5.856V97.75a15.1,15.1,0,0,1,15.1-15.1h.616l-2.157-4.623L88.9,77.1Z" transform="translate(166.222 141.421)" fill="#e6e6e6" style="mix-blend-mode:multiply;isolation:isolate"/><path d="M88.9,93.027,107.084,88.1a16.027,16.027,0,0,1,11.712-5.24h.925l-2.466-4.931L89.516,77Z" transform="translate(166.222 141.212)" fill="#e6e6e6" style="mix-blend-mode:multiply;isolation:isolate"/><path d="M104.984,141.5h5.24L281.9,147.358a22.191,22.191,0,0,0,0-44.074l-142.085,9.246h-5.548c-14.486.308-29.9-3.39-34.828-12.328C86.491,78.011,63.376,53.663,36.561,68.457,15.911,79.244.809,121.469,7.9,133.489L51.047,90.648,90.5,155.372C93.272,153.523,95.738,141.811,104.984,141.5Zm-2.466-14.178-14.178,11.1L73.855,118.695l13.253-13.561ZM281.9,140.27a15.1,15.1,0,1,1,15.1-15.1,15.1,15.1,0,0,1-15.1,15.1Z" transform="translate(-6.125 114.003)" fill="#e6e6e6"/><path d="M11.6,111.639,61.222,83.9l12.945,21.575S43.654,128.9,11.6,111.639Z" transform="translate(5.275 155.579)" fill="#ccc"/><path d="M30.26,92.578,31.8,95.043l2.157-3.7,1.849,3.082L33.959,97.2l1.541,3.082L37.657,97.2l1.541,3.082-1.541,3.082,1.541,2.466,9.246-13.253-2.157-2.466L44.13,93.194l-2.157-3.082,2.157-3.39-1.849-2.466-2.157,3.082-2.157-2.774,1.849-3.7L37.966,78.4S27.795,83.331,30.26,92.578Z" transform="translate(43.326 144.127)" fill="#ccc"/><path d="M24.9,79.648l3.082-5.24,1.541-.308,1.233,1.541L25.825,81.5Z" transform="translate(51.768 154.283)" fill="#ccc" style="mix-blend-mode:multiply;isolation:isolate"/><path d="M32.283,86.466a9.863,9.863,0,0,0-.925,6.781L39.68,80.3S34.749,79.993,32.283,86.466Z" transform="translate(45.926 148.082)" fill="#ccc"/><path d="M32.93,85.723c1.233-3.39,8.013-4.623,8.013-4.623l-2.157,3.39H37.245l-3.082,4.623v2.466l-2.157,3.082a10.479,10.479,0,0,1,.925-8.938Z" transform="translate(46.512 149.749)" fill="#999"/><path d="M31.809,84.44c1.541-3.7,7.089-5.24,7.089-5.24l-1.849,3.7H35.508l-2.774,4.623v2.157l-2.157,3.7a13.87,13.87,0,0,1,1.233-8.938Z" transform="translate(44.243 145.793)" fill="#999"/><path d="M26.2,80.831l3.082-4.623,1.849-.308.616,1.541L26.508,83.3Z" transform="translate(54.475 158.031)" fill="#ccc" style="mix-blend-mode:multiply;isolation:isolate"/><path d="M32.9,96.253a18.184,18.184,0,0,1,1.849-8.322A9.555,9.555,0,0,1,41.532,83h.616Z" transform="translate(49.622 153.705)" fill="#999"/><path d="M27.7,82.931,31.09,78l3.39,4.315-5.24,4.007Z" transform="translate(57.598 162.404)" fill="#ccc"/><path d="M27.7,82.931,31.09,78l1.541,1.849L28.625,85.4Z" transform="translate(57.598 162.404)" fill="#ccc" style="mix-blend-mode:multiply;isolation:isolate"/><path d="M32.581,89.289a17.877,17.877,0,0,0,0,6.164L41.211,82.2a9.863,9.863,0,0,0-8.63,7.089Z" transform="translate(48.402 152.039)" fill="#ccc"/><path d="M15.7,109.449H.6L43.749,66.3l8.938,14.794Z" transform="translate(1.173 138.043)" fill="#999"/><path d="M173.03,79.709c-32.054.308-85.991,3.39-118.353,4.315-8.322.308-14.178,4.315-14.178,9.554,0,0,0-7.089,16.335-7.705,8.013-.308,106.024-4.623,119.894-4.623a11.712,11.712,0,0,1,7.705,3.082S182.585,79.4,173.03,79.709Z" transform="translate(65.448 146.825)" fill="#999"/><path d="M181.494,84.2a11.712,11.712,0,0,1-11.4,8.63L42.8,91.289,171.94,95.6S181.186,95.6,181.494,84.2Z" transform="translate(70.237 156.204)" fill="#fff"/><path d="M21.6,77.7,34.545,98.966l-3.39,2.157Z" transform="translate(44.897 161.779)" fill="#e6e6e6" style="mix-blend-mode:multiply;isolation:isolate"/><path d="M93.245,70.8l-10.479.616L80.3,113.025l12.945.308Z" transform="translate(167.116 147.412)" fill="#e6e6e6" style="mix-blend-mode:multiply;isolation:isolate"/><path d="M105.188,74.054V64.5H82.381v9.554A18.493,18.493,0,0,0,75.6,88.232v85.374a18.184,18.184,0,0,0,36.061,0V88.232a18.184,18.184,0,0,0-6.472-14.178Z" transform="translate(138.53 115.186)" fill="#d1b9b9"/><path d="M75.8,101.2a18.184,18.184,0,0,0,35.136,0Z" transform="translate(138.946 191.599)" fill="#4d4d4d"/><path d="M92.978,177.921V89.465c-.308-14.486-9.863-14.486-14.178-15.41V65.733L98.525,64.5v9.554A18.184,18.184,0,0,1,105,88.232v85.374a20.341,20.341,0,0,1-.308,4.315Z" transform="translate(145.192 115.186)" fill="#e6e6e6" style="mix-blend-mode:multiply;isolation:isolate"/><path d="M96.727,88.849v87.84a20.342,20.342,0,0,1-4.315,12.02h.616a18.184,18.184,0,0,0,8.013-15.1V88.232a18.184,18.184,0,0,0-6.472-14.178V64.5H80.7v9.554C88.1,74.054,96.727,74.054,96.727,88.849Z" transform="translate(149.148 115.186)" fill="#e6e6e6" style="mix-blend-mode:multiply;isolation:isolate"/><path d="M81.346,69.8c0,.925-.616,4.007-.616,4.623V163.5a17.568,17.568,0,0,0,6.781,14.178H83.5A18.492,18.492,0,0,1,76.722,163.5V75.348A9.554,9.554,0,0,1,77.955,69.8Z" transform="translate(140.798 126.221)" fill="gray" style="mix-blend-mode:screen;isolation:isolate"/><rect width="29.588" height="14.702" transform="translate(217.828 167.666)" fill="#f2f2f2"/><rect width="23.116" height="14.702" transform="translate(224.301 167.666)" fill="#ccc" style="mix-blend-mode:multiply;isolation:isolate"/><rect width="11.712" height="14.702" transform="translate(235.704 167.666)" fill="#ccc" style="mix-blend-mode:multiply;isolation:isolate"/><path d="M106.288,66.638c0,4.931-6.472,8.938-14.794,8.938S76.7,71.569,76.7,66.638,83.481,57.7,91.494,57.7,106.288,61.707,106.288,66.638Z" transform="translate(140.82 101.028)" fill="#ccc"/><rect width="7.397" height="124.393" transform="translate(228.307 43.149)" fill="#fff"/><rect width="3.699" height="124.393" transform="translate(232.006 43.149)" fill="#b3b3b3" style="mix-blend-mode:multiply;isolation:isolate"/><path d="M78.264,43.041,72.1,32.254,78.264.2h7.4L95.832,32.254,85.661,42.733Z" transform="translate(150.043 0.416)" fill="#e6e6e6"/><path d="M98.331,32.254,70.9,31.637,76.448.2H90.009Z" transform="translate(147.545 0.416)" fill="#e6e6e6"/><path d="M75.3,43.041l10.787-11.4L79,.2h1.849l8.322,32.054L79,42.733Z" transform="translate(156.706 0.416)" fill="#ccc" style="mix-blend-mode:multiply;isolation:isolate"/><path d="M81.5,62.1H74.1v-3.39L81.5,50.7Z" transform="translate(154.207 105.562)" fill="#e6e6e6" style="mix-blend-mode:multiply;isolation:isolate"/><path d="M95.249,10.4H70.9l9.863,11.4h3.7Z" transform="translate(147.545 21.654)" fill="#fff"/></g></g></svg>