<svg xmlns="http://www.w3.org/2000/svg" width="508.5" height="545.2" viewBox="0 0 508.5 545.2"><defs><style>.cls-1,.cls-2,.cls-3{stroke:red;stroke-miterlimit:10;}.cls-2{fill:#ed0f0f;}.cls-3{fill:#fff;}</style></defs><g id="Layer_2" data-name="Layer 2"><path class="cls-1" d="M25,28H383.8L496.5,151.5V284.2l-38-21.7,1-74h-112V64.5H61.5l1,471H245.8s7.7,15,33.7,36.6c.3.3-254.5,0-254.5,0Z" transform="translate(-24.5 -27.5)"/><polygon class="cls-1" points="75 198 75 161.7 274 162 274 198 75 198"/><path class="cls-1" d="M99.5,300.1v-37s225.1-.4,224.3,0c-19.3,8.4-44.3,24.4-56.2,37C267.3,300.4,99.5,300.1,99.5,300.1Z" transform="translate(-24.5 -27.5)"/><path class="cls-1" d="M99.5,373.1V337.3l138,.2c-9,14-15,31-16,36Z" transform="translate(-24.5 -27.5)"/><polygon class="cls-1" points="75 419.8 75 384.4 174 384 174 419.8 75 419.8"/><circle class="cls-2" cx="367" cy="403" r="141"/></g><g id="Layer_3" data-name="Layer 3"><path class="cls-3" d="M298.3,507.4l16,15.7a6.6,6.6,0,0,0,9.1,0l54.1-53.6,9.4-8.9a6.6,6.6,0,0,1,9.1.1l58.3,57.4a6.6,6.6,0,0,0,9.2-.1l15.8-16.3a6.4,6.4,0,0,0-.1-9.1l-57.7-57.2a6.5,6.5,0,0,1-.1-9.2l62.1-62.9a6.5,6.5,0,0,0-.1-9.2l-16.4-16a6.5,6.5,0,0,0-9.1.1l-62,62.9a6.4,6.4,0,0,1-9,.2l-61.5-57.6a6.6,6.6,0,0,0-9.1.2l-18.2,18.9a6.5,6.5,0,0,0,.2,9.2l60.3,56.9a6.4,6.4,0,0,1,.1,9.3l-60.5,60A6.5,6.5,0,0,0,298.3,507.4Z" transform="translate(-24.5 -27.5)"/></g></svg>