<svg xmlns="http://www.w3.org/2000/svg" width="80" height="80.016" viewBox="0 0 80 80.016"><path d="M317.107,390.47a16.565,16.565,0,1,0,17.944,15.056A16.565,16.565,0,0,0,317.107,390.47Z" transform="translate(-278.559 -366.962)" fill="none"/><path d="M235.637,298.774a39.586,39.586,0,0,0,1.963-9.426l-6.522-3.164a29.9,29.9,0,0,0-.114-3.18c-.032-.373-.081-.73-.13-1.1l6.133-3.861a39.685,39.685,0,0,0-3-9.167l-7.236.535a33.371,33.371,0,0,0-2.336-3.6l3.358-6.408a40.413,40.413,0,0,0-7.187-6.425l-5.987,4.072a33.938,33.938,0,0,0-3.829-1.947l-.292-7.22a39.765,39.765,0,0,0-9.426-1.979l-3.164,6.522c-1.055-.016-2.109.032-3.18.114l-1.1.13-3.861-6.133a40.463,40.463,0,0,0-9.167,3l.535,7.236a31.2,31.2,0,0,0-3.6,2.352l-6.408-3.375a39.7,39.7,0,0,0-6.408,7.187l4.056,5.987a33.938,33.938,0,0,0-1.947,3.829l-7.22.292a38.938,38.938,0,0,0-1.963,9.442l6.506,3.147c0,1.055.032,2.109.114,3.18.032.373.081.73.13,1.1l-6.133,3.861a40.462,40.462,0,0,0,3,9.167l7.236-.535a32.66,32.66,0,0,0,2.352,3.6l-3.375,6.392a39.877,39.877,0,0,0,7.187,6.441l5.987-4.072a33.945,33.945,0,0,0,3.829,1.947l.292,7.236a39.75,39.75,0,0,0,9.426,1.963l3.164-6.522a29.754,29.754,0,0,0,3.18-.114l1.1-.13,3.861,6.133a40.171,40.171,0,0,0,9.166-2.985l-.519-7.236a37.882,37.882,0,0,0,3.585-2.352l6.408,3.358a40.413,40.413,0,0,0,6.425-7.187l-4.072-5.987a33.943,33.943,0,0,0,1.947-3.829Zm-38.045,10.74A23.606,23.606,0,1,1,221.2,285.908,23.639,23.639,0,0,1,197.592,309.514Z" transform="translate(-157.6 -245.9)" fill="#333231"/><path d="M269,379.318A21.918,21.918,0,1,0,290.918,357.4,21.942,21.942,0,0,0,269,379.318Zm38.418-1.444a16.565,16.565,0,1,1-17.944-15.056A16.565,16.565,0,0,1,307.418,377.875Z" transform="translate(-250.927 -339.31)" fill="#333231"/><path d="M258.6,370.606A23.606,23.606,0,1,0,282.206,347,23.639,23.639,0,0,0,258.6,370.606Zm45.524,0a21.918,21.918,0,1,1-21.918-21.918A21.942,21.942,0,0,1,304.124,370.606Z" transform="translate(-242.214 -330.598)" fill="#71bf44"/></svg>