<svg xmlns="http://www.w3.org/2000/svg" width="88.106" height="80" viewBox="0 0 88.106 80"><g transform="translate(-1082 -58.3)"><g transform="translate(1082 58.3)"><path d="M374.106,646.014H286V614.6h13.264v18.134h61.578V614.6h13.264Z" transform="translate(-286 -566.014)" fill="#333231"/><path d="M431.387,344.268V311.3H401.719v32.968H389l27.553,27.553,27.553-27.553Z" transform="translate(-372.5 -311.3)" fill="#71bf44"/><path d="M540.432,517.1c-8.17,5.174-22.779,13.76-36.732,18.374l9.179,9.179Z" transform="translate(-468.826 -484.132)" fill="#33854c"/><path d="M475.7,331.292V318.3h10S477.03,319.9,475.7,331.292Z" transform="translate(-445.312 -317.179)" fill="#59ac55"/><path d="M401.3,708.579s53.728-1.906,69.635-19.479v19.479Z" transform="translate(-382.83 -628.579)" fill="#606060"/></g></g></svg>