<svg xmlns="http://www.w3.org/2000/svg" width="39.839" height="40.361" viewBox="0 0 39.839 40.361"><g transform="translate(-289.694 -286.095)"><g transform="translate(289.694 286.095)"><path d="M760.176,760.07l-.162-.17-4.113,4.047.1.1,1.076,1.091c.686.7,2.167.361,3.3-.759s1.5-2.588.811-3.288Z" transform="translate(-721.694 -725.137)" fill="#71bf44"/><path d="M746.513,746.4l-4.113,4.047,1,1,4.113-4.047-.118-.118h-.007Z" transform="translate(-709.028 -712.468)" fill="#71bf44"/><path d="M305.72,286.1a15.909,15.909,0,1,0,8.581,29.222l8.765,8.758,4.113-4.047-8.706-8.7A15.89,15.89,0,0,0,305.72,286.1Zm.015,27.1A11.187,11.187,0,1,1,317,302.092,11.188,11.188,0,0,1,305.735,313.194Z" transform="translate(-289.694 -286.095)" fill="#616e7d"/></g></g></svg>