<svg id="Capa_1" data-name="Capa 1" xmlns="http://www.w3.org/2000/svg" width="5.4cm" height="5.6cm" viewBox="0 0 151.9 157.6"><defs><style>.cls-1{fill:#40290f;}.cls-2{fill:#c3c5ca;}.cls-3{fill:#fff;}.cls-4{fill:#c44330;}.cls-5{fill:#d8dade;}</style></defs><path class="cls-1" d="M300,284.8a3.4,3.4,0,0,1-3.4,3.4H151.4a3.4,3.4,0,0,1-3.3-3.4V134a3.4,3.4,0,0,1,3.3-3.4H296.6A3.4,3.4,0,0,1,300,134Z" transform="translate(-148.1 -130.6)"/><rect class="cls-2" x="21.2" width="109.6" height="57.07"/><rect class="cls-1" x="96" y="3.1" width="14.8" height="46.17"/><rect class="cls-3" x="13.7" y="67.9" width="124.5" height="76.67"/><rect class="cls-4" x="13.7" y="67.9" width="124.5" height="10.87"/><rect class="cls-5" x="20.3" y="89.7" width="111.4" height="1.7"/><rect class="cls-5" x="20.3" y="101.1" width="111.4" height="1.69"/><rect class="cls-5" x="20.3" y="112.5" width="111.4" height="1.7"/><rect class="cls-5" x="20.3" y="124" width="111.4" height="1.69"/><rect class="cls-5" x="20.3" y="135.4" width="111.4" height="1.7"/></svg>