<svg xmlns="http://www.w3.org/2000/svg" width="42.8" height="21.719" viewBox="0 0 42.8 21.719"><g transform="translate(-835 -653.311)"><g transform="translate(835 653.311)"><path d="M480.1,113.015s19.2,24.434,42.8,0C499.3,88.581,480.1,113.015,480.1,113.015Z" transform="translate(-480.1 -102.156)" fill="#333231"/><path d="M497.2,123.713s16.474,19.223,36.7,0C513.674,104.509,497.2,123.713,497.2,123.713Z" transform="translate(-494.148 -112.854)" fill="#fff"/><circle cx="9.352" cy="9.352" r="9.352" transform="translate(12.048 1.507)" fill="#333231"/><circle cx="7.282" cy="7.282" r="7.282" transform="translate(11.638 14.101) rotate(-63.2)" fill="#fff"/><circle cx="4.926" cy="4.926" r="4.926" transform="translate(16.474 5.934)" fill="#333231"/><path d="M582.748,145.474a1.874,1.874,0,1,1-1.874-1.874A1.874,1.874,0,0,1,582.748,145.474Z" transform="translate(-561.348 -136.203)" fill="#fff"/></g></g></svg>