<svg xmlns="http://www.w3.org/2000/svg" width="72.661" height="80" viewBox="0 0 72.661 80"><g transform="translate(-137.184 -121.144)"><g transform="translate(137.184 121.144)"><rect width="18.262" height="1.639" transform="matrix(1, -0.007, 0.007, 1, 26.876, 4.855)" fill="none"/><path d="M467.231,235.9l4.647-.036-.036-3.959a2.281,2.281,0,0,0-.688-1.629,2.365,2.365,0,0,0-1.654-.676l-22.909.181a2.306,2.306,0,0,0-2.293,2.342l.024,3.959,4.647-.036V234.4l18.262-.133Z" transform="translate(-422.053 -229.6)" fill="#333231"/><path d="M288.171,403.283a2.462,2.462,0,0,0-2.4,2.933l10.284,53.675a2.45,2.45,0,0,0,2.438,2l41.557-.326a2.474,2.474,0,0,0,2.414-2.028l9.813-53.832a2.474,2.474,0,0,0-2.45-2.909Zm17.719,54.967a2.438,2.438,0,0,1-2.8-2.028l-7.061-44.249a2.45,2.45,0,1,1,4.828-.772l7.061,44.249a2.438,2.438,0,0,1-2.028,2.8Zm13.543.169a2.45,2.45,0,0,1-2.474-2.426l-.35-44.8a2.45,2.45,0,1,1,4.9-.036l.35,44.8a2.438,2.438,0,0,1-2.426,2.462ZM342.1,411.611l-6.361,44.357a2.451,2.451,0,0,1-4.852-.7l6.361-44.357a2.451,2.451,0,0,1,4.852.7Z" transform="translate(-282.619 -381.895)" fill="#333231"/><path d="M260.061,293.539l72.6-.567-.06-7.4-6.735.06-.024-3.9a1.159,1.159,0,0,0-1.159-1.135l-14.858.109-4.647.036-18.262.145-4.647.036-13.844.109a1.134,1.134,0,0,0-.809.35,1.122,1.122,0,0,0-.338.809l.036,3.9L260,286.14Z" transform="translate(-260 -274.444)" fill="#71bf44"/><path d="M544.026,451.9a2.45,2.45,0,0,0-2.426,2.462l.35,44.8a2.45,2.45,0,1,0,4.9-.036l-.35-44.8A2.45,2.45,0,0,0,544.026,451.9Z" transform="translate(-507.611 -425.068)" fill="#71bf44"/><path d="M666.078,454.691l-6.361,44.357a2.451,2.451,0,0,0,4.852.7l6.361-44.357a2.451,2.451,0,1,0-4.852-.7Z" transform="translate(-611.449 -425.675)" fill="#71bf44"/><path d="M372.884,455.356a2.426,2.426,0,0,0-2.028,2.8l7.061,44.249a2.45,2.45,0,1,0,4.828-.773l-7.061-44.249a2.426,2.426,0,0,0-2.8-2.028Z" transform="translate(-357.446 -428.078)" fill="#71bf44"/></g></g></svg>