<svg xmlns="http://www.w3.org/2000/svg" xmlns:xlink="http://www.w3.org/1999/xlink" width="25.7cm" height="16.7cm" viewBox="0 0 729.6 472"><defs><style>.cls-1{fill:#00aeef;}.cls-2{mask:url(#mask);}.cls-3{fill:#bcbec0;}.cls-4{fill:#447135;}.cls-4,.cls-5,.cls-6,.cls-7,.cls-8{stroke:#333232;stroke-miterlimit:10;stroke-width:3px;}.cls-5{fill:#80af41;}.cls-6{fill:#71bf44;}.cls-7{fill:#acd25d;}.cls-8{fill:#166734;}.cls-9{fill:#fff;}.cls-10{fill:#333232;}</style><mask id="mask" x="4.57" y="-123.69" width="710.15" height="416.85" maskUnits="userSpaceOnUse"><g transform="translate(-213.1 -183.7)"><path class="cls-1" d="M218.3,433.1c14.8-6.8,37-17.7,63.1-33,10.3-6.1,13.8-8.4,30.1-18.7,63.5-39.7,67.5-39.2,93.2-57.3,39.1-27.6,32.6-30.7,54.5-41.6,35.3-17.5,68.7-17.4,86-17.2,45.1.6,78.8,15.3,108.9,28.7,45.2,20.1,38,26.9,70.3,38.7,64.1,23.4,121.9,7.4,137.6,2.9,37.4-10.9,56.3-16.4,63.1-31.6,21.6-48.3-88.7-175.5-223.6-222.2C684.4,75.9,472.6,6.6,323,150.6,209.7,259.7,216.8,409.5,218.3,433.1Z"/></g></mask></defs><g id="Nubes"><g class="cls-2"><circle class="cls-3" cx="68.1" cy="239.4" r="53.8"/><circle class="cls-3" cx="113.3" cy="204.3" r="43"/><circle class="cls-3" cx="177.1" cy="167.7" r="46.6"/><circle class="cls-3" cx="250.9" cy="138.3" r="65.9"/><circle class="cls-3" cx="309" cy="80.3" r="49.5"/><circle class="cls-3" cx="372.8" cy="101" r="55.9"/><circle class="cls-3" cx="426.5" cy="107.5" r="45.2"/><circle class="cls-3" cx="513.3" cy="99.6" r="64.5"/><circle class="cls-3" cx="597.1" cy="147.6" r="48"/><circle class="cls-3" cx="566.3" cy="99.6" r="28.7"/></g></g><g id="montaña"><path class="cls-4" d="M413.2,313.1C454.5,270.5,527,265.9,527,265.9c96.1-6,179.5,56.2,177.5,60.9-.3.8-14.3-3-42.2-10.7-48.1-13.2-79.2-23.1-87.3-25.5-73.3-21.2-146.3,18.7-160,27.7-1.3.8-9,6-9.8,5S411,315.4,413.2,313.1Z" transform="translate(-213.1 -183.7)"/><path class="cls-5" d="M382.9,342.1c-1.8-7,109.4-68.5,213.8-40.2,23.2,6.3,31.9,11.6,67.8,21.4,10.7,2.9,119.5,13.3,119.6,13.6s1.1,2.2.9,3.2c-.4,3.2-61.8,20.6-169.4,10.4-70.8-6.8-78.5-17.7-137.2-17.4C415.8,333.3,383.9,345.8,382.9,342.1Z" transform="translate(-213.1 -183.7)"/><path class="cls-6" d="M322.1,376.7c70.2-35.8,152.5-37.2,152.5-37.2C591.4,345.2,597,365.6,694,360.9c90.8-4.3,168.8-31.1,171.8-23.5,1.2,2.9-10.4,10.2-15.1,13.1-81.6,49-209.9,45.4-221.1,45-50-1.8-153-9.4-215.3-17.3-13.7-1.7-37.2-5-67,.6-28.1,5.1-50.5,16-51.4,14.1S312.3,381.7,322.1,376.7Z" transform="translate(-213.1 -183.7)"/><path class="cls-7" d="M242.5,421.2c33-16.3,61.4-30.3,113.2-35.6,55.2-5.8,91.8,3.1,141.9,9.9,9.8,1.4,172.5,22.6,287.6-8.9,68.2-18.6,112.6-53.8,118.9-61.8.6-.8,5.4-7.1,6.8-6.3s-.9,6.9-1.6,8.9c-23.7,68.4-118.4,106.4-118.4,106.4-78.6,31.5-150.4,22-237.2,10.4-61.8-8.2-72.4-23.8-133.1-27.7-106.5-6.9-195.7,26-198,17.8C222.3,433.1,223.5,430.6,242.5,421.2Z" transform="translate(-213.1 -183.7)"/><path class="cls-8" d="M214.6,452.1c-.8-7,85.3-34,176.5-28.5,44.5,2.7,50.3,6,103,16.5,76.4,15.3,162.7,36,237.5,21,127.5-25.6,199.9-132.4,209-123,4.9,5.1-17.6,36.6-40.5,60-50.7,51.6-111.4,71-148.5,79.5-118.5,27.1-157.3-19.9-343.5-28.5C288.6,443.6,215.4,458.8,214.6,452.1Z" transform="translate(-213.1 -183.7)"/></g><g id="texto"><path class="cls-9" d="M315.4,512.1a50.2,50.2,0,0,0,3.1,18.5,41.5,41.5,0,0,0,8.5,13.5,35.8,35.8,0,0,0,12.1,8.3,38.6,38.6,0,0,0,14.2,2.8,28.6,28.6,0,0,0,10.6-2,37.9,37.9,0,0,0,9.1-5.3,47.8,47.8,0,0,0,8-7.6c2.5-2.9,4.9-6,7.2-9.2l11,8.1a67,67,0,0,1-8.6,11,57.1,57.1,0,0,1-11.3,9.4,59.8,59.8,0,0,1-13.7,6.6,51,51,0,0,1-15.7,2.4,77.6,77.6,0,0,1-25.6-4.1A61.8,61.8,0,0,1,304,553.1a53.7,53.7,0,0,1-13.3-17.9,59.9,59.9,0,0,1-2.7-38.6,54,54,0,0,1,5.9-13.7,50.5,50.5,0,0,1,9.3-11.3,57.8,57.8,0,0,1,12.5-8.6,65.2,65.2,0,0,1,15.2-5.5,81.6,81.6,0,0,1,17.5-1.9,61.6,61.6,0,0,1,17.1,2.2,55.7,55.7,0,0,1,14.1,6.1,52.4,52.4,0,0,1,11.2,9.2,63.6,63.6,0,0,1,8.8,11.8l-11.2,7.8a82.7,82.7,0,0,0-7.4-9.2,66.2,66.2,0,0,0-8.5-7.5,46.6,46.6,0,0,0-9.6-5.1,30.4,30.4,0,0,0-10.4-1.9,37.8,37.8,0,0,0-14.2,2.8,34.7,34.7,0,0,0-11.8,8.3,36.3,36.3,0,0,0-8.1,13.5A52.4,52.4,0,0,0,315.4,512.1Z" transform="translate(-213.1 -183.7)"/><path class="cls-9" d="M442.6,568a41.1,41.1,0,0,1-18.1-4.1,44.2,44.2,0,0,1-14.3-11.1,51.4,51.4,0,0,1-9.4-16.7,60.7,60.7,0,0,1-3.4-20.7,67.2,67.2,0,0,1,3.4-22,53.9,53.9,0,0,1,9.4-17.4,43.4,43.4,0,0,1,14.3-11.3,42.5,42.5,0,0,1,36.2-.1,42,42,0,0,1,14.4,11,51.9,51.9,0,0,1,9.6,16.5,60.9,60.9,0,0,1,3.4,20.3,69.8,69.8,0,0,1-3.4,21.6,56.4,56.4,0,0,1-9.6,17.6,43.7,43.7,0,0,1-14.4,12A38.1,38.1,0,0,1,442.6,568Zm3-12.7a9.3,9.3,0,0,0,6.3-2.7,24.3,24.3,0,0,0,4.9-7.6,49.2,49.2,0,0,0,3.2-10.8,67.3,67.3,0,0,0,1.2-12.9,155.6,155.6,0,0,0-1.1-18.7,65.8,65.8,0,0,0-3.8-15.3,27.8,27.8,0,0,0-6.9-10.4,14.7,14.7,0,0,0-10.3-3.9c-2,0-3.8.9-5.7,2.8a22.5,22.5,0,0,0-4.7,7.3,56.1,56.1,0,0,0-3.4,10.7,65.9,65.9,0,0,0-1.2,12.7,125.2,125.2,0,0,0,1.4,18.9,68,68,0,0,0,4.3,15.5,31.7,31.7,0,0,0,6.7,10.5A12.7,12.7,0,0,0,445.6,555.3Z" transform="translate(-213.1 -183.7)"/><path class="cls-9" d="M512.9,566.9H491.5V477.5h21.4v6.6a33.9,33.9,0,0,1,7.8-7.4,16.4,16.4,0,0,1,14.5-1.9,14.3,14.3,0,0,1,7.4,6.5,10.4,10.4,0,0,1,1,4.7,11.8,11.8,0,0,1-.7,4.3,9.6,9.6,0,0,1-2,3.4,7.7,7.7,0,0,1-2.9,2.2,7.8,7.8,0,0,1-3.6.8,7.7,7.7,0,0,1-4.2-1,16.6,16.6,0,0,1-3-2.2,27.6,27.6,0,0,0-2.7-2.3,5.8,5.8,0,0,0-3.5-1,3.1,3.1,0,0,0-2.1,1.1,15.9,15.9,0,0,0-2.1,2.7,36.5,36.5,0,0,0-2.1,4c-.6,1.5-1.3,3-1.8,4.6Z" transform="translate(-213.1 -183.7)"/><path class="cls-9" d="M572.7,568a30.4,30.4,0,0,1-14-3.3,34.2,34.2,0,0,1-11-9.1,44.2,44.2,0,0,1-7.3-13.6,53.8,53.8,0,0,1-2.6-16.8,59.5,59.5,0,0,1,2.6-17.9,44.7,44.7,0,0,1,7.3-14.1,33.6,33.6,0,0,1,11-9.3,30,30,0,0,1,13.9-3.3,31.6,31.6,0,0,1,14,3.2,34.4,34.4,0,0,1,11.1,9,42.3,42.3,0,0,1,7.3,13.4,49.2,49.2,0,0,1,2.7,16.5,55.9,55.9,0,0,1-2.7,17.6,46.5,46.5,0,0,1-7.3,14.4,35.4,35.4,0,0,1-11.1,9.7A27.7,27.7,0,0,1,572.7,568Zm2.2-10.3a6.8,6.8,0,0,0,4.9-2.3,20.6,20.6,0,0,0,3.8-6.1,46.2,46.2,0,0,0,2.5-8.8A60.3,60.3,0,0,0,587,530a123.5,123.5,0,0,0-.9-15.3,56.6,56.6,0,0,0-2.9-12.4,22.9,22.9,0,0,0-5.3-8.5,11,11,0,0,0-8-3.1,5.8,5.8,0,0,0-4.3,2.2,21.3,21.3,0,0,0-3.7,6,45.1,45.1,0,0,0-2.5,8.7,50.3,50.3,0,0,0-1,10.4,105.9,105.9,0,0,0,1.1,15.3,52.5,52.5,0,0,0,3.3,12.6,24.6,24.6,0,0,0,5.2,8.6A9.3,9.3,0,0,0,574.9,557.7Z" transform="translate(-213.1 -183.7)"/><path class="cls-9" d="M653.5,519.7a17.3,17.3,0,0,0-.6-4.7,13.4,13.4,0,0,0-1.5-3.4,7.6,7.6,0,0,0-2.3-2.1,4.8,4.8,0,0,0-2.6-.7,13.2,13.2,0,0,0-3.1.5,27.6,27.6,0,0,0-3.7,1.6,20.6,20.6,0,0,0-3.9,2.4,36.8,36.8,0,0,0-3.8,3.1v50.5H611V498h21v5.4a32.3,32.3,0,0,1,10.3-5.2,38.7,38.7,0,0,1,11.1-1.6,19.7,19.7,0,0,1,8,1.6,20.8,20.8,0,0,1,6.7,4.5,24.2,24.2,0,0,1,4.6,6.7,20.8,20.8,0,0,1,1.7,8.2v49.3H653.5Z" transform="translate(-213.1 -183.7)"/><path class="cls-9" d="M739.1,566.7H718.5v-5.4l-3.3,2.6a21.2,21.2,0,0,1-3.6,2.1,23.7,23.7,0,0,1-4.5,1.5,34.5,34.5,0,0,1-6,.5,23.7,23.7,0,0,1-8.3-1.4,18.3,18.3,0,0,1-6.4-3.7,15.1,15.1,0,0,1-4-5.6,17.4,17.4,0,0,1-1.4-6.9,16.4,16.4,0,0,1,1.5-7.1,20.3,20.3,0,0,1,4-5.7,31.3,31.3,0,0,1,6-4.5,51.1,51.1,0,0,1,7.4-3.7q3.9-1.6,8.1-3l8.3-2.7,2.2-.5v-6.8a21.5,21.5,0,0,0-.6-5.5,12.8,12.8,0,0,0-1.8-3.7,6.6,6.6,0,0,0-2.9-2.1,10.6,10.6,0,0,0-3.7-.6,12.2,12.2,0,0,0-4.1.6,5.5,5.5,0,0,0-2.6,1.8,5.8,5.8,0,0,0-1.5,2.5,10.6,10.6,0,0,0-.4,3.1,15.8,15.8,0,0,1-.4,3.8,8.9,8.9,0,0,1-1.5,3.1,7.8,7.8,0,0,1-2.8,2.2,11.9,11.9,0,0,1-4.6.8,10,10,0,0,1-3.9-.7,8.7,8.7,0,0,1-3.1-1.8,9.5,9.5,0,0,1-2-2.8,9.8,9.8,0,0,1-.7-3.4,10.3,10.3,0,0,1,2.4-6.6,21.1,21.1,0,0,1,6.4-5.2,39.9,39.9,0,0,1,9.4-3.5,56.7,56.7,0,0,1,23.7.1,25.4,25.4,0,0,1,8.6,3.8,13.8,13.8,0,0,1,5,5.8,17.3,17.3,0,0,1,1.7,7.6Zm-20.6-35.1a64,64,0,0,0-5.9,2.9,37.7,37.7,0,0,0-5.5,3.7,19.7,19.7,0,0,0-4,4.2,8.4,8.4,0,0,0-1.5,4.7,11.1,11.1,0,0,0,.5,3.7,9.8,9.8,0,0,0,1.4,3.1,9.1,9.1,0,0,0,1.9,2,4.6,4.6,0,0,0,2.4.8,9.8,9.8,0,0,0,5.1-1.6,62.1,62.1,0,0,0,5.6-3.8Z" transform="translate(-213.1 -183.7)"/><path class="cls-9" d="M793.9,563a34.4,34.4,0,0,1-8.5,3.8,33,33,0,0,1-9.1,1.4,26.5,26.5,0,0,1-8.5-1.3,28.9,28.9,0,0,1-7.6-3.4,32.8,32.8,0,0,1-6.5-5.3,32,32,0,0,1-4.9-6.7,33.6,33.6,0,0,1-3.2-7.8,29.4,29.4,0,0,1-1.1-8.4,28.4,28.4,0,0,1,3-12.6,37.6,37.6,0,0,1,8.3-10.9,40.4,40.4,0,0,1,12.3-7.6,41.1,41.1,0,0,1,20.9-2.5,31.9,31.9,0,0,1,4.9,1.2V476.7l21.2-5.3v95.3H793.9Zm0-40a15.2,15.2,0,0,0-1.1-5.7,16.5,16.5,0,0,0-2.8-4.4,14.8,14.8,0,0,0-3.9-2.8,10.5,10.5,0,0,0-4.5-1,10.2,10.2,0,0,0-5.5,1.7,14.8,14.8,0,0,0-4.6,4.7,25.5,25.5,0,0,0-3.1,7.3,32.8,32.8,0,0,0-1.2,9.1,41.7,41.7,0,0,0,1.3,10.1,33.7,33.7,0,0,0,3.6,8.6,21.4,21.4,0,0,0,5.3,5.8,10.8,10.8,0,0,0,6.5,2.2l2.6-.3a14.8,14.8,0,0,0,2.7-1,12.8,12.8,0,0,0,2.5-1.5,10.4,10.4,0,0,0,2.2-1.9Z" transform="translate(-213.1 -183.7)"/><path class="cls-9" d="M858,568a32.3,32.3,0,0,1-15.6-4,37.6,37.6,0,0,1-12.3-10.9,50.8,50.8,0,0,1-8.1-16.3,66.9,66.9,0,0,1-3-20.3,73,73,0,0,1,3-21.5,53.6,53.6,0,0,1,8.1-17,38.2,38.2,0,0,1,12.3-11.1,30.6,30.6,0,0,1,15.5-4,32.2,32.2,0,0,1,15.6,3.9,37.6,37.6,0,0,1,12.4,10.8,53.1,53.1,0,0,1,8.2,16.1,64.3,64.3,0,0,1,3,19.9,72.2,72.2,0,0,1-3,21.1,59,59,0,0,1-8.2,17.3,41.4,41.4,0,0,1-12.3,11.7A30.5,30.5,0,0,1,858,568Zm2.5-12.4a7.1,7.1,0,0,0,5.4-2.7,22.5,22.5,0,0,0,4.2-7.4,48,48,0,0,0,2.8-10.6,72.9,72.9,0,0,0,1.1-12.6,174.1,174.1,0,0,0-1-18.3,72.6,72.6,0,0,0-3.3-15,27.7,27.7,0,0,0-5.9-10.2,11.9,11.9,0,0,0-8.9-3.8q-2.5,0-4.8,2.7a22.3,22.3,0,0,0-4.1,7.2,54.8,54.8,0,0,0-2.9,10.5,71.5,71.5,0,0,0-1.1,12.4,120.3,120.3,0,0,0,1.3,18.5,73.8,73.8,0,0,0,3.6,15.2,33.2,33.2,0,0,0,5.8,10.3A10.4,10.4,0,0,0,860.5,555.6Z" transform="translate(-213.1 -183.7)"/><path class="cls-9" d="M289.4,639.1V578.9h6.7v60.2Z" transform="translate(-213.1 -183.7)"/><path class="cls-9" d="M345.5,635a29.5,29.5,0,0,1-1.2,8.9,15.6,15.6,0,0,1-3.9,6.4,18.4,18.4,0,0,1-7.2,3.9,39.1,39.1,0,0,1-10.6,1.5l-2.1-4.9a42.8,42.8,0,0,0,9.2-1.1,11.7,11.7,0,0,0,5.6-2.6,9,9,0,0,0,2.9-4.5,26,26,0,0,0,.7-6.7v-2.3a25.1,25.1,0,0,1-5.6,4.5,16.9,16.9,0,0,1-14.3.6,14.3,14.3,0,0,1-5.1-4.1,20.5,20.5,0,0,1-3.5-7.1,38.9,38.9,0,0,1-1.2-10.3,36.8,36.8,0,0,1,1.3-10.5,23.4,23.4,0,0,1,3.7-7.6,15.8,15.8,0,0,1,5.4-4.6,15.2,15.2,0,0,1,6.6-1.5,14.9,14.9,0,0,1,7.3,1.6,20.5,20.5,0,0,1,5.4,4.4v-5.1h6.6Zm-6.6-29.7a15.4,15.4,0,0,0-5-4.8,13.4,13.4,0,0,0-7.2-2,9.2,9.2,0,0,0-8.4,4.7c-1.8,3.2-2.7,7.8-2.7,14s1,10.1,3,13a9.6,9.6,0,0,0,8.4,4.3,13.5,13.5,0,0,0,6.6-1.7,19.9,19.9,0,0,0,5.3-4.8Z" transform="translate(-213.1 -183.7)"/><path class="cls-9" d="M360.1,639.1V580l6.5-3.6v62.7Z" transform="translate(-213.1 -183.7)"/><path class="cls-9" d="M415.7,615.2c0,.8-.1,1.4-.1,2a7.7,7.7,0,0,1-.2,1.5h-30c.3,4.9,1.5,8.8,3.7,11.6a10.6,10.6,0,0,0,8.8,4.2,16.5,16.5,0,0,0,6.7-1.1,31.2,31.2,0,0,0,5.8-3.2l3,4.7-3.8,2.2a23,23,0,0,1-3.7,1.6,26,26,0,0,1-4,1,32.3,32.3,0,0,1-4.6.3,18.5,18.5,0,0,1-6.4-1.2,14.4,14.4,0,0,1-5.9-4,21.5,21.5,0,0,1-4.4-7.3,31.1,31.1,0,0,1-1.7-11.2,29.1,29.1,0,0,1,1.4-9.7,20.4,20.4,0,0,1,3.9-7.3,16.8,16.8,0,0,1,5.9-4.7,16.4,16.4,0,0,1,7.4-1.6,17.8,17.8,0,0,1,7.8,1.6,15.1,15.1,0,0,1,5.7,4.6,20.5,20.5,0,0,1,3.5,7.1A31.4,31.4,0,0,1,415.7,615.2Zm-6.1-1.7a20.7,20.7,0,0,0-3.3-10.9c-1.9-2.7-4.9-4.1-8.8-4.1a10.3,10.3,0,0,0-8.3,3.7c-2.1,2.4-3.4,6.2-3.8,11.3Z" transform="translate(-213.1 -183.7)"/><path class="cls-9" d="M454.8,627.3a13.1,13.1,0,0,1-1.3,5.8A12,12,0,0,1,450,637a16.4,16.4,0,0,1-5,2.3,21.2,21.2,0,0,1-5.7.7,22,22,0,0,1-8.6-1.6,27.5,27.5,0,0,1-7.3-4.1l3.8-4.8a20.3,20.3,0,0,0,5.8,3.7,16.1,16.1,0,0,0,6.5,1.3q4.7,0,6.9-1.8a6.4,6.4,0,0,0,2.2-5.1,4.9,4.9,0,0,0-.6-2.5,5.2,5.2,0,0,0-1.8-2.2,17.7,17.7,0,0,0-3.2-2.2c-1.4-.7-3.1-1.5-5.1-2.3l-5.8-2.8a21.7,21.7,0,0,1-4-2.9,9.4,9.4,0,0,1-2.2-3.5,13.2,13.2,0,0,1-.8-4.7,10.5,10.5,0,0,1,1.1-4.7,11.2,11.2,0,0,1,2.9-3.6,11.8,11.8,0,0,1,4.4-2.4,21.2,21.2,0,0,1,5.7-.8,23.7,23.7,0,0,1,8.3,1.3,21.8,21.8,0,0,1,6.2,3.5l-3.6,4.7a21.6,21.6,0,0,0-5.2-3,15.9,15.9,0,0,0-6.1-1,9.1,9.1,0,0,0-5.6,1.5,5.3,5.3,0,0,0-1.9,4.1,6.2,6.2,0,0,0,.5,2.5,5.6,5.6,0,0,0,1.6,2,16.7,16.7,0,0,0,3.1,2l4.8,2.3,5.7,2.7a22.2,22.2,0,0,1,4.2,2.9,9.8,9.8,0,0,1,2.7,3.7A12.9,12.9,0,0,1,454.8,627.3Z" transform="translate(-213.1 -183.7)"/><path class="cls-9" d="M475.3,581.3a4.3,4.3,0,0,1-1.4,3.2,4.2,4.2,0,0,1-3.1,1.3,4.7,4.7,0,0,1-3.4-1.3,4.2,4.2,0,0,1-1.3-3.2,4.4,4.4,0,0,1,1.3-3.3,4.8,4.8,0,0,1,3.4-1.4,4.3,4.3,0,0,1,3.1,1.4A4.5,4.5,0,0,1,475.3,581.3Zm-7.9,57.8V593.9H474v45.2Z" transform="translate(-213.1 -183.7)"/><path class="cls-9" d="M514.5,639.1v-5.5a26.4,26.4,0,0,1-5.8,4.5,16.7,16.7,0,0,1-8.3,1.9,18.8,18.8,0,0,1-5.3-.7,13.5,13.5,0,0,1-4.6-2.4,11.4,11.4,0,0,1-3.3-4.4,16,16,0,0,1-1.3-6.9,13.4,13.4,0,0,1,5.3-11.1,18.6,18.6,0,0,1,5.5-2.6,28.2,28.2,0,0,1,6.5-.8,26.1,26.1,0,0,1,6.4.8,23,23,0,0,1,4.9,1.8v-5.3c0-6.6-3.3-9.9-9.8-9.9a21.7,21.7,0,0,0-6.5.9,24.1,24.1,0,0,0-5.7,2.5l-2.5-5.2a28.3,28.3,0,0,1,6.9-2.7,32,32,0,0,1,8.3-1c4.9,0,8.7,1.1,11.6,3.4s4.2,6,4.2,11.2v31.5Zm0-20.2a19.2,19.2,0,0,0-4.9-1.9,25,25,0,0,0-6.7-.7c-3.3,0-5.9.8-7.7,2.3s-2.8,3.7-2.8,6.6.8,5.8,2.5,7.3a9.6,9.6,0,0,0,6.6,2.3,15,15,0,0,0,7.7-2,18.8,18.8,0,0,0,5.3-4.8Z" transform="translate(-213.1 -183.7)"/><path class="cls-9" d="M584.6,639.1v-5.5a27.6,27.6,0,0,1-5.6,4.5,16.9,16.9,0,0,1-14.3.6,14.3,14.3,0,0,1-5.1-4.1,20.5,20.5,0,0,1-3.5-7.1,38.9,38.9,0,0,1-1.2-10.3,36.8,36.8,0,0,1,1.3-10.5,23.4,23.4,0,0,1,3.7-7.6,15.8,15.8,0,0,1,5.4-4.6,15.2,15.2,0,0,1,6.6-1.5,14.9,14.9,0,0,1,7.3,1.6,20.5,20.5,0,0,1,5.4,4.4V580l6.6-3.6v62.7Zm0-33.8a15.4,15.4,0,0,0-5-4.8,13.4,13.4,0,0,0-7.2-2,9.2,9.2,0,0,0-8.4,4.7c-1.8,3.2-2.7,7.8-2.7,14s1,10.1,3,13a9.6,9.6,0,0,0,8.4,4.3,13.5,13.5,0,0,0,6.6-1.7,21.6,21.6,0,0,0,5.3-4.8Z" transform="translate(-213.1 -183.7)"/><path class="cls-9" d="M639.8,615.2a12.1,12.1,0,0,1-.1,2,7.7,7.7,0,0,1-.2,1.5h-30c.3,4.9,1.5,8.8,3.7,11.6a10.6,10.6,0,0,0,8.9,4.2,16.3,16.3,0,0,0,6.6-1.1,28.3,28.3,0,0,0,5.8-3.2l3,4.7-3.8,2.2a19.7,19.7,0,0,1-3.7,1.6,26,26,0,0,1-4,1,32.3,32.3,0,0,1-4.6.3,18.5,18.5,0,0,1-6.4-1.2,15.1,15.1,0,0,1-5.9-4,21.5,21.5,0,0,1-4.4-7.3,31.1,31.1,0,0,1-1.7-11.2,29.1,29.1,0,0,1,1.4-9.7,20.4,20.4,0,0,1,3.9-7.3,17.8,17.8,0,0,1,5.9-4.7,16.7,16.7,0,0,1,7.4-1.6,17.8,17.8,0,0,1,7.8,1.6,15.1,15.1,0,0,1,5.7,4.6,20.5,20.5,0,0,1,3.5,7.1A31.4,31.4,0,0,1,639.8,615.2Zm-6-1.7c-.3-4.5-1.4-8.1-3.4-10.9s-4.9-4.1-8.8-4.1a10.4,10.4,0,0,0-8.3,3.7c-2.1,2.4-3.4,6.2-3.8,11.3Z" transform="translate(-213.1 -183.7)"/><path class="cls-9" d="M708.2,637.3a23.3,23.3,0,0,1-11.5,2.7,22,22,0,0,1-10-2.3,24.1,24.1,0,0,1-7.7-6.5,30.1,30.1,0,0,1-4.9-9.8,40.7,40.7,0,0,1-1.7-12.3,42,42,0,0,1,1.8-12.5,31.2,31.2,0,0,1,5-9.8,23.2,23.2,0,0,1,7.8-6.5,20.8,20.8,0,0,1,10-2.4c8.1,0,14.5,3.2,19.1,9.7l-5.3,4a21.7,21.7,0,0,0-6-5.8,15.8,15.8,0,0,0-8-1.8,14.2,14.2,0,0,0-7.1,1.9,16,16,0,0,0-5.6,5.1,25.6,25.6,0,0,0-3.7,7.8,39.9,39.9,0,0,0,0,20.2,25.1,25.1,0,0,0,3.7,7.9,20,20,0,0,0,5.7,5.2,14.7,14.7,0,0,0,7.1,1.8,17.1,17.1,0,0,0,8.4-2,23.9,23.9,0,0,0,6.5-5.9l4.6,4.1A27.1,27.1,0,0,1,708.2,637.3Z" transform="translate(-213.1 -183.7)"/><path class="cls-9" d="M751.3,600.6a14.2,14.2,0,0,0-6.8-1.7,8.2,8.2,0,0,0-7.2,3.6c-1.7,2.4-2.6,5.8-2.6,10.1v26.5h-6.5V593.9h6.5v5.6a12.7,12.7,0,0,1,4.6-4.6,11.8,11.8,0,0,1,6.6-1.9,25,25,0,0,1,4.2.3,15.8,15.8,0,0,1,2.8.8Z" transform="translate(-213.1 -183.7)"/><path class="cls-9" d="M771.4,581.3a4.2,4.2,0,0,1-1.3,3.2,4.2,4.2,0,0,1-3.1,1.3,4.5,4.5,0,0,1-3.4-1.3,4.3,4.3,0,0,1-1.4-3.2,4.5,4.5,0,0,1,1.4-3.3,4.6,4.6,0,0,1,3.4-1.4,4.3,4.3,0,0,1,3.1,1.4A4.4,4.4,0,0,1,771.4,581.3Zm-7.8,57.8V593.9h6.5v45.2Z" transform="translate(-213.1 -183.7)"/><path class="cls-9" d="M812.7,627.3a11.8,11.8,0,0,1-1.3,5.8,12,12,0,0,1-3.5,3.9,15.8,15.8,0,0,1-4.9,2.3,24.1,24.1,0,0,1-14.4-.9,27.5,27.5,0,0,1-7.3-4.1l3.8-4.8a19.5,19.5,0,0,0,5.9,3.7,15.6,15.6,0,0,0,6.4,1.3q4.6,0,6.9-1.8a6.4,6.4,0,0,0,2.2-5.1,6.2,6.2,0,0,0-.5-2.5,7.3,7.3,0,0,0-1.8-2.2,23.6,23.6,0,0,0-3.3-2.2c-1.4-.7-3-1.5-5-2.3a64.2,64.2,0,0,1-5.8-2.8,16.5,16.5,0,0,1-4-2.9,9.7,9.7,0,0,1-2.3-3.5,13.2,13.2,0,0,1-.8-4.7,10.5,10.5,0,0,1,1.1-4.7,11.2,11.2,0,0,1,2.9-3.6,12.2,12.2,0,0,1,4.5-2.4,19.9,19.9,0,0,1,5.6-.8,23.7,23.7,0,0,1,8.3,1.3,21.8,21.8,0,0,1,6.2,3.5l-3.6,4.7a21.6,21.6,0,0,0-5.2-3,15.6,15.6,0,0,0-6.1-1,8.8,8.8,0,0,0-5.5,1.5,5.1,5.1,0,0,0-2,4.1,6.2,6.2,0,0,0,.5,2.5,7,7,0,0,0,1.6,2,20.9,20.9,0,0,0,3.1,2l4.8,2.3,5.7,2.7a17.2,17.2,0,0,1,4.2,2.9,9.8,9.8,0,0,1,2.7,3.7A12.9,12.9,0,0,1,812.7,627.3Z" transform="translate(-213.1 -183.7)"/><path class="cls-9" d="M832.4,599.4v29.4c0,2,.3,3.4,1,4.2s1.8,1.2,3.6,1.2a17.2,17.2,0,0,0,3.4-.3,20,20,0,0,0,2.9-1l-.4,5.6a18.2,18.2,0,0,1-3.8,1.1,20.3,20.3,0,0,1-4.5.4c-2.9,0-5-.7-6.5-2.2s-2.2-4.2-2.2-8V599.4h-5.6v-5.5h5.6V580l6.5-3.6v17.5h11.2v5.5Z" transform="translate(-213.1 -183.7)"/><path class="cls-9" d="M891.2,616.2a32.2,32.2,0,0,1-1.5,10.2,25.7,25.7,0,0,1-4.2,7.5,19,19,0,0,1-6.3,4.6,20.8,20.8,0,0,1-15.5,0,18,18,0,0,1-6.2-4.4,22.9,22.9,0,0,1-4.1-7.4,31.3,31.3,0,0,1-1.5-10.2,28.6,28.6,0,0,1,1.6-10.1,21.4,21.4,0,0,1,4.2-7.4,18.4,18.4,0,0,1,14.1-6,21.9,21.9,0,0,1,7.7,1.4,16.8,16.8,0,0,1,6.1,4.4,20.7,20.7,0,0,1,4.1,7.3A31.1,31.1,0,0,1,891.2,616.2Zm-6.5.2q0-9-3.6-13.5a12.6,12.6,0,0,0-19.1,0c-2.3,3-3.5,7.5-3.5,13.5s1.2,10.5,3.5,13.5a12.2,12.2,0,0,0,19.1,0Q884.7,625.4,884.7,616.4Z" transform="translate(-213.1 -183.7)"/></g><g id="Arbol"><path class="cls-10" d="M465.1,310.1A16.7,16.7,0,0,0,467,304c.3-1.7.5-2-.4-3.4s-.3-.5-.1-1.5-.7-2-1.2-3.2.7-2.3.2-3.5-2-2.2-1.6-3.9,3.2-2.1.6-3.5a3.5,3.5,0,0,1-2-1.6,5.7,5.7,0,0,0-1.1-2.8,28.1,28.1,0,0,0-3.1.8c-1.6.4-3.3-.2-4.9-.2s-4.3.6-6.4-.2a12.1,12.1,0,0,0-2.5-.8,14.5,14.5,0,0,1-3-.5c-1.7-.5-1.7-2.3-1.8-3.9s1.9-.2,2.8-.9.9-2.2,2-2.5a3.8,3.8,0,0,0,2.5,1.5h1.1c1.3.4,2.5,1.7,3.5,2.5s1.4,1.7,2.5,1.6,2.2-3.3,2.2-4.7a1.8,1.8,0,0,0-2.1-.2c-.7-1.1-.4-2-.7-3.2l-.6-1.7-.8-.6c-.4-.4-.3-.6-.5-1.1l-.4-.8c-.2-.4-.2-.7.3-1.1s1.4-2.4,1-4.1-.8-1.4-2-1.5-1.1,0-2.1-1a13.1,13.1,0,0,1-2.6-4.6h.6a.9.9,0,0,0,1.5-.2,5.2,5.2,0,0,0,1.2-1.7,6.1,6.1,0,0,1,1.8-2.4c1.4,1.5,1.7-1,2.8-1.3,2.3,1.5,4.7,1.7,6.5-1s.6-3.2-1.5-3.5c2-1.7,2.9-3.7,1.4-6.1s-1.6-1-3.2-.8-1.8.9-2.7,1-1.5-1.1-2.2-2.3a5.8,5.8,0,0,0-1.7-1.8l-1.8-1.2a7.3,7.3,0,0,1-2.4-.7,19.5,19.5,0,0,0-1.2-6.3,1.8,1.8,0,0,0-1.6.2,8.9,8.9,0,0,0-3.1-1.1c-1.8,0-3.1,1.2-4.9.9a9.1,9.1,0,0,1-3.7-2.1,2.7,2.7,0,0,0-1.9-.8l-2.1-.7c-1.8-.5-2.9-1.8-4.7-2.4a9.6,9.6,0,0,0-2.9-.3,19.1,19.1,0,0,0-3.3.6l-3.2.2a5.2,5.2,0,0,0,1.1-1,15.4,15.4,0,0,1,1.9-1.7c.7-.4,1.5-.6,2.1-1a3.6,3.6,0,0,0,1.6-2.4c.2-1.3-.3-1.8-1-2.7s-1.2-3.8-3.1-3.7c-.1-2.2,1.1-3.6-.6-5.4s-2.1-1-3.2-1.8a3,3,0,0,1-1.2-1.3,7.2,7.2,0,0,0-1.1-1.9,19.9,19.9,0,0,0-2-2.1,6.2,6.2,0,0,0-1.7-1.1c-.7-.3-1.4.1-2.1-.1s-.7-.4-1.4-.9-.3-.2-1-.6-.6-.5-.9-.8l-1.1-1.1a9.8,9.8,0,0,1-1.7-2.3c-.5-.8-2-1.9-1.8-2.9l1.3-.6c-2.2.3-4.5-.9-6.7-.4-.5,1.9.1,3.2-1.6,4.8s-2.8,1.5-4.4.7-1-.7-1.8-.4-1,.7-1.5.9a7.5,7.5,0,0,1-2.6.4c-.7.1-2.8-.6-3.3-.3s-1.2,2.9-1.4,3.5-.2,3-1.6,2.8-.7-.6-.7-1.4-1.6.2-2.4-.1-1.9-2-2.9-3-2.8-1.2-3.5-2.4a7.3,7.3,0,0,0-.7-1.9c-1.1-1.6-2.4-.6-3.8.1a4.8,4.8,0,0,1-1.8.5.6.6,0,0,1-.6-.5c-.6-.1-1.1.1-1.6-.5s-.3-1.1-1-1.4a8.1,8.1,0,0,0-2.2,0c-2.2.1-1.7,1.1-2.4,2.8s-2.6.8-4.5.5-3.3.5-3.3-1.4c-1.2-.2-2.9,1.1-3.6,1.9s0,.5-.5.9a1.7,1.7,0,0,1-1.2.4c-1-.1-.7-1.2-1.5-1.5s-1,.2-1.5.1-.4-.4-.7-.4-2.2.4-3.4.4a3.6,3.6,0,0,1-1.8-.3c-.4-.3-.5-.8-.9-1s-2.1,1.7-2.2,2.6-.3,1.4,0,1.8.6-.2.8.4a16.2,16.2,0,0,1-1.9.4,13.4,13.4,0,0,0-1.8.7c-.3.1-.5.1-.7.3s.1,3.6-.3,4.6-1.3,2.9-2.2,2.9-.9-1.9-1.3-2.6-.6-.8-1.3-1.1-4.4-1.6-6.6-2.2a8.2,8.2,0,0,1-2.2-.2c-.1-1,.1-1.1-.9-1.3a12,12,0,0,1-3.3-.5c-.6-.3-.7-1.2-1.3-1.6s-1.2-.1-1.9-.3-.9-3.1-2.5-3.5-2.3.6-3.2.8-2.1-.2-2.8.6,1.6,1.3,1.7,2.7a6.6,6.6,0,0,1,0,1.4c-.1.4-.5.4-.6.9s0,1.1.7,1.8,1.8,1.7,1.2,2.5-1.8-.3-2.5-.1-.5.4-.7,1a4.3,4.3,0,0,1-2.7,2.4c-.9.5-1.1.2-.9,1.2s1.1,1.5,1,2.2-1.5,1.3-2.3,1.4-.1.6-.2.8-.7-.4-1.2-.3-.7.9-.9,1.2-.3,1.1-.6,1.4-.7,0-1.1.1c-2.5.7.3,1.7-.3,3.1a16.2,16.2,0,0,1-2.2,0c-.8.2-.9.7-1.3,1.4s-1,1.3-1.9,2-2.5,1.9-2.8,3.1.3,2.2,0,3.2-.4.7-.4,1.4.1.8-.1,1.3l-1,.8c-.8.8-.8,1.2-.8,2.4a14.7,14.7,0,0,0,.4,3.6,6.6,6.6,0,0,1,.1,2.4c-.2.7-.8.7-1.3,1a4.9,4.9,0,0,1-.4,5.1c.6.5,1.5.7,2.1,1.2a5.3,5.3,0,0,1,1.7,2.5,10.8,10.8,0,0,1,.6,4,3.2,3.2,0,0,0,2.3,2.8c.5.2,1.6.3,1.9.6s-.3,1.4-.5,1.9a10.4,10.4,0,0,0,0,2.5c.2.5,1,.5,1.6.8a9.2,9.2,0,0,0,2.1,1.3c.7.3,1.4,0,2.1.1s.8.6,1,1.5a6.2,6.2,0,0,0,.8,2.4l-2.2.7a16.7,16.7,0,0,1-5,.5,21.2,21.2,0,0,0-3.8.8c-1.5.6-1.9,2.3-3.1,3.3a1.2,1.2,0,0,1-1.4.9l-1.1.4c-.6.4-1.4,2.5-1.7,3.3s-.1,1.6-.4,2-.9.5-1.2,1a12.1,12.1,0,0,1-1,1.4c-1.2,1.2-2.8,1.9-3.8,3.4s-1,.1-2.4,1.1l-.6,1.1a3.9,3.9,0,0,1-2.8.1l-.9,1.5v2a5.5,5.5,0,0,1-1.2,1.9c-1,1.2-1.6,2.8-2.5,4.1s-1,1-1.4,1.7a18.6,18.6,0,0,0-1.1,1.9,11.6,11.6,0,0,0-1.4,2.4c-.4,1-.3,1-1,1.6s-1.1.3-.9,1.2a.9.9,0,0,1,.6-.3,56.1,56.1,0,0,1-.2,7.1l-.4-.8c-1.3.1,0,1.8.2,2.2s.8,2,1.9,2.2,2.1-1.1,3.2-1.9,2,.3,3.7.7a21,21,0,0,0,4-.2,1.1,1.1,0,0,0-.7,1.1c-.1.5.6.4.4.9s-1,.9-1.2,1.4.1.8-1,.9-1.2-.6-1.9-.5-.4.2-.9.9-.9,1-1,1.8-2.5-.4-3,.5.3,1.8.4,2.5,0,1.3.8,2.2.3,1.5.6,2.6H251c.2,1.1-.1,2,.8,2.9a2.9,2.9,0,0,0,2.2.7c.9.1,1.8-.2,2.4.5a4,4,0,0,1,.9,1.6c-1.2.6-1.9,3.6-.9,4.4-1.2.5-2.4.6-3.6,1s-.8.8-.5,1.6-1.9,1.7-1.3,2.6,2.3.2,3,0,1.8.1,2.9,1.3l.6.6c0,.2-.1.4-.1.6s.2,1,0,1.4-1.3.1-1.6.2a4.6,4.6,0,0,0-2.8,5.2c.1.4.3.6.3,1s-.2,1.3.1,1.8a14.7,14.7,0,0,0,1.3,1,4.2,4.2,0,0,0,2.2,1.5c-.2,1.1-.7,2.2-.9,3.4s-.1,1.7.3,2.2.9.5,1.5.8,3.9,2.1,2.3,4.1-1.7,2.1-1.7,4a4.6,4.6,0,0,0,1,3.2,5.5,5.5,0,0,0,3.6.5c1-.3,1.7-1.5,2.6-2s1.4.1,2.4.2a11.7,11.7,0,0,1,3.2.4c1.9.4,1.6-1.5,2.6-2.7s1.2-.3,2.2-.1a2.9,2.9,0,0,0,2.6-.3,5.6,5.6,0,0,0,1-2.4c.2-1,.4-1,1-1.6s.8-2.2,1.2-3.4a3.3,3.3,0,0,1,1.7-2.3c.5-.2,1.1.1,1.7,0s2.3-3.6,4.3-1.9,1.4,2.6,3.2,1.8,1.3-1.7,2.1-2,.5.1,1.1.6.7,0,.9.2.3.6.5.8a2.9,2.9,0,0,0,2.3,1c.3,1.1-.6,2.1-.5,3.2s1.6,2.1,2.8,2.3,2.3-.4,3.2-.1,1.5,2,1.9,2.8a1.9,1.9,0,0,0,1.2-.9l2.8-1.9c1.1-.6,1.1-.5,1.9.3s.8.4,1.8.7,1.7,1.1,3.2.7.7,0,1.6.4a18.7,18.7,0,0,1,2.2.7c.7.3,1.4.8,1.8.1s.1-1.8.2-2.2a16.7,16.7,0,0,1,.8-3c1,0,2.2.3,3.2-.2a15.4,15.4,0,0,0,1.7-1.9,5.3,5.3,0,0,1,2.3-1.7c2.1-.8,6.3,1,6.4-2.5.1-1-.8-1.8-.3-2.8a4.7,4.7,0,0,1,1.8-1.6c.7,1.1,1.3,2.3,2,3.6l1.4,2.2a2.1,2.1,0,0,0,.4.6l.4.5.4.7c0,.1.1.2.1.4l.2.6a2.2,2.2,0,0,1,.3,1,.8.8,0,0,1,.1.4v.6l.2,1.3q.3,1.2.6,2.7a11.7,11.7,0,0,0,1.3,2.8,29.8,29.8,0,0,0,2,2.9l.3.8c0,.2.1.3.2.5l.2.4a31.3,31.3,0,0,0,1.5,3.2c1,2,2.1,3.8,2.8,5.6l.3.7.2.7.5,1.6.3.9v1l.2,1.1c.2,1.4.4,2.6.6,3.9s-.3,1.9-.5,3-.1,1.1-.2,1.7l-.2,1.7-.3,3.4c-.2,2.3-.3,18.9-.3,21.3-.1.2-.1,0-.1,0h-.3c0,.1-.1-.2-.1,0s-.5-1-.7,0-.5-1.4-.3,0h2.3s0-.5.1,0,.2-.7.4,0,.7-1.4,1.6,0h9.7l-.2-18.9v-.7a4.9,4.9,0,0,0-.1-1.2,15.5,15.5,0,0,0-.4-2.1v-5.8a16.2,16.2,0,0,0-.1-2.1c0-.4-.1-.8-.1-1.2a2.4,2.4,0,0,1-.2-.8c0-1,.1-2,.2-3s.7-2.5,1-3.7l1.2-3.7,1.2-1.4.6-.7.7-.8c1-1,2-2,3.1-2.9s4.2-3.8,6.4-5.6l.8-.6.7-.5,1.9-1,.5-.3.5-.3.9-.6,1.9-1.3,1.8-1.4,1.7-1.5,3.2-2.8,3.3-2.9,1.6-1.4a7.5,7.5,0,0,1,1.5-.9l1-.4.3,1.5h0c-1,.4-2-.3-3,0s-1.5,3-1.2,4.1,3.9.7,5.5.8,1.6.8,2.7,1.3,2.2.3,3.3.7a8.9,8.9,0,0,0,3.6.4,7.3,7.3,0,0,1-.2,3.6,8.2,8.2,0,0,0-.6,2.5c1.2,1,4.4,1.8,5.8.9a2.7,2.7,0,0,0,1-2.1,5.4,5.4,0,0,0-.8-3.7,2.3,2.3,0,0,0-1.7-.7c-1.2-.5-1.3-.4-.9-1.8s1.4-2.3,2-3.4.4-.4.5-1-.9-2.6-1.6-3.4h8a16.3,16.3,0,0,1,3.1.1c0,.1.1.2.2.4,2.1,1,3,3.5,5.7,3.1s1.7-1.1,3-.4a5.8,5.8,0,0,1,2.1,2.8c.5,1.6-.7,3.2,1.3,3.9s2.3-.1,3,.4,1.2,3.8,1.4,4.5a7.7,7.7,0,0,1-.1,3.7c-.1.8-.3,1.3-.3,1.7H444c-.7,0-1.3.5-1.9.5s-1-1.1-1.7-.9-2.6,1.4-3.3.6a1.3,1.3,0,0,1-1.1,1.6c-.2,0-.4-.4-.7-.5s-.8.2-1.2.1-1.2-.7-2-.5-1.6,1.5-2.3,2.3c1-.9.6-.7.9.7s1,1.2,2.3,1.1a12.2,12.2,0,0,1,2.7,0c1.1.2,1.4,1.7,2.3,2.4s1.7.3,2.8,0,1,.5,1.9.8.9-.4,1.3-.4h1.3l1.3.3c.3-.2.4-.6.7-.7s1,1.2,1.7,1.8a2.9,2.9,0,0,0,2.8.8,3.9,3.9,0,0,0,1.9-2.1c.3-.6.4-.5.1-1.3a7.5,7.5,0,0,0-.6-1.3l-1.9-1.4c-.6-.5-1.4-.4-2-.7s-.8-1.2-1.3-1.8l-.5-.5h1a23.4,23.4,0,0,0,2.6.4c2.6,0,2.2-3.7,4.3-3.9,0,1,.5,1.3,1.3.9a12.4,12.4,0,0,0,2.9-3.9,1.7,1.7,0,0,0-1.2-1.8,5.4,5.4,0,0,1-1.1-2.7,7.3,7.3,0,0,1,.6-4.6c.2-.9,1-1.3,2.3-1.2a9.2,9.2,0,0,0,5.3-3.9c-1.4-.8-1.2-1.9-.4-3.5s2-1.6,2.6-2.8-2-1.3-2.2-2.6a7,7,0,0,1,0-2.5c.2-.9.5-1,1-1.9a2.4,2.4,0,0,0,.2-2c-.2-.5-.9-.8-1.1-1.2s.5-2.7-.4-3.7a6.9,6.9,0,0,0,2.1-5.3,6.3,6.3,0,0,1-2.6-2c1.4.3.2-1.8-.1-2.3s-1.1-2.8.1-4.3,2.6-.8,1.9-3-1.9-2.6-2.1-4.1,1.9-.8,2.5-1.3a2.1,2.1,0,0,0,.4-1.1c0-.4-.2-.8,0-1.1l.3-.2a3.2,3.2,0,0,0,1.4-1.4C467.8,306.3,465.8,309.2,465.1,310.1Zm-89.9-56.8a14.3,14.3,0,0,0,.4-2.2,3.6,3.6,0,0,0,1.9.5c1.2,0,3.2-.4,4.3.3a3.1,3.1,0,0,1,1,1.3l-1.3,2-1.6,2.4-1,1.8a7,7,0,0,1-2.5-.1l-2.5-.6.6-2.3C374.7,255.3,375,254.3,375.2,253.3Zm-51.3,76.6c-.3-.5-.3-1.2-.6-1.8s-1.6-1.2-2.6-1.8-.6-2.1.2-3.5,0-1.5.5-1.9.9.1,1.3-.1.5-.7,1-.9,1.7.3,2.5-.1c0-1.9-1-3.6-1.8-5.3a2.5,2.5,0,0,1,1.5-.1l.2.5a7.3,7.3,0,0,0,1,1.3l1,1q1.9,1.8,3.6,3.6a8.6,8.6,0,0,1,.7,1l.6,1,1.3,2.2c.8,1.6,1.7,3.1,2.5,4.6a45.4,45.4,0,0,1,2.1,4.5c0,.2.1.3.1.5s-1.9.7-2.4.4-1.1-2.7-1.7-3.5-3.4-.2-4.9-.2-.8-1.6-2.1-1.8S325.3,330,323.9,329.9Zm18.2,3a45.2,45.2,0,0,0-2.5-4.9c-.9-1.5-1.8-3-2.8-4.5l-1.3-2.2a8.3,8.3,0,0,1-.8-1.2,5.2,5.2,0,0,0-1-1.1,45.1,45.1,0,0,0-3.9-3.7l-1-.8a1.8,1.8,0,0,1-.5-.7c.3-.5.4-1.1,1.1-1.3s1,.4,1.6-1.2a8,8,0,0,1,1.6-3.2c-.8-.3-2.1-.7-1.8-1.7s2.9-2.2,3.7-2.7c-.9-.9-2.6-.8-3.8-1.1a22.9,22.9,0,0,1-2.3-1,4.1,4.1,0,0,0-2.2.1.9.9,0,0,1-.7.3c-1-.3-1.4-1.7-1.2-2.7s.4-1.1,1.4-1.3h2a3.1,3.1,0,0,0,2.1-.7c1.7-.7,2.4.7,3.9,1.1h.5v.8a2.9,2.9,0,0,0,.2.9,19.1,19.1,0,0,0,1,3.4l.6,1.6a7.5,7.5,0,0,1,.5,1.6,8.8,8.8,0,0,1,.5,1.5,11.3,11.3,0,0,1,.4,1.5c.5,2,.7,4.3,1.2,6.6l1.1,6.6.3,1.7a8.5,8.5,0,0,1,.4,1.7c.2,1.1.5,2.2.8,3.3s.7,2.5,1,3.7h0C342.2,333.2,342.2,333,342.1,332.9Zm5.8-25.5a2.8,2.8,0,0,0,.1.9c0,2,.1,4,.1,6a8.3,8.3,0,0,0-.4-1.5c0-.3-.1-.5-.1-.7a2.2,2.2,0,0,1-.1-.8,7.8,7.8,0,0,1-.2-1.6L347,308v-.8c0-.3-.1-.5-.1-.8v-.2A4.3,4.3,0,0,0,347.9,307.4ZM377.6,340l.5-1.2a21.7,21.7,0,0,1-.7,2.4c-.4.8-.7,1.7-1.1,2.6s-.9,1.7-1.3,2.6v.3l-.2.4a3.6,3.6,0,0,0-.4.9c-.2.6-.3,1.1-.4,1.5s-.2.3-.2.5l-.3.4a3.7,3.7,0,0,1-.7,1.2l-.4.9-.3.6a7.5,7.5,0,0,0-.7,1.2,6.1,6.1,0,0,1-.7,1l-.4.5-.4.6-.4.4a.8.8,0,0,0,.2-.4l.8-1.6,1.3-3.1c.4-1,.8-1.9,1.3-2.9l1.5-2.8C375.5,344,376.6,342.1,377.6,340Zm-1.9-8-1,3.3-.3.6v.3l-.2.4-.6,1.4-3.2,5.6-1.7,3-1.5,3.1c-.5,1-.9,2-1.4,2.9a.4.4,0,0,0-.1.3c.1-1,.2-2,.4-3s.6-4.6,1.1-6.7l1.5-6.8c.4-1.8.7-3.6,1-5.4l2.3.8a1.4,1.4,0,0,0,1.5-.7.8.8,0,0,1,1,.1,1.9,1.9,0,0,0,1.3-.1l.3.2Zm-37.3-30.4a19.9,19.9,0,0,0,4.2.4h.8a5.7,5.7,0,0,0-.1,1.3c0,1.2.1,2.3.2,3.5a2.8,2.8,0,0,0,.1.9v.8c.1.5.1,1,.2,1.6a10.3,10.3,0,0,0,.1,1.7c0,.3.1.6.1.9s.1.6.2.8.4,2.2.5,3.2a8.9,8.9,0,0,1,.2,1.5v1.6a10.9,10.9,0,0,1,.1,1.8c.1.3.1.6.2,1v.8l.3,1.7v.7a2.2,2.2,0,0,1,.1.8,15.1,15.1,0,0,1,.2,3v1.5a25.8,25.8,0,0,1-.8-2.6l-.9-3.2c-.1-.5-.3-1-.4-1.5l-.3-1.6-1.4-6.7c-.5-2-.8-4.3-1.4-6.6l-.6-1.7a10.9,10.9,0,0,0-.5-1.7c-.2-.5-.5-1-.7-1.6l-.6-1.5-.4-.9ZM387,336c0-.1.1-.1.1-.2h.1a.4.4,0,0,1-.1.3l-.2.6C386.9,336.5,387,336.2,387,336Zm-58.9-81.4a2.1,2.1,0,0,1-1.5.4v-1Zm72.5,5.3h-.1a2.4,2.4,0,0,1-2.3.1,11.7,11.7,0,0,1-2.8-1.7,2,2,0,0,0,1-.8c.7-1,.6-2.4,1.1-3.4s.9-1,1.2-1.7a1.4,1.4,0,0,0,.2-.6l.9.4c1.2.4,3.2-.1,3.8.8a3.9,3.9,0,0,1,.6,1.3l-.9.9A10.6,10.6,0,0,0,400.6,259.9Zm-16.1-2.2.2.3-3.8,1,.3-.6,1.5-2.5.6-1A6,6,0,0,0,384.5,257.7Zm-22.7,70.2c-.5,4.4-.6,8.7-1,12.8,0,.5-.1,1-.1,1.5l-.2,1.5-.4,3.2-.2,1.6c-.1.4-.3.8-.4,1.2l-.9,2.7-.2.7a1.4,1.4,0,0,0-.2.6c-.2.4-.3.9-.5,1.3a37.1,37.1,0,0,0-1.5,4l-.5-2.3-.3-1.6a8.8,8.8,0,0,1-.2-1.6c-.2-1.1-.3-2.4-.5-3.7a35.3,35.3,0,0,1-.5-6.6v-8.8a12.1,12.1,0,0,0-.1-1.9c-.1-1.3-.3-2.4-.4-3.5v-.8l-.4-.9c-.1-.7-.6-1.3-.6-1.9h0l1.9-6a4.3,4.3,0,0,1,2.2.2c1,.3,2.3,1.7,3.3,1.6s1-1,1.9-.5l.9.8C362.4,323.7,362.1,325.8,361.8,327.9Zm-8.7-63.5v1.2a.4.4,0,0,1-.1.3,3.5,3.5,0,0,0-.1.6l-.3-.6a19.6,19.6,0,0,0-1.2-2.1c0-.4.1-.7.1-1a2.6,2.6,0,0,0,1.4.3h.2A5.6,5.6,0,0,1,353.1,264.4Zm-40.7-28.5c1,.4,1.8,0,2.8.5s1.2.8,2.2.5l.7-.5c.3.5.6.5,1.2.8a6.6,6.6,0,0,1,3.6,2.5c.7,1.1.9,1.8,0,2.8a.8.8,0,0,1-.4.4l-2.2-.9a3.8,3.8,0,0,0-1.5-.9H318l-.4-.2a10.4,10.4,0,0,1-4.9-4.1,5.9,5.9,0,0,1-.4-.8Zm119.3,36.4c.4,2-1,2-2.3,3.3a1.7,1.7,0,0,1-2.4.7,41,41,0,0,1-5-5.2h0a3.2,3.2,0,0,1,1.3-.2,2.9,2.9,0,0,0-1.3.1.1.1,0,0,1-.1.1c0-.1-.1-.2-.2-.3a11.5,11.5,0,0,0-2.7-2.7,11.7,11.7,0,0,1-3-1.9,35,35,0,0,1-2.7-3.1c0-.1.1-.1.1-.2a12.5,12.5,0,0,1,.8-1.2l1.1-1a33.8,33.8,0,0,1,4.8-3.3l3.4-1.7c1,1.3,2.5,2.3,3.5,3.6a10.7,10.7,0,0,1,1.3,6.1c-.5,1.3-.4,2.2.5,2.8a2.4,2.4,0,0,0,1.6.9A5.4,5.4,0,0,1,431.7,272.3Zm-8.4-16.9-3.4,1.6a27.2,27.2,0,0,0-5.1,3.2,5.2,5.2,0,0,0-1.1,1l-1,1.2c0,.1,0,.1-.1.2a5.2,5.2,0,0,0-1.5-.7,8.6,8.6,0,0,0-3.9,0l-2.5-1.1a6.2,6.2,0,0,0-3.2-.9,11.5,11.5,0,0,1,2.3-4.2l.7-.8c.6.5,1.1.4,1.9.4h1.8c.7-.1,1.3-.5,1.9-.4s1.5,1.6,2.7,1.8,2.4-.7,3.1-1.9l.9-1.5c.5-.7,0-.6,1-.8s2.1,0,3-1.1l.3.2C422.3,252.4,422.6,254.2,423.3,255.4Zm-26.1-43.7c1.1.1,2.2,1,3.2.9.6-2,3.1-1.4,4.7-1s1.7,0,2.3.6.4,1.2.8,1.8,1,.8.6,2.1-.8,2.2-1,3.3a2.8,2.8,0,0,0,.1.9,23.2,23.2,0,0,0-5.9-.1,10.1,10.1,0,0,0-1.3-.9c-1.3-1-.1-1.3-.4-2.4s-2.6-.4-3.3-1.5A3.8,3.8,0,0,1,397.2,211.7Zm-30.1,33.9c1.3,0,2.1-.1,2.8,1.2s.2,1.8,1.1,2.4a15.5,15.5,0,0,0,2.3.5l.8.4a26.8,26.8,0,0,1-.7,2.7c-.2,1-.5,2.1-.8,3.1l-.6,2.3a14.8,14.8,0,0,0-4.2-.7h-1.6a14.3,14.3,0,0,1-1.3-3.8c-.1-.3-.1-.6-.2-.8v-2.6c0-1.1-.1-2.3-.1-3.4V246A11.7,11.7,0,0,1,367.1,245.6Zm-7.4,0c1.4.1,2.1,1.3,3,1.8s-.4-.2-.3-.3-.6,2.2-.6,3.3v.8l.6.5.2.4c0,.4.2.7.2,1s.2.6.2.9a14.2,14.2,0,0,0,1.1,3.5h-.6l-.6-1a14.5,14.5,0,0,1-.9-2.2,6.2,6.2,0,0,0-.2-1.9c-.5-.9-1.9-1.2-2.2-2.3A14.2,14.2,0,0,1,359.7,245.6Zm-.6,17.8h.3c.8,2.3,2.6,4.4,3,6.9,0,.6.1,1.2.1,1.8s0,1.4-.7,1.5c-1.9,1.8-5.8-.4-7.2-1.8l-.3-.4h0c.1-.6.3-1.1.4-1.7v-.3a.4.4,0,0,0,.1-.3v-.6a1.8,1.8,0,0,1-.1-.6v-.2h.1a.8.8,0,0,1,.1-.4,2.4,2.4,0,0,0,.2-.9,1.3,1.3,0,0,0,.1-.6v-2.5ZM291,235.8a9.6,9.6,0,0,1,2.9-4.6,2.4,2.4,0,0,1,3.4.1c.5-.7,3.9-.6,4.6-.4l.4.2c-.4.9-.7,1.9.3,2.4a3.8,3.8,0,0,0,2.1.4,3.4,3.4,0,0,0,2.3,1.8l.8-2.1a4,4,0,0,1,2.8.8l1.1,1.1.6,1.5a10.9,10.9,0,0,0,2.2,2.6,6.6,6.6,0,0,0,1.7,1.2l-.8-.4a11.9,11.9,0,0,0-2.7-.7c-1.4-.5-.8-.3-2.4-.1h-2.4c-1.4,0-2.8.9-4.3.4s-1.3-1.3-2.2-1.2l-1,.9a13,13,0,0,1-2.3,1.8c-1.3.5-1.6.6-2.6-.4s-2.2-1.5-3.2-2.4S290.7,237.1,291,235.8Zm-33.6,95.4v-.3A.2.2,0,0,1,257.4,331.2Zm18.4,14.4a8.9,8.9,0,0,1-2.3,0,6.1,6.1,0,0,1-1.9-.1,5.1,5.1,0,0,1-2.3-2.3c-.5-1-.5-1.3-1.8-1.3s-2.6-.4-3.3.3-.3-1.1-.8-1.6a4.5,4.5,0,0,0-1.4-.6h-.1a2.1,2.1,0,0,1,.4-1.4c.7-.7,2.1-.4,2.9-.4s1.1.2,1.4,0,.6-.7,1-.8.6.2,1.1.6a2.9,2.9,0,0,0,1.6.2c1.7.1,2.3-.2,3.7,1s1.6,1.1,1.9,2.8S276.8,345,275.8,345.6Zm124.1,4.9a11.9,11.9,0,0,0-2.2,1.2L396,353l-3.4,2.7-3.4,2.7-1.7,1.3-1.7,1.2L384,362l-.9.5-.4.2-.4.2-2,1-1.1.7-1,.6c0,.1,0,.1-.1.1l.3-.3.4-.4.4-.5a5.7,5.7,0,0,0,1.1-1.1c1.2-1.5,2.2-3,3.1-4.3l.7-.9.4-.6c.2-.1.3-.3.5-.5s1.1-1.6,1.5-2.4,1.7-3.1,2.5-4.6l1.8-3.6c1-.5,2-1.2,2.9-.9s1,1.2,1.7,1.5a3,3,0,0,0,1.6.2c1.5,0,2.6.2,3.5,1.5a7.7,7.7,0,0,1,.7,1.6Zm2.4,3.4v0Z" transform="translate(-213.1 -183.7)"/></g></svg>