<?xml version="1.0" encoding="utf-8"?>
<!-- Generator: Adobe Illustrator 25.2.3, SVG Export Plug-In . SVG Version: 6.00 Build 0)  -->
<svg version="1.1" id="Layer_1" xmlns="http://www.w3.org/2000/svg" xmlns:xlink="http://www.w3.org/1999/xlink" x="0px" y="0px"
	 viewBox="0 0 695 192" style="enable-background:new 0 0 695 192;" xml:space="preserve">
<style type="text/css">
	.st0{enable-background:new    ;}
	.st1{fill:#333231;}
	.st2{fill:#FFFFFF;}
</style>
<g transform="translate(-256 -266)">
	<g class="st0">
		<path class="st1" d="M568.9,295.7v21.7c0,3.3-0.9,5.7-2.7,7.5c-1.8,1.7-4.3,2.6-7.6,2.6c-3.4,0-5.9-0.9-7.7-2.6
			c-1.8-1.7-2.7-4.3-2.7-7.6v-21.5h6.4v21.5c0,1.8,0.3,3,0.9,3.8c0.6,0.8,1.6,1.1,3.1,1.1s2.5-0.4,3.1-1.1s0.8-2,0.9-3.7v-21.6
			H568.9z"/>
		<path class="st1" d="M595.5,327h-6.3l-9.2-20.5V327h-6.3v-31.3h6.3l9.3,20.5v-20.5h6.3V327z"/>
		<path class="st1" d="M631.9,316.6c-0.2,3.6-1.2,6.3-3,8.1c-1.8,1.8-4.5,2.8-7.8,2.8c-3.5,0-6.2-1.2-8.1-3.5
			c-1.9-2.3-2.8-5.6-2.8-10v-5.3c0-4.3,1-7.6,2.9-9.9c1.9-2.3,4.7-3.5,8.1-3.5c3.4,0,6,1,7.8,2.9c1.8,1.9,2.8,4.6,3,8.2h-6.3
			c-0.1-2.2-0.4-3.7-1-4.6s-1.8-1.3-3.4-1.3c-1.7,0-2.9,0.6-3.6,1.8c-0.7,1.2-1.1,3.1-1.1,5.8v5.9c0,3.1,0.3,5.2,1,6.4
			s1.9,1.7,3.6,1.7c1.7,0,2.8-0.4,3.4-1.2c0.6-0.8,1-2.3,1.1-4.4H631.9z"/>
		<path class="st1" d="M650.8,320.6h-8.6l-1.7,6.4h-6.7l9.8-31.3h5.8l9.8,31.3h-6.7L650.8,320.6z M643.5,315.3h5.8l-2.9-11.2
			L643.5,315.3z"/>
		<path class="st1" d="M684,327h-6.3l-9.2-20.5V327h-6.3v-31.3h6.3l9.3,20.5v-20.5h6.3V327z"/>
		<path class="st1" d="M708.7,301h-7.7v26h-6.3v-26H687v-5.3h21.7V301z"/>
		<path class="st1" d="M733.7,314.2c0,4.2-1,7.5-3,9.8c-2,2.3-4.7,3.5-8.3,3.5c-3.5,0-6.3-1.1-8.3-3.4c-2-2.3-3-5.5-3.1-9.7V309
			c0-4.3,1-7.7,3-10.1c2-2.4,4.8-3.6,8.3-3.6c3.5,0,6.2,1.2,8.2,3.6c2,2.4,3,5.7,3.1,10V314.2z M727.4,308.9c0-2.8-0.4-4.9-1.2-6.3
			c-0.8-1.4-2-2.1-3.7-2.1c-1.7,0-2.9,0.7-3.7,2c-0.8,1.3-1.2,3.3-1.2,6v5.6c0,2.7,0.4,4.8,1.2,6c0.8,1.3,2.1,1.9,3.8,1.9
			c1.6,0,2.9-0.6,3.7-1.9c0.8-1.3,1.2-3.2,1.2-5.9V308.9z"/>
		<path class="st1" d="M764.6,313.5h-9.8v8.3h11.6v5.2h-18v-31.3h17.9v5.3h-11.6v7.4h9.8V313.5z"/>
		<path class="st1" d="M779.8,306.5l4.2-10.7h7.2l-7.3,15.5l7.5,15.8h-7.3l-4.3-10.9l-4.3,10.9h-7.3l7.5-15.8l-7.4-15.5h7.2
			L779.8,306.5z"/>
		<path class="st1" d="M801.2,327h-6.3v-31.3h6.3V327z"/>
		<path class="st1" d="M819.7,318.8c0-1.3-0.3-2.2-1-2.9c-0.7-0.7-1.8-1.3-3.6-2c-3.1-1.2-5.4-2.6-6.8-4.2c-1.4-1.6-2.1-3.5-2.1-5.7
			c0-2.6,0.9-4.8,2.8-6.3c1.9-1.6,4.2-2.4,7.1-2.4c1.9,0,3.6,0.4,5.1,1.2c1.5,0.8,2.7,2,3.5,3.4c0.8,1.5,1.2,3.2,1.2,5h-6.3
			c0-1.5-0.3-2.6-0.9-3.3c-0.6-0.8-1.5-1.1-2.7-1.1c-1.1,0-2,0.3-2.6,1c-0.6,0.7-0.9,1.5-0.9,2.6c0,0.9,0.3,1.6,1,2.3
			c0.7,0.7,1.9,1.4,3.7,2.2c3.1,1.1,5.3,2.5,6.6,4.1c1.4,1.6,2.1,3.6,2.1,6.1c0,2.7-0.9,4.8-2.6,6.4c-1.7,1.5-4.1,2.3-7.1,2.3
			c-2,0-3.9-0.4-5.5-1.2c-1.7-0.8-3-2-3.9-3.6c-0.9-1.5-1.4-3.4-1.4-5.5h6.3c0,1.8,0.4,3.1,1.1,3.9c0.7,0.8,1.8,1.2,3.4,1.2
			C818.6,322.3,819.7,321.1,819.7,318.8z"/>
		<path class="st1" d="M850.5,301h-7.7v26h-6.3v-26h-7.6v-5.3h21.7V301z"/>
		<path class="st1" d="M870.3,313.5h-9.8v8.3h11.6v5.2h-18v-31.3h17.9v5.3h-11.6v7.4h9.8V313.5z"/>
		<path class="st1" d="M897.6,327h-6.3l-9.2-20.5V327h-6.3v-31.3h6.3l9.3,20.5v-20.5h6.3V327z"/>
		<path class="st1" d="M922.3,301h-7.7v26h-6.3v-26h-7.6v-5.3h21.7V301z"/>
		<path class="st1" d="M942.1,313.5h-9.8v8.3h11.6v5.2h-18v-31.3h17.9v5.3h-11.6v7.4h9.8V313.5z"/>
	</g>
	<g class="st0">
		<path class="st2" d="M260,389.3v6.7h-2.1v-17.1h5.4c1.6,0,2.8,0.5,3.7,1.4s1.4,2.2,1.4,3.8c0,1.6-0.4,2.9-1.3,3.8
			s-2.1,1.3-3.7,1.4H260z M260,387.5h3.3c1,0,1.7-0.3,2.2-0.9c0.5-0.6,0.8-1.4,0.8-2.5c0-1-0.3-1.8-0.8-2.5s-1.2-0.9-2.2-0.9H260
			V387.5z"/>
		<path class="st2" d="M270.3,389.1c0-1.8,0.4-3.3,1.3-4.4s2.1-1.6,3.5-1.6s2.7,0.5,3.5,1.6s1.4,2.5,1.4,4.3v1.3
			c0,1.8-0.4,3.3-1.3,4.4s-2.1,1.6-3.6,1.6c-1.5,0-2.6-0.5-3.5-1.6s-1.3-2.4-1.4-4.2V389.1z M272.3,390.3c0,1.3,0.3,2.3,0.8,3.1
			s1.2,1.1,2.1,1.1c1.8,0,2.8-1.3,2.8-4v-1.4c0-1.3-0.3-2.3-0.8-3.1s-1.2-1.1-2.1-1.1c-0.9,0-1.5,0.4-2,1.1s-0.8,1.8-0.8,3.1V390.3z
			"/>
		<path class="st2" d="M282.3,389.1c0-2,0.4-3.4,1.1-4.5s1.8-1.5,3.1-1.5c1.2,0,2.2,0.5,2.8,1.5V378h2.1v18h-1.9l-0.1-1.4
			c-0.7,1.1-1.7,1.6-2.9,1.6c-1.3,0-2.3-0.5-3.1-1.5s-1.1-2.5-1.1-4.3V389.1z M284.4,390.3c0,1.4,0.2,2.5,0.6,3.1
			c0.4,0.7,1.1,1,2.1,1c1,0,1.8-0.5,2.3-1.6v-6.4c-0.5-1-1.3-1.5-2.3-1.5c-1,0-1.6,0.3-2.1,1s-0.6,1.7-0.6,3.1V390.3z"/>
		<path class="st2" d="M299.2,396.2c-1.6,0-2.8-0.5-3.6-1.4s-1.3-2.3-1.3-4.1v-1.5c0-1.9,0.4-3.4,1.2-4.4s2-1.6,3.5-1.6
			c1.5,0,2.6,0.5,3.3,1.4s1.1,2.4,1.1,4.4v1.4h-7.1v0.3c0,1.4,0.3,2.3,0.8,3s1.2,0.9,2.2,0.9c0.6,0,1.1-0.1,1.6-0.3s0.9-0.6,1.3-1.1
			l1.1,1.3C302.4,395.6,301,396.2,299.2,396.2z M298.9,384.9c-0.9,0-1.5,0.3-1.9,0.9s-0.6,1.5-0.7,2.7h5v-0.3
			c-0.1-1.2-0.3-2.1-0.7-2.6S299.7,384.9,298.9,384.9z"/>
		<path class="st2" d="M307.8,383.3l0,1.2c0.8-0.9,1.8-1.4,3.1-1.4c1.4,0,2.4,0.6,3,1.8c0.8-1.2,1.9-1.8,3.3-1.8
			c2.3,0,3.5,1.5,3.6,4.4v8.5h-2.1v-8.3c0-0.9-0.2-1.6-0.5-2.1s-0.9-0.7-1.7-0.7c-0.6,0-1.1,0.2-1.5,0.7s-0.6,1.1-0.7,1.9v8.5h-2.1
			v-8.4c0-1.8-0.7-2.6-2.1-2.6c-1,0-1.8,0.5-2.2,1.6v9.5h-2.1v-12.7H307.8z"/>
		<path class="st2" d="M323.5,389.1c0-1.8,0.4-3.3,1.3-4.4s2.1-1.6,3.5-1.6s2.7,0.5,3.5,1.6s1.4,2.5,1.4,4.3v1.3
			c0,1.8-0.4,3.3-1.3,4.4s-2.1,1.6-3.6,1.6c-1.5,0-2.6-0.5-3.5-1.6s-1.3-2.4-1.4-4.2V389.1z M325.6,390.3c0,1.3,0.3,2.3,0.8,3.1
			s1.2,1.1,2.1,1.1c1.8,0,2.8-1.3,2.8-4v-1.4c0-1.3-0.3-2.3-0.8-3.1s-1.2-1.1-2.1-1.1c-0.9,0-1.5,0.4-2,1.1s-0.8,1.8-0.8,3.1V390.3z
			"/>
		<path class="st2" d="M342.2,392.8c0-0.4-0.2-0.8-0.5-1.1s-1-0.7-1.9-1.1c-1.1-0.5-1.9-0.9-2.4-1.2s-0.8-0.7-1-1.1
			s-0.3-0.9-0.3-1.5c0-1,0.4-1.9,1.1-2.6s1.7-1,2.9-1c1.2,0,2.2,0.4,3,1.1s1.1,1.6,1.1,2.8H342c0-0.6-0.2-1.1-0.6-1.5
			s-0.9-0.6-1.5-0.6c-0.6,0-1.1,0.2-1.4,0.5c-0.3,0.3-0.5,0.7-0.5,1.3c0,0.4,0.1,0.8,0.4,1c0.3,0.3,0.9,0.6,1.8,1
			c1.5,0.6,2.6,1.2,3.1,1.8s0.8,1.3,0.8,2.2c0,1.1-0.4,2-1.1,2.6c-0.8,0.7-1.8,1-3,1c-1.3,0-2.4-0.4-3.2-1.1s-1.2-1.7-1.2-2.9h2.1
			c0,0.7,0.2,1.3,0.6,1.7s1,0.6,1.7,0.6c0.7,0,1.2-0.2,1.6-0.5S342.2,393.3,342.2,392.8z"/>
		<path class="st2" d="M354.4,383.3l0,1.2c0.8-0.9,1.8-1.4,3.1-1.4c1.4,0,2.4,0.6,3,1.8c0.8-1.2,1.9-1.8,3.3-1.8
			c2.3,0,3.5,1.5,3.6,4.4v8.5h-2.1v-8.3c0-0.9-0.2-1.6-0.5-2.1s-0.9-0.7-1.7-0.7c-0.6,0-1.1,0.2-1.5,0.7s-0.6,1.1-0.7,1.9v8.5h-2.1
			v-8.4c0-1.8-0.7-2.6-2.1-2.6c-1,0-1.8,0.5-2.2,1.6v9.5h-2.1v-12.7H354.4z"/>
		<path class="st2" d="M370,389.1c0-1.8,0.4-3.3,1.3-4.4s2.1-1.6,3.5-1.6s2.7,0.5,3.5,1.6s1.4,2.5,1.4,4.3v1.3
			c0,1.8-0.4,3.3-1.3,4.4s-2.1,1.6-3.6,1.6c-1.5,0-2.6-0.5-3.5-1.6s-1.3-2.4-1.4-4.2V389.1z M372.1,390.3c0,1.3,0.3,2.3,0.8,3.1
			s1.2,1.1,2.1,1.1c1.8,0,2.8-1.3,2.8-4v-1.4c0-1.3-0.3-2.3-0.8-3.1s-1.2-1.1-2.1-1.1c-0.9,0-1.5,0.4-2,1.1s-0.8,1.8-0.8,3.1V390.3z
			"/>
		<path class="st2" d="M382.1,389.1c0-2,0.4-3.4,1.1-4.5s1.8-1.5,3.1-1.5c1.2,0,2.2,0.5,2.8,1.5V378h2.1v18h-1.9l-0.1-1.4
			c-0.7,1.1-1.7,1.6-2.9,1.6c-1.3,0-2.3-0.5-3.1-1.5s-1.1-2.5-1.1-4.3V389.1z M384.2,390.3c0,1.4,0.2,2.5,0.6,3.1
			c0.4,0.7,1.1,1,2.1,1c1,0,1.8-0.5,2.3-1.6v-6.4c-0.5-1-1.3-1.5-2.3-1.5c-1,0-1.6,0.3-2.1,1s-0.6,1.7-0.6,3.1V390.3z"/>
		<path class="st2" d="M396.8,380c0,0.4-0.1,0.6-0.3,0.9s-0.5,0.4-0.9,0.4c-0.4,0-0.7-0.1-0.9-0.4s-0.3-0.5-0.3-0.9s0.1-0.6,0.3-0.9
			s0.5-0.4,0.9-0.4s0.7,0.1,0.9,0.4S396.8,379.6,396.8,380z M396.7,396h-2.1v-12.7h2.1V396z"/>
		<path class="st2" d="M400.8,396v-11h-1.7v-1.7h1.7v-1.5c0-1.3,0.3-2.3,1-3s1.5-1.1,2.7-1.1c0.4,0,0.8,0.1,1.3,0.2l-0.1,1.7
			c-0.3-0.1-0.6-0.1-0.9-0.1c-1.2,0-1.8,0.8-1.8,2.5v1.2h2.2v1.7h-2.2v11H400.8z"/>
		<path class="st2" d="M409.9,380c0,0.4-0.1,0.6-0.3,0.9s-0.5,0.4-0.9,0.4c-0.4,0-0.7-0.1-0.9-0.4s-0.3-0.5-0.3-0.9s0.1-0.6,0.3-0.9
			s0.5-0.4,0.9-0.4s0.7,0.1,0.9,0.4S409.9,379.6,409.9,380z M409.8,396h-2.1v-12.7h2.1V396z"/>
		<path class="st2" d="M417.4,394.5c0.7,0,1.2-0.2,1.7-0.6s0.6-1,0.7-1.8h2c0,1.2-0.5,2.2-1.3,3s-1.8,1.2-3,1.2
			c-1.6,0-2.8-0.5-3.6-1.5s-1.2-2.5-1.2-4.4v-1.4c0-1.9,0.4-3.4,1.2-4.4s2-1.5,3.6-1.5c1.3,0,2.3,0.4,3.1,1.2s1.2,1.9,1.2,3.4h-2
			c0-0.9-0.3-1.6-0.7-2.1s-1-0.7-1.7-0.7c-0.9,0-1.6,0.3-2.1,0.9s-0.7,1.6-0.7,3v1.6c0,1.5,0.2,2.5,0.7,3.2S416.5,394.5,417.4,394.5
			z"/>
		<path class="st2" d="M430.6,396c-0.1-0.3-0.2-0.7-0.3-1.4c-0.7,1.1-1.7,1.6-2.8,1.6c-1.1,0-2-0.3-2.7-1s-1-1.6-1-2.7
			c0-1.3,0.4-2.3,1.3-3.1s2.1-1.1,3.6-1.2h1.5V387c0-0.8-0.2-1.3-0.5-1.6s-0.8-0.5-1.5-0.5c-0.6,0-1.1,0.2-1.5,0.6s-0.6,0.8-0.6,1.4
			h-2.1c0-0.6,0.2-1.3,0.6-1.9s0.9-1.1,1.5-1.4s1.4-0.5,2.2-0.5c1.3,0,2.3,0.3,3,1s1,1.6,1,2.8v6.4c0,1,0.1,1.8,0.4,2.5v0.2H430.6z
			 M427.9,394.3c0.5,0,1-0.1,1.5-0.4s0.8-0.6,1-1.1v-3h-1.2c-1,0-1.8,0.2-2.3,0.7s-0.9,1-0.9,1.8c0,0.7,0.1,1.2,0.4,1.6
			S427.2,394.3,427.9,394.3z"/>
		<path class="st2" d="M440.8,385.3c-0.3-0.1-0.6-0.1-0.9-0.1c-1.1,0-1.8,0.6-2.2,1.7v9.1h-2.1v-12.7h2l0,1.3c0.6-1,1.3-1.5,2.4-1.5
			c0.3,0,0.6,0.1,0.8,0.2L440.8,385.3z"/>
		<path class="st2" d="M452.9,396.2c-1.6,0-2.8-0.5-3.6-1.4s-1.3-2.3-1.3-4.1v-1.5c0-1.9,0.4-3.4,1.2-4.4s2-1.6,3.5-1.6
			c1.5,0,2.6,0.5,3.3,1.4s1.1,2.4,1.1,4.4v1.4h-7.1v0.3c0,1.4,0.3,2.3,0.8,3s1.2,0.9,2.2,0.9c0.6,0,1.1-0.1,1.6-0.3s0.9-0.6,1.3-1.1
			l1.1,1.3C456.1,395.6,454.8,396.2,452.9,396.2z M452.7,384.9c-0.9,0-1.5,0.3-1.9,0.9s-0.6,1.5-0.7,2.7h5v-0.3
			c-0.1-1.2-0.3-2.1-0.7-2.6S453.5,384.9,452.7,384.9z"/>
		<path class="st2" d="M461.9,396h-2.1v-18h2.1V396z"/>
		<path class="st2" d="M473.3,380.2v3.1h1.9v1.7h-1.9v7.9c0,0.5,0.1,0.9,0.2,1.1c0.2,0.3,0.4,0.4,0.8,0.4c0.3,0,0.6,0,0.8-0.1l0,1.7
			c-0.5,0.2-0.9,0.2-1.4,0.2c-0.8,0-1.4-0.3-1.9-0.9s-0.6-1.4-0.6-2.5V385h-1.9v-1.7h1.9v-3.1H473.3z"/>
		<path class="st2" d="M480,378h2.6l-3.1,3.4l-1.7,0L480,378z M480,396h-2.1v-12.7h2.1V396z"/>
		<path class="st2" d="M486.1,380.2v3.1h1.9v1.7h-1.9v7.9c0,0.5,0.1,0.9,0.2,1.1c0.2,0.3,0.4,0.4,0.8,0.4c0.3,0,0.6,0,0.8-0.1l0,1.7
			c-0.5,0.2-0.9,0.2-1.4,0.2c-0.8,0-1.4-0.3-1.9-0.9s-0.6-1.4-0.6-2.5V385h-1.9v-1.7h1.9v-3.1H486.1z"/>
		<path class="st2" d="M496.9,394.9c-0.7,0.9-1.7,1.3-3,1.3c-1.1,0-2-0.4-2.6-1.2s-0.9-1.9-0.9-3.5v-8.3h2.1v8.1c0,2,0.6,3,1.8,3
			c1.3,0,2.1-0.6,2.6-1.7v-9.4h2.1V396h-2L496.9,394.9z"/>
		<path class="st2" d="M504.3,396h-2.1v-18h2.1V396z"/>
		<path class="st2" d="M507.1,389.1c0-1.8,0.4-3.3,1.3-4.4s2.1-1.6,3.5-1.6s2.7,0.5,3.5,1.6s1.4,2.5,1.4,4.3v1.3
			c0,1.8-0.4,3.3-1.3,4.4s-2.1,1.6-3.6,1.6c-1.5,0-2.6-0.5-3.5-1.6s-1.3-2.4-1.4-4.2V389.1z M509.2,390.3c0,1.3,0.3,2.3,0.8,3.1
			s1.2,1.1,2.1,1.1c1.8,0,2.8-1.3,2.8-4v-1.4c0-1.3-0.3-2.3-0.8-3.1s-1.2-1.1-2.1-1.1c-0.9,0-1.5,0.4-2,1.1s-0.8,1.8-0.8,3.1V390.3z
			"/>
		<path class="st2" d="M524.7,389.1c0-1.8,0.4-3.3,1.3-4.4s2.1-1.6,3.5-1.6s2.7,0.5,3.5,1.6s1.4,2.5,1.4,4.3v1.3
			c0,1.8-0.4,3.3-1.3,4.4s-2.1,1.6-3.6,1.6c-1.5,0-2.6-0.5-3.5-1.6s-1.3-2.4-1.4-4.2V389.1z M526.7,390.3c0,1.3,0.3,2.3,0.8,3.1
			s1.2,1.1,2.1,1.1c1.8,0,2.8-1.3,2.8-4v-1.4c0-1.3-0.3-2.3-0.8-3.1s-1.2-1.1-2.1-1.1c-0.9,0-1.5,0.4-2,1.1s-0.8,1.8-0.8,3.1V390.3z
			"/>
		<path class="st2" d="M544.9,396h-2.1v-18h2.1V396z"/>
		<path class="st2" d="M554.7,396c-0.1-0.3-0.2-0.7-0.3-1.4c-0.7,1.1-1.7,1.6-2.8,1.6c-1.1,0-2-0.3-2.7-1s-1-1.6-1-2.7
			c0-1.3,0.4-2.3,1.3-3.1s2.1-1.1,3.6-1.2h1.5V387c0-0.8-0.2-1.3-0.5-1.6s-0.8-0.5-1.5-0.5c-0.6,0-1.1,0.2-1.5,0.6s-0.6,0.8-0.6,1.4
			h-2.1c0-0.6,0.2-1.3,0.6-1.9s0.9-1.1,1.5-1.4s1.4-0.5,2.2-0.5c1.3,0,2.3,0.3,3,1s1,1.6,1,2.8v6.4c0,1,0.1,1.8,0.4,2.5v0.2H554.7z
			 M551.9,394.3c0.5,0,1-0.1,1.5-0.4s0.8-0.6,1-1.1v-3h-1.2c-1,0-1.8,0.2-2.3,0.7s-0.9,1-0.9,1.8c0,0.7,0.1,1.2,0.4,1.6
			S551.2,394.3,551.9,394.3z"/>
		<path class="st2" d="M567.4,396h-2.1v-18h2.1V396z"/>
		<path class="st2" d="M575.1,396.2c-1.6,0-2.8-0.5-3.6-1.4s-1.3-2.3-1.3-4.1v-1.5c0-1.9,0.4-3.4,1.2-4.4s2-1.6,3.5-1.6
			c1.5,0,2.6,0.5,3.3,1.4s1.1,2.4,1.1,4.4v1.4h-7.1v0.3c0,1.4,0.3,2.3,0.8,3s1.2,0.9,2.2,0.9c0.6,0,1.1-0.1,1.6-0.3s0.9-0.6,1.3-1.1
			l1.1,1.3C578.4,395.6,577,396.2,575.1,396.2z M574.9,384.9c-0.9,0-1.5,0.3-1.9,0.9s-0.6,1.5-0.7,2.7h5v-0.3
			c-0.1-1.2-0.3-2.1-0.7-2.6S575.7,384.9,574.9,384.9z"/>
		<path class="st2" d="M584.6,380.2v3.1h1.9v1.7h-1.9v7.9c0,0.5,0.1,0.9,0.2,1.1c0.2,0.3,0.4,0.4,0.8,0.4c0.3,0,0.6,0,0.8-0.1l0,1.7
			c-0.5,0.2-0.9,0.2-1.4,0.2c-0.8,0-1.4-0.3-1.9-0.9s-0.6-1.4-0.6-2.5V385h-1.9v-1.7h1.9v-3.1H584.6z"/>
		<path class="st2" d="M594.2,385.3c-0.3-0.1-0.6-0.1-0.9-0.1c-1.1,0-1.8,0.6-2.2,1.7v9.1h-2.1v-12.7h2l0,1.3c0.6-1,1.3-1.5,2.4-1.5
			c0.3,0,0.6,0.1,0.8,0.2L594.2,385.3z"/>
		<path class="st2" d="M602.3,396c-0.1-0.3-0.2-0.7-0.3-1.4c-0.7,1.1-1.7,1.6-2.8,1.6c-1.1,0-2-0.3-2.7-1s-1-1.6-1-2.7
			c0-1.3,0.4-2.3,1.3-3.1s2.1-1.1,3.6-1.2h1.5V387c0-0.8-0.2-1.3-0.5-1.6s-0.8-0.5-1.5-0.5c-0.6,0-1.1,0.2-1.5,0.6s-0.6,0.8-0.6,1.4
			h-2.1c0-0.6,0.2-1.3,0.6-1.9s0.9-1.1,1.5-1.4s1.4-0.5,2.2-0.5c1.3,0,2.3,0.3,3,1s1,1.6,1,2.8v6.4c0,1,0.1,1.8,0.4,2.5v0.2H602.3z
			 M599.5,394.3c0.5,0,1-0.1,1.5-0.4s0.8-0.6,1-1.1v-3h-1.2c-1,0-1.8,0.2-2.3,0.7s-0.9,1-0.9,1.8c0,0.7,0.1,1.2,0.4,1.6
			S598.8,394.3,599.5,394.3z"/>
		<path class="st2" d="M612.3,389.1c0-2,0.4-3.4,1.1-4.5s1.8-1.5,3.1-1.5c1.2,0,2.2,0.5,2.8,1.5V378h2.1v18h-1.9l-0.1-1.4
			c-0.7,1.1-1.7,1.6-2.9,1.6c-1.3,0-2.3-0.5-3.1-1.5s-1.1-2.5-1.1-4.3V389.1z M614.4,390.3c0,1.4,0.2,2.5,0.6,3.1
			c0.4,0.7,1.1,1,2.1,1c1,0,1.8-0.5,2.3-1.6v-6.4c-0.5-1-1.3-1.5-2.3-1.5c-1,0-1.6,0.3-2.1,1s-0.6,1.7-0.6,3.1V390.3z"/>
		<path class="st2" d="M629.2,396.2c-1.6,0-2.8-0.5-3.6-1.4s-1.3-2.3-1.3-4.1v-1.5c0-1.9,0.4-3.4,1.2-4.4s2-1.6,3.5-1.6
			c1.5,0,2.6,0.5,3.3,1.4s1.1,2.4,1.1,4.4v1.4h-7.1v0.3c0,1.4,0.3,2.3,0.8,3s1.2,0.9,2.2,0.9c0.6,0,1.1-0.1,1.6-0.3s0.9-0.6,1.3-1.1
			l1.1,1.3C632.4,395.6,631.1,396.2,629.2,396.2z M629,384.9c-0.9,0-1.5,0.3-1.9,0.9s-0.6,1.5-0.7,2.7h5v-0.3
			c-0.1-1.2-0.3-2.1-0.7-2.6S629.7,384.9,629,384.9z"/>
		<path class="st2" d="M645.8,394.5c0.7,0,1.2-0.2,1.7-0.6s0.6-1,0.7-1.8h2c0,1.2-0.5,2.2-1.3,3s-1.8,1.2-3,1.2
			c-1.6,0-2.8-0.5-3.6-1.5s-1.2-2.5-1.2-4.4v-1.4c0-1.9,0.4-3.4,1.2-4.4s2-1.5,3.6-1.5c1.3,0,2.3,0.4,3.1,1.2s1.2,1.9,1.2,3.4h-2
			c0-0.9-0.3-1.6-0.7-2.1s-1-0.7-1.7-0.7c-0.9,0-1.6,0.3-2.1,0.9s-0.7,1.6-0.7,3v1.6c0,1.5,0.2,2.5,0.7,3.2S644.9,394.5,645.8,394.5
			z"/>
		<path class="st2" d="M659,394.9c-0.7,0.9-1.7,1.3-3,1.3c-1.1,0-2-0.4-2.6-1.2s-0.9-1.9-0.9-3.5v-8.3h2.1v8.1c0,2,0.6,3,1.8,3
			c1.3,0,2.1-0.6,2.6-1.7v-9.4h2.1V396h-2L659,394.9z"/>
		<path class="st2" d="M670.6,396c-0.1-0.3-0.2-0.7-0.3-1.4c-0.7,1.1-1.7,1.6-2.8,1.6c-1.1,0-2-0.3-2.7-1s-1-1.6-1-2.7
			c0-1.3,0.4-2.3,1.3-3.1s2.1-1.1,3.6-1.2h1.5V387c0-0.8-0.2-1.3-0.5-1.6s-0.8-0.5-1.5-0.5c-0.6,0-1.1,0.2-1.5,0.6s-0.6,0.8-0.6,1.4
			h-2.1c0-0.6,0.2-1.3,0.6-1.9s0.9-1.1,1.5-1.4s1.4-0.5,2.2-0.5c1.3,0,2.3,0.3,3,1s1,1.6,1,2.8v6.4c0,1,0.1,1.8,0.4,2.5v0.2H670.6z
			 M667.9,394.3c0.5,0,1-0.1,1.5-0.4s0.8-0.6,1-1.1v-3h-1.2c-1,0-1.8,0.2-2.3,0.7s-0.9,1-0.9,1.8c0,0.7,0.1,1.2,0.4,1.6
			S667.2,394.3,667.9,394.3z"/>
		<path class="st2" d="M677.8,396h-2.1v-18h2.1V396z"/>
		<path class="st2" d="M680.7,389.1c0-2,0.4-3.5,1.1-4.5s1.8-1.5,3.2-1.5c1.2,0,2.2,0.5,2.9,1.5l0.1-1.2h1.9v17.6h-2.1v-6
			c-0.7,0.9-1.6,1.3-2.8,1.3c-1.4,0-2.4-0.5-3.2-1.5s-1.1-2.4-1.1-4.4V389.1z M682.7,390.3c0,1.4,0.2,2.5,0.7,3.2s1.1,1,2.1,1
			c1,0,1.7-0.5,2.2-1.4v-6.8c-0.6-0.9-1.3-1.4-2.2-1.4c-1,0-1.6,0.3-2.1,1s-0.7,1.7-0.7,3.1V390.3z"/>
		<path class="st2" d="M699.6,394.9c-0.7,0.9-1.7,1.3-3,1.3c-1.1,0-2-0.4-2.6-1.2s-0.9-1.9-0.9-3.5v-8.3h2.1v8.1c0,2,0.6,3,1.8,3
			c1.3,0,2.1-0.6,2.6-1.7v-9.4h2.1V396h-2L699.6,394.9z"/>
		<path class="st2" d="M707.1,380c0,0.4-0.1,0.6-0.3,0.9s-0.5,0.4-0.9,0.4c-0.4,0-0.7-0.1-0.9-0.4s-0.3-0.5-0.3-0.9s0.1-0.6,0.3-0.9
			s0.5-0.4,0.9-0.4s0.7,0.1,0.9,0.4S707.1,379.6,707.1,380z M706.9,396h-2.1v-12.7h2.1V396z"/>
		<path class="st2" d="M714.7,396.2c-1.6,0-2.8-0.5-3.6-1.4s-1.3-2.3-1.3-4.1v-1.5c0-1.9,0.4-3.4,1.2-4.4s2-1.6,3.5-1.6
			c1.5,0,2.6,0.5,3.3,1.4s1.1,2.4,1.1,4.4v1.4h-7.1v0.3c0,1.4,0.3,2.3,0.8,3s1.2,0.9,2.2,0.9c0.6,0,1.1-0.1,1.6-0.3s0.9-0.6,1.3-1.1
			l1.1,1.3C717.9,395.6,716.6,396.2,714.7,396.2z M714.5,384.9c-0.9,0-1.5,0.3-1.9,0.9s-0.6,1.5-0.7,2.7h5v-0.3
			c-0.1-1.2-0.3-2.1-0.7-2.6S715.3,384.9,714.5,384.9z"/>
		<path class="st2" d="M726.7,385.3c-0.3-0.1-0.6-0.1-0.9-0.1c-1.1,0-1.8,0.6-2.2,1.7v9.1h-2.1v-12.7h2l0,1.3c0.6-1,1.3-1.5,2.4-1.5
			c0.3,0,0.6,0.1,0.8,0.2L726.7,385.3z"/>
		<path class="st2" d="M738.6,394.5c0.7,0,1.2-0.2,1.7-0.6s0.6-1,0.7-1.8h2c0,1.2-0.5,2.2-1.3,3s-1.8,1.2-3,1.2
			c-1.6,0-2.8-0.5-3.6-1.5s-1.2-2.5-1.2-4.4v-1.4c0-1.9,0.4-3.4,1.2-4.4s2-1.5,3.6-1.5c1.3,0,2.3,0.4,3.1,1.2s1.2,1.9,1.2,3.4h-2
			c0-0.9-0.3-1.6-0.7-2.1s-1-0.7-1.7-0.7c-0.9,0-1.6,0.3-2.1,0.9s-0.7,1.6-0.7,3v1.6c0,1.5,0.2,2.5,0.7,3.2S737.7,394.5,738.6,394.5
			z"/>
		<path class="st2" d="M751.8,396c-0.1-0.3-0.2-0.7-0.3-1.4c-0.7,1.1-1.7,1.6-2.8,1.6c-1.1,0-2-0.3-2.7-1s-1-1.6-1-2.7
			c0-1.3,0.4-2.3,1.3-3.1s2.1-1.1,3.6-1.2h1.5V387c0-0.8-0.2-1.3-0.5-1.6s-0.8-0.5-1.5-0.5c-0.6,0-1.1,0.2-1.5,0.6s-0.6,0.8-0.6,1.4
			h-2.1c0-0.6,0.2-1.3,0.6-1.9s0.9-1.1,1.5-1.4s1.4-0.5,2.2-0.5c1.3,0,2.3,0.3,3,1s1,1.6,1,2.8v6.4c0,1,0.1,1.8,0.4,2.5v0.2H751.8z
			 M749.1,394.3c0.5,0,1-0.1,1.5-0.4s0.8-0.6,1-1.1v-3h-1.2c-1,0-1.8,0.2-2.3,0.7s-0.9,1-0.9,1.8c0,0.7,0.1,1.2,0.4,1.6
			S748.4,394.3,749.1,394.3z"/>
		<path class="st2" d="M758.8,383.3l0.1,1.4c0.8-1.1,1.8-1.6,3.1-1.6c2.2,0,3.4,1.5,3.4,4.5v8.4h-2.1v-8.3c0-1-0.2-1.7-0.5-2.1
			s-0.8-0.6-1.5-0.6c-0.5,0-1,0.2-1.4,0.5s-0.7,0.8-1,1.3v9.2h-2.1v-12.7H758.8z"/>
		<path class="st2" d="M771.1,380.2v3.1h1.9v1.7h-1.9v7.9c0,0.5,0.1,0.9,0.2,1.1c0.2,0.3,0.4,0.4,0.8,0.4c0.3,0,0.6,0,0.8-0.1l0,1.7
			c-0.5,0.2-0.9,0.2-1.4,0.2c-0.8,0-1.4-0.3-1.9-0.9s-0.6-1.4-0.6-2.5V385h-1.9v-1.7h1.9v-3.1H771.1z"/>
		<path class="st2" d="M774.8,389.1c0-1.8,0.4-3.3,1.3-4.4s2.1-1.6,3.5-1.6s2.7,0.5,3.5,1.6s1.4,2.5,1.4,4.3v1.3
			c0,1.8-0.4,3.3-1.3,4.4s-2.1,1.6-3.6,1.6c-1.5,0-2.6-0.5-3.5-1.6s-1.3-2.4-1.4-4.2V389.1z M776.9,390.3c0,1.3,0.3,2.3,0.8,3.1
			s1.2,1.1,2.1,1.1c1.8,0,2.8-1.3,2.8-4v-1.4c0-1.3-0.3-2.3-0.8-3.1s-1.2-1.1-2.1-1.1c-0.9,0-1.5,0.4-2,1.1s-0.8,1.8-0.8,3.1V390.3z
			"/>
		<path class="st2" d="M792.4,389.1c0-2,0.4-3.5,1.1-4.5s1.8-1.5,3.2-1.5c1.2,0,2.2,0.5,2.9,1.5l0.1-1.2h1.9v17.6h-2.1v-6
			c-0.7,0.9-1.6,1.3-2.8,1.3c-1.4,0-2.4-0.5-3.2-1.5s-1.1-2.4-1.1-4.4V389.1z M794.5,390.3c0,1.4,0.2,2.5,0.7,3.2s1.1,1,2.1,1
			c1,0,1.7-0.5,2.2-1.4v-6.8c-0.6-0.9-1.3-1.4-2.2-1.4c-1,0-1.6,0.3-2.1,1s-0.7,1.7-0.7,3.1V390.3z"/>
		<path class="st2" d="M811.3,394.9c-0.7,0.9-1.7,1.3-3,1.3c-1.1,0-2-0.4-2.6-1.2s-0.9-1.9-0.9-3.5v-8.3h2.1v8.1c0,2,0.6,3,1.8,3
			c1.3,0,2.1-0.6,2.6-1.7v-9.4h2.1V396h-2L811.3,394.9z"/>
		<path class="st2" d="M821,396.2c-1.6,0-2.8-0.5-3.6-1.4s-1.3-2.3-1.3-4.1v-1.5c0-1.9,0.4-3.4,1.2-4.4s2-1.6,3.5-1.6
			c1.5,0,2.6,0.5,3.3,1.4s1.1,2.4,1.1,4.4v1.4h-7.1v0.3c0,1.4,0.3,2.3,0.8,3s1.2,0.9,2.2,0.9c0.6,0,1.1-0.1,1.6-0.3s0.9-0.6,1.3-1.1
			l1.1,1.3C824.2,395.6,822.8,396.2,821,396.2z M820.7,384.9c-0.9,0-1.5,0.3-1.9,0.9s-0.6,1.5-0.7,2.7h5v-0.3
			c-0.1-1.2-0.3-2.1-0.7-2.6S821.5,384.9,820.7,384.9z"/>
		<path class="st2" d="M836.6,392.6l2.3-9.2h2.2l-4.1,14.5c-0.3,1.1-0.8,1.9-1.3,2.5s-1.2,0.8-1.9,0.8c-0.3,0-0.6-0.1-1.1-0.2v-1.8
			l0.5,0c0.6,0,1.1-0.1,1.4-0.4s0.6-0.8,0.8-1.5l0.4-1.4l-3.7-12.6h2.3L836.6,392.6z"/>
		<path class="st2" d="M849.5,396c-0.1-0.3-0.2-0.7-0.3-1.4c-0.7,1.1-1.7,1.6-2.8,1.6c-1.1,0-2-0.3-2.7-1s-1-1.6-1-2.7
			c0-1.3,0.4-2.3,1.3-3.1s2.1-1.1,3.6-1.2h1.5V387c0-0.8-0.2-1.3-0.5-1.6s-0.8-0.5-1.5-0.5c-0.6,0-1.1,0.2-1.5,0.6s-0.6,0.8-0.6,1.4
			H843c0-0.6,0.2-1.3,0.6-1.9s0.9-1.1,1.5-1.4s1.4-0.5,2.2-0.5c1.3,0,2.3,0.3,3,1s1,1.6,1,2.8v6.4c0,1,0.1,1.8,0.4,2.5v0.2H849.5z
			 M846.8,394.3c0.5,0,1-0.1,1.5-0.4s0.8-0.6,1-1.1v-3H848c-1,0-1.8,0.2-2.3,0.7s-0.9,1-0.9,1.8c0,0.7,0.1,1.2,0.4,1.6
			S846.1,394.3,846.8,394.3z"/>
		<path class="st2" d="M864.5,396.2c-1.6,0-2.8-0.5-3.6-1.4s-1.3-2.3-1.3-4.1v-1.5c0-1.9,0.4-3.4,1.2-4.4s2-1.6,3.5-1.6
			c1.5,0,2.6,0.5,3.3,1.4s1.1,2.4,1.1,4.4v1.4h-7.1v0.3c0,1.4,0.3,2.3,0.8,3s1.2,0.9,2.2,0.9c0.6,0,1.1-0.1,1.6-0.3s0.9-0.6,1.3-1.1
			l1.1,1.3C867.7,395.6,866.4,396.2,864.5,396.2z M864.3,384.9c-0.9,0-1.5,0.3-1.9,0.9s-0.6,1.5-0.7,2.7h5v-0.3
			c-0.1-1.2-0.3-2.1-0.7-2.6S865.1,384.9,864.3,384.9z"/>
		<path class="st2" d="M874.9,387.9l2.2-4.6h2.4l-3.4,6.3l3.5,6.4h-2.4l-2.2-4.7l-2.2,4.7h-2.4l3.5-6.4l-3.4-6.3h2.4L874.9,387.9z"
			/>
		<path class="st2" d="M884.2,380c0,0.4-0.1,0.6-0.3,0.9s-0.5,0.4-0.9,0.4c-0.4,0-0.7-0.1-0.9-0.4s-0.3-0.5-0.3-0.9s0.1-0.6,0.3-0.9
			s0.5-0.4,0.9-0.4s0.7,0.1,0.9,0.4S884.2,379.6,884.2,380z M884,396h-2.1v-12.7h2.1V396z"/>
		<path class="st2" d="M893.4,392.8c0-0.4-0.2-0.8-0.5-1.1s-1-0.7-1.9-1.1c-1.1-0.5-1.9-0.9-2.4-1.2s-0.8-0.7-1-1.1
			s-0.3-0.9-0.3-1.5c0-1,0.4-1.9,1.1-2.6s1.7-1,2.9-1c1.2,0,2.2,0.4,3,1.1s1.1,1.6,1.1,2.8h-2.1c0-0.6-0.2-1.1-0.6-1.5
			s-0.9-0.6-1.5-0.6c-0.6,0-1.1,0.2-1.4,0.5c-0.3,0.3-0.5,0.7-0.5,1.3c0,0.4,0.1,0.8,0.4,1c0.3,0.3,0.9,0.6,1.8,1
			c1.5,0.6,2.6,1.2,3.1,1.8s0.8,1.3,0.8,2.2c0,1.1-0.4,2-1.1,2.6c-0.8,0.7-1.8,1-3,1c-1.3,0-2.4-0.4-3.2-1.1s-1.2-1.7-1.2-2.9h2.1
			c0,0.7,0.2,1.3,0.6,1.7s1,0.6,1.7,0.6c0.7,0,1.2-0.2,1.6-0.5S893.4,393.3,893.4,392.8z"/>
		<path class="st2" d="M900.9,380.2v3.1h1.9v1.7h-1.9v7.9c0,0.5,0.1,0.9,0.2,1.1c0.2,0.3,0.4,0.4,0.8,0.4c0.3,0,0.6,0,0.8-0.1l0,1.7
			c-0.5,0.2-0.9,0.2-1.4,0.2c-0.8,0-1.4-0.3-1.9-0.9s-0.6-1.4-0.6-2.5V385h-1.9v-1.7h1.9v-3.1H900.9z"/>
		<path class="st2" d="M909.8,396.2c-1.6,0-2.8-0.5-3.6-1.4s-1.3-2.3-1.3-4.1v-1.5c0-1.9,0.4-3.4,1.2-4.4s2-1.6,3.5-1.6
			c1.5,0,2.6,0.5,3.3,1.4s1.1,2.4,1.1,4.4v1.4H907v0.3c0,1.4,0.3,2.3,0.8,3s1.2,0.9,2.2,0.9c0.6,0,1.1-0.1,1.6-0.3s0.9-0.6,1.3-1.1
			l1.1,1.3C913,395.6,911.7,396.2,909.8,396.2z M909.6,384.9c-0.9,0-1.5,0.3-1.9,0.9s-0.6,1.5-0.7,2.7h5v-0.3
			c-0.1-1.2-0.3-2.1-0.7-2.6S910.4,384.9,909.6,384.9z"/>
		<path class="st2" d="M916.5,399.4l-1.2-0.8c0.7-1,1.1-2.1,1.1-3.2v-2h2.1v1.7c0,0.8-0.2,1.6-0.6,2.4S917.1,398.9,916.5,399.4z"/>
	</g>
	<g class="st0">
		<path class="st2" d="M264.1,424c-0.1-0.3-0.2-0.7-0.3-1.4c-0.7,1.1-1.7,1.6-2.8,1.6c-1.1,0-2-0.3-2.7-1s-1-1.6-1-2.7
			c0-1.3,0.4-2.3,1.3-3.1s2.1-1.1,3.6-1.2h1.5V415c0-0.8-0.2-1.3-0.5-1.6s-0.8-0.5-1.5-0.5c-0.6,0-1.1,0.2-1.5,0.6s-0.6,0.8-0.6,1.4
			h-2.1c0-0.6,0.2-1.3,0.6-1.9s0.9-1.1,1.5-1.4s1.4-0.5,2.2-0.5c1.3,0,2.3,0.3,3,1s1,1.6,1,2.8v6.4c0,1,0.1,1.8,0.4,2.5v0.2H264.1z
			 M261.3,422.3c0.5,0,1-0.1,1.5-0.4s0.8-0.6,1-1.1v-3h-1.2c-1,0-1.8,0.2-2.3,0.7s-0.9,1-0.9,1.8c0,0.7,0.1,1.2,0.4,1.6
			S260.6,422.3,261.3,422.3z"/>
		<path class="st2" d="M268.6,417.1c0-2,0.4-3.5,1.1-4.5s1.8-1.5,3.2-1.5c1.3,0,2.3,0.6,2.9,1.7l0.1-1.4h1.9v12.8
			c0,1.6-0.4,2.8-1.2,3.6s-1.9,1.3-3.4,1.3c-0.6,0-1.3-0.2-2.1-0.5s-1.4-0.7-1.8-1.1l0.8-1.4c0.9,0.8,1.8,1.3,2.8,1.3
			c1.7,0,2.6-0.9,2.7-2.8v-1.7c-0.7,1-1.6,1.5-2.9,1.5c-1.3,0-2.3-0.5-3.1-1.5s-1.1-2.4-1.1-4.3V417.1z M270.7,418.3
			c0,1.4,0.2,2.5,0.6,3.1c0.4,0.7,1.1,1,2.1,1c1,0,1.8-0.5,2.3-1.6v-6.3c-0.5-1-1.3-1.6-2.3-1.6c-1,0-1.6,0.3-2.1,1
			s-0.6,1.7-0.6,3.1V418.3z"/>
		<path class="st2" d="M286.1,413.3c-0.3-0.1-0.6-0.1-0.9-0.1c-1.1,0-1.8,0.6-2.2,1.7v9.1h-2.1v-12.7h2l0,1.3c0.6-1,1.3-1.5,2.4-1.5
			c0.3,0,0.6,0.1,0.8,0.2L286.1,413.3z"/>
		<path class="st2" d="M292.5,424.2c-1.6,0-2.8-0.5-3.6-1.4s-1.3-2.3-1.3-4.1v-1.5c0-1.9,0.4-3.4,1.2-4.4s2-1.6,3.5-1.6
			c1.5,0,2.6,0.5,3.3,1.4s1.1,2.4,1.1,4.4v1.4h-7.1v0.3c0,1.4,0.3,2.3,0.8,3s1.2,0.9,2.2,0.9c0.6,0,1.1-0.1,1.6-0.3s0.9-0.6,1.3-1.1
			l1.1,1.3C295.7,423.6,294.3,424.2,292.5,424.2z M292.2,412.9c-0.9,0-1.5,0.3-1.9,0.9s-0.6,1.5-0.7,2.7h5v-0.3
			c-0.1-1.2-0.3-2.1-0.7-2.6S293,412.9,292.2,412.9z"/>
		<path class="st2" d="M298.8,417.1c0-2,0.4-3.5,1.1-4.5s1.8-1.5,3.2-1.5c1.3,0,2.3,0.6,2.9,1.7l0.1-1.4h1.9v12.8
			c0,1.6-0.4,2.8-1.2,3.6s-1.9,1.3-3.4,1.3c-0.6,0-1.3-0.2-2.1-0.5s-1.4-0.7-1.8-1.1l0.8-1.4c0.9,0.8,1.8,1.3,2.8,1.3
			c1.7,0,2.6-0.9,2.7-2.8v-1.7c-0.7,1-1.6,1.5-2.9,1.5c-1.3,0-2.3-0.5-3.1-1.5s-1.1-2.4-1.1-4.3V417.1z M300.8,418.3
			c0,1.4,0.2,2.5,0.6,3.1c0.4,0.7,1.1,1,2.1,1c1,0,1.8-0.5,2.3-1.6v-6.3c-0.5-1-1.3-1.6-2.3-1.6c-1,0-1.6,0.3-2.1,1
			s-0.6,1.7-0.6,3.1V418.3z"/>
		<path class="st2" d="M317.5,424c-0.1-0.3-0.2-0.7-0.3-1.4c-0.7,1.1-1.7,1.6-2.8,1.6c-1.1,0-2-0.3-2.7-1s-1-1.6-1-2.7
			c0-1.3,0.4-2.3,1.3-3.1s2.1-1.1,3.6-1.2h1.5V415c0-0.8-0.2-1.3-0.5-1.6s-0.8-0.5-1.5-0.5c-0.6,0-1.1,0.2-1.5,0.6s-0.6,0.8-0.6,1.4
			H311c0-0.6,0.2-1.3,0.6-1.9s0.9-1.1,1.5-1.4s1.4-0.5,2.2-0.5c1.3,0,2.3,0.3,3,1s1,1.6,1,2.8v6.4c0,1,0.1,1.8,0.4,2.5v0.2H317.5z
			 M314.8,422.3c0.5,0,1-0.1,1.5-0.4s0.8-0.6,1-1.1v-3h-1.2c-1,0-1.8,0.2-2.3,0.7s-0.9,1-0.9,1.8c0,0.7,0.1,1.2,0.4,1.6
			S314.1,422.3,314.8,422.3z"/>
		<path class="st2" d="M327.7,413.3c-0.3-0.1-0.6-0.1-0.9-0.1c-1.1,0-1.8,0.6-2.2,1.7v9.1h-2.1v-12.7h2l0,1.3c0.6-1,1.3-1.5,2.4-1.5
			c0.3,0,0.6,0.1,0.8,0.2L327.7,413.3z"/>
		<path class="st2" d="M334.9,417.1c0-1.8,0.4-3.3,1.3-4.4s2.1-1.6,3.5-1.6s2.7,0.5,3.5,1.6s1.4,2.5,1.4,4.3v1.3
			c0,1.8-0.4,3.3-1.3,4.4s-2.1,1.6-3.6,1.6c-1.5,0-2.6-0.5-3.5-1.6s-1.3-2.4-1.4-4.2V417.1z M336.9,418.3c0,1.3,0.3,2.3,0.8,3.1
			s1.2,1.1,2.1,1.1c1.8,0,2.8-1.3,2.8-4v-1.4c0-1.3-0.3-2.3-0.8-3.1s-1.2-1.1-2.1-1.1c-0.9,0-1.5,0.4-2,1.1s-0.8,1.8-0.8,3.1V418.3z
			"/>
		<path class="st2" d="M362,418.3c0,2-0.4,3.5-1.1,4.5s-1.7,1.5-3.1,1.5c-1.3,0-2.4-0.6-3-1.7l-0.1,1.5h-1.9v-18h2.1v6.7
			c0.7-1.1,1.7-1.6,2.9-1.6c1.4,0,2.4,0.5,3.1,1.5s1,2.5,1.1,4.5V418.3z M360,417.1c0-1.5-0.2-2.6-0.6-3.2s-1.1-1-2-1
			c-1.1,0-1.9,0.6-2.4,1.7v6c0.5,1.1,1.3,1.7,2.4,1.7c0.9,0,1.6-0.3,2-1c0.4-0.7,0.6-1.7,0.6-3.1V417.1z"/>
		<path class="st2" d="M364.2,417.1c0-1.8,0.4-3.3,1.3-4.4s2.1-1.6,3.5-1.6s2.7,0.5,3.5,1.6s1.4,2.5,1.4,4.3v1.3
			c0,1.8-0.4,3.3-1.3,4.4s-2.1,1.6-3.6,1.6c-1.5,0-2.6-0.5-3.5-1.6s-1.3-2.4-1.4-4.2V417.1z M366.3,418.3c0,1.3,0.3,2.3,0.8,3.1
			s1.2,1.1,2.1,1.1c1.8,0,2.8-1.3,2.8-4v-1.4c0-1.3-0.3-2.3-0.8-3.1s-1.2-1.1-2.1-1.1c-0.9,0-1.5,0.4-2,1.1s-0.8,1.8-0.8,3.1V418.3z
			"/>
		<path class="st2" d="M382,413.3c-0.3-0.1-0.6-0.1-0.9-0.1c-1.1,0-1.8,0.6-2.2,1.7v9.1h-2.1v-12.7h2l0,1.3c0.6-1,1.3-1.5,2.4-1.5
			c0.3,0,0.6,0.1,0.8,0.2L382,413.3z"/>
		<path class="st2" d="M389.3,413.3c-0.3-0.1-0.6-0.1-0.9-0.1c-1.1,0-1.8,0.6-2.2,1.7v9.1H384v-12.7h2l0,1.3c0.6-1,1.3-1.5,2.4-1.5
			c0.3,0,0.6,0.1,0.8,0.2L389.3,413.3z"/>
		<path class="st2" d="M397.4,424c-0.1-0.3-0.2-0.7-0.3-1.4c-0.7,1.1-1.7,1.6-2.8,1.6c-1.1,0-2-0.3-2.7-1s-1-1.6-1-2.7
			c0-1.3,0.4-2.3,1.3-3.1s2.1-1.1,3.6-1.2h1.5V415c0-0.8-0.2-1.3-0.5-1.6s-0.8-0.5-1.5-0.5c-0.6,0-1.1,0.2-1.5,0.6s-0.6,0.8-0.6,1.4
			h-2.1c0-0.6,0.2-1.3,0.6-1.9s0.9-1.1,1.5-1.4s1.4-0.5,2.2-0.5c1.3,0,2.3,0.3,3,1s1,1.6,1,2.8v6.4c0,1,0.1,1.8,0.4,2.5v0.2H397.4z
			 M394.6,422.3c0.5,0,1-0.1,1.5-0.4s0.8-0.6,1-1.1v-3h-1.2c-1,0-1.8,0.2-2.3,0.7s-0.9,1-0.9,1.8c0,0.7,0.1,1.2,0.4,1.6
			S393.9,422.3,394.6,422.3z"/>
		<path class="st2" d="M407.6,413.3c-0.3-0.1-0.6-0.1-0.9-0.1c-1.1,0-1.8,0.6-2.2,1.7v9.1h-2.1v-12.7h2l0,1.3c0.6-1,1.3-1.5,2.4-1.5
			c0.3,0,0.6,0.1,0.8,0.2L407.6,413.3z"/>
		<path class="st2" d="M419.7,424.2c-1.6,0-2.8-0.5-3.6-1.4s-1.3-2.3-1.3-4.1v-1.5c0-1.9,0.4-3.4,1.2-4.4s2-1.6,3.5-1.6
			c1.5,0,2.6,0.5,3.3,1.4s1.1,2.4,1.1,4.4v1.4h-7.1v0.3c0,1.4,0.3,2.3,0.8,3s1.2,0.9,2.2,0.9c0.6,0,1.1-0.1,1.6-0.3s0.9-0.6,1.3-1.1
			l1.1,1.3C422.9,423.6,421.5,424.2,419.7,424.2z M419.5,412.9c-0.9,0-1.5,0.3-1.9,0.9s-0.6,1.5-0.7,2.7h5v-0.3
			c-0.1-1.2-0.3-2.1-0.7-2.6S420.2,412.9,419.5,412.9z"/>
		<path class="st2" d="M432.6,420.8c0-0.4-0.2-0.8-0.5-1.1s-1-0.7-1.9-1.1c-1.1-0.5-1.9-0.9-2.4-1.2s-0.8-0.7-1-1.1
			s-0.3-0.9-0.3-1.5c0-1,0.4-1.9,1.1-2.6s1.7-1,2.9-1c1.2,0,2.2,0.4,3,1.1s1.1,1.6,1.1,2.8h-2.1c0-0.6-0.2-1.1-0.6-1.5
			s-0.9-0.6-1.5-0.6c-0.6,0-1.1,0.2-1.4,0.5c-0.3,0.3-0.5,0.7-0.5,1.3c0,0.4,0.1,0.8,0.4,1c0.3,0.3,0.9,0.6,1.8,1
			c1.5,0.6,2.6,1.2,3.1,1.8s0.8,1.3,0.8,2.2c0,1.1-0.4,2-1.1,2.6c-0.8,0.7-1.8,1-3,1c-1.3,0-2.4-0.4-3.2-1.1s-1.2-1.7-1.2-2.9h2.1
			c0,0.7,0.2,1.3,0.6,1.7s1,0.6,1.7,0.6c0.7,0,1.2-0.2,1.6-0.5S432.6,421.3,432.6,420.8z"/>
		<path class="st2" d="M440,408.2v3.1h1.9v1.7H440v7.9c0,0.5,0.1,0.9,0.2,1.1c0.2,0.3,0.4,0.4,0.8,0.4c0.3,0,0.6,0,0.8-0.1l0,1.7
			c-0.5,0.2-0.9,0.2-1.4,0.2c-0.8,0-1.4-0.3-1.9-0.9s-0.6-1.4-0.6-2.5V413H436v-1.7h1.9v-3.1H440z"/>
		<path class="st2" d="M449.7,413.3c-0.3-0.1-0.6-0.1-0.9-0.1c-1.1,0-1.8,0.6-2.2,1.7v9.1h-2.1v-12.7h2l0,1.3c0.6-1,1.3-1.5,2.4-1.5
			c0.3,0,0.6,0.1,0.8,0.2L449.7,413.3z"/>
		<path class="st2" d="M451,417.1c0-1.8,0.4-3.3,1.3-4.4s2.1-1.6,3.5-1.6s2.7,0.5,3.5,1.6s1.4,2.5,1.4,4.3v1.3
			c0,1.8-0.4,3.3-1.3,4.4s-2.1,1.6-3.6,1.6c-1.5,0-2.6-0.5-3.5-1.6s-1.3-2.4-1.4-4.2V417.1z M453.1,418.3c0,1.3,0.3,2.3,0.8,3.1
			s1.2,1.1,2.1,1.1c1.8,0,2.8-1.3,2.8-4v-1.4c0-1.3-0.3-2.3-0.8-3.1s-1.2-1.1-2.1-1.1c-0.9,0-1.5,0.4-2,1.1s-0.8,1.8-0.8,3.1V418.3z
			"/>
		<path class="st2" d="M464.4,424v-11h-1.7v-1.7h1.7v-1.5c0-1.3,0.3-2.3,1-3s1.5-1.1,2.7-1.1c0.4,0,0.8,0.1,1.3,0.2l-0.1,1.7
			c-0.3-0.1-0.6-0.1-0.9-0.1c-1.2,0-1.8,0.8-1.8,2.5v1.2h2.2v1.7h-2.2v11H464.4z"/>
		<path class="st2" d="M477.6,424c-0.1-0.3-0.2-0.7-0.3-1.4c-0.7,1.1-1.7,1.6-2.8,1.6c-1.1,0-2-0.3-2.7-1s-1-1.6-1-2.7
			c0-1.3,0.4-2.3,1.3-3.1s2.1-1.1,3.6-1.2h1.5V415c0-0.8-0.2-1.3-0.5-1.6s-0.8-0.5-1.5-0.5c-0.6,0-1.1,0.2-1.5,0.6s-0.6,0.8-0.6,1.4
			h-2.1c0-0.6,0.2-1.3,0.6-1.9s0.9-1.1,1.5-1.4s1.4-0.5,2.2-0.5c1.3,0,2.3,0.3,3,1s1,1.6,1,2.8v6.4c0,1,0.1,1.8,0.4,2.5v0.2H477.6z
			 M474.9,422.3c0.5,0,1-0.1,1.5-0.4s0.8-0.6,1-1.1v-3h-1.2c-1,0-1.8,0.2-2.3,0.7s-0.9,1-0.9,1.8c0,0.7,0.1,1.2,0.4,1.6
			S474.2,422.3,474.9,422.3z"/>
		<path class="st2" d="M488.8,420.8c0-0.4-0.2-0.8-0.5-1.1s-1-0.7-1.9-1.1c-1.1-0.5-1.9-0.9-2.4-1.2s-0.8-0.7-1-1.1
			s-0.3-0.9-0.3-1.5c0-1,0.4-1.9,1.1-2.6s1.7-1,2.9-1c1.2,0,2.2,0.4,3,1.1s1.1,1.6,1.1,2.8h-2.1c0-0.6-0.2-1.1-0.6-1.5
			s-0.9-0.6-1.5-0.6c-0.6,0-1.1,0.2-1.4,0.5c-0.3,0.3-0.5,0.7-0.5,1.3c0,0.4,0.1,0.8,0.4,1c0.3,0.3,0.9,0.6,1.8,1
			c1.5,0.6,2.6,1.2,3.1,1.8s0.8,1.3,0.8,2.2c0,1.1-0.4,2-1.1,2.6c-0.8,0.7-1.8,1-3,1c-1.3,0-2.4-0.4-3.2-1.1s-1.2-1.7-1.2-2.9h2.1
			c0,0.7,0.2,1.3,0.6,1.7s1,0.6,1.7,0.6c0.7,0,1.2-0.2,1.6-0.5S488.8,421.3,488.8,420.8z"/>
		<path class="st2" d="M502.5,420.6l2.3-9.2h2.2l-4.1,14.5c-0.3,1.1-0.8,1.9-1.3,2.5s-1.2,0.8-1.9,0.8c-0.3,0-0.6-0.1-1.1-0.2v-1.8
			l0.5,0c0.6,0,1.1-0.1,1.4-0.4s0.6-0.8,0.8-1.5l0.4-1.4l-3.7-12.6h2.3L502.5,420.6z"/>
		<path class="st2" d="M514.1,417.1c0-2,0.4-3.5,1.1-4.5s1.8-1.5,3.2-1.5c1.3,0,2.3,0.6,2.9,1.7l0.1-1.4h1.9v12.8
			c0,1.6-0.4,2.8-1.2,3.6s-1.9,1.3-3.4,1.3c-0.6,0-1.3-0.2-2.1-0.5s-1.4-0.7-1.8-1.1l0.8-1.4c0.9,0.8,1.8,1.3,2.8,1.3
			c1.7,0,2.6-0.9,2.7-2.8v-1.7c-0.7,1-1.6,1.5-2.9,1.5c-1.3,0-2.3-0.5-3.1-1.5s-1.1-2.4-1.1-4.3V417.1z M516.2,418.3
			c0,1.4,0.2,2.5,0.6,3.1c0.4,0.7,1.1,1,2.1,1c1,0,1.8-0.5,2.3-1.6v-6.3c-0.5-1-1.3-1.6-2.3-1.6c-1,0-1.6,0.3-2.1,1
			s-0.6,1.7-0.6,3.1V418.3z"/>
		<path class="st2" d="M532.8,422.9c-0.7,0.9-1.7,1.3-3,1.3c-1.1,0-2-0.4-2.6-1.2s-0.9-1.9-0.9-3.5v-8.3h2.1v8.1c0,2,0.6,3,1.8,3
			c1.3,0,2.1-0.6,2.6-1.7v-9.4h2.1V424h-2L532.8,422.9z"/>
		<path class="st2" d="M544.5,424c-0.1-0.3-0.2-0.7-0.3-1.4c-0.7,1.1-1.7,1.6-2.8,1.6c-1.1,0-2-0.3-2.7-1s-1-1.6-1-2.7
			c0-1.3,0.4-2.3,1.3-3.1s2.1-1.1,3.6-1.2h1.5V415c0-0.8-0.2-1.3-0.5-1.6s-0.8-0.5-1.5-0.5c-0.6,0-1.1,0.2-1.5,0.6s-0.6,0.8-0.6,1.4
			H538c0-0.6,0.2-1.3,0.6-1.9s0.9-1.1,1.5-1.4s1.4-0.5,2.2-0.5c1.3,0,2.3,0.3,3,1s1,1.6,1,2.8v6.4c0,1,0.1,1.8,0.4,2.5v0.2H544.5z
			 M541.7,422.3c0.5,0,1-0.1,1.5-0.4s0.8-0.6,1-1.1v-3H543c-1,0-1.8,0.2-2.3,0.7s-0.9,1-0.9,1.8c0,0.7,0.1,1.2,0.4,1.6
			S541,422.3,541.7,422.3z"/>
		<path class="st2" d="M554.7,413.3c-0.3-0.1-0.6-0.1-0.9-0.1c-1.1,0-1.8,0.6-2.2,1.7v9.1h-2.1v-12.7h2l0,1.3c0.6-1,1.3-1.5,2.4-1.5
			c0.3,0,0.6,0.1,0.8,0.2L554.7,413.3z"/>
		<path class="st2" d="M556.1,417.1c0-2,0.4-3.4,1.1-4.5s1.8-1.5,3.1-1.5c1.2,0,2.2,0.5,2.8,1.5V406h2.1v18h-1.9l-0.1-1.4
			c-0.7,1.1-1.7,1.6-2.9,1.6c-1.3,0-2.3-0.5-3.1-1.5s-1.1-2.5-1.1-4.3V417.1z M558.2,418.3c0,1.4,0.2,2.5,0.6,3.1
			c0.4,0.7,1.1,1,2.1,1c1,0,1.8-0.5,2.3-1.6v-6.4c-0.5-1-1.3-1.5-2.3-1.5c-1,0-1.6,0.3-2.1,1s-0.6,1.7-0.6,3.1V418.3z"/>
		<path class="st2" d="M575,424c-0.1-0.3-0.2-0.7-0.3-1.4c-0.7,1.1-1.7,1.6-2.8,1.6c-1.1,0-2-0.3-2.7-1s-1-1.6-1-2.7
			c0-1.3,0.4-2.3,1.3-3.1s2.1-1.1,3.6-1.2h1.5V415c0-0.8-0.2-1.3-0.5-1.6s-0.8-0.5-1.5-0.5c-0.6,0-1.1,0.2-1.5,0.6s-0.6,0.8-0.6,1.4
			h-2.1c0-0.6,0.2-1.3,0.6-1.9s0.9-1.1,1.5-1.4s1.4-0.5,2.2-0.5c1.3,0,2.3,0.3,3,1s1,1.6,1,2.8v6.4c0,1,0.1,1.8,0.4,2.5v0.2H575z
			 M572.2,422.3c0.5,0,1-0.1,1.5-0.4s0.8-0.6,1-1.1v-3h-1.2c-1,0-1.8,0.2-2.3,0.7s-0.9,1-0.9,1.8c0,0.7,0.1,1.2,0.4,1.6
			S571.5,422.3,572.2,422.3z"/>
		<path class="st2" d="M585.2,413.3c-0.3-0.1-0.6-0.1-0.9-0.1c-1.1,0-1.8,0.6-2.2,1.7v9.1h-2.1v-12.7h2l0,1.3c0.6-1,1.3-1.5,2.4-1.5
			c0.3,0,0.6,0.1,0.8,0.2L585.2,413.3z"/>
		<path class="st2" d="M595,424h-2.1v-18h2.1V424z"/>
		<path class="st2" d="M597.8,417.1c0-1.8,0.4-3.3,1.3-4.4s2.1-1.6,3.5-1.6s2.7,0.5,3.5,1.6s1.4,2.5,1.4,4.3v1.3
			c0,1.8-0.4,3.3-1.3,4.4s-2.1,1.6-3.6,1.6c-1.5,0-2.6-0.5-3.5-1.6s-1.3-2.4-1.4-4.2V417.1z M599.9,418.3c0,1.3,0.3,2.3,0.8,3.1
			s1.2,1.1,2.1,1.1c1.8,0,2.8-1.3,2.8-4v-1.4c0-1.3-0.3-2.3-0.8-3.1s-1.2-1.1-2.1-1.1c-0.9,0-1.5,0.4-2,1.1s-0.8,1.8-0.8,3.1V418.3z
			"/>
		<path class="st2" d="M616.4,420.8c0-0.4-0.2-0.8-0.5-1.1s-1-0.7-1.9-1.1c-1.1-0.5-1.9-0.9-2.4-1.2s-0.8-0.7-1-1.1
			s-0.3-0.9-0.3-1.5c0-1,0.4-1.9,1.1-2.6s1.7-1,2.9-1c1.2,0,2.2,0.4,3,1.1s1.1,1.6,1.1,2.8h-2.1c0-0.6-0.2-1.1-0.6-1.5
			s-0.9-0.6-1.5-0.6c-0.6,0-1.1,0.2-1.4,0.5c-0.3,0.3-0.5,0.7-0.5,1.3c0,0.4,0.1,0.8,0.4,1c0.3,0.3,0.9,0.6,1.8,1
			c1.5,0.6,2.6,1.2,3.1,1.8s0.8,1.3,0.8,2.2c0,1.1-0.4,2-1.1,2.6c-0.8,0.7-1.8,1-3,1c-1.3,0-2.4-0.4-3.2-1.1s-1.2-1.7-1.2-2.9h2.1
			c0,0.7,0.2,1.3,0.6,1.7s1,0.6,1.7,0.6c0.7,0,1.2-0.2,1.6-0.5S616.4,421.3,616.4,420.8z"/>
		<path class="st2" d="M631.1,422.5c0.7,0,1.2-0.2,1.7-0.6s0.6-1,0.7-1.8h2c0,1.2-0.5,2.2-1.3,3s-1.8,1.2-3,1.2
			c-1.6,0-2.8-0.5-3.6-1.5s-1.2-2.5-1.2-4.4v-1.4c0-1.9,0.4-3.4,1.2-4.4s2-1.5,3.6-1.5c1.3,0,2.3,0.4,3.1,1.2s1.2,1.9,1.2,3.4h-2
			c0-0.9-0.3-1.6-0.7-2.1s-1-0.7-1.7-0.7c-0.9,0-1.6,0.3-2.1,0.9s-0.7,1.6-0.7,3v1.6c0,1.5,0.2,2.5,0.7,3.2S630.2,422.5,631.1,422.5
			z"/>
		<path class="st2" d="M644.3,424c-0.1-0.3-0.2-0.7-0.3-1.4c-0.7,1.1-1.7,1.6-2.8,1.6c-1.1,0-2-0.3-2.7-1s-1-1.6-1-2.7
			c0-1.3,0.4-2.3,1.3-3.1s2.1-1.1,3.6-1.2h1.5V415c0-0.8-0.2-1.3-0.5-1.6s-0.8-0.5-1.5-0.5c-0.6,0-1.1,0.2-1.5,0.6s-0.6,0.8-0.6,1.4
			h-2.1c0-0.6,0.2-1.3,0.6-1.9s0.9-1.1,1.5-1.4s1.4-0.5,2.2-0.5c1.3,0,2.3,0.3,3,1s1,1.6,1,2.8v6.4c0,1,0.1,1.8,0.4,2.5v0.2H644.3z
			 M641.6,422.3c0.5,0,1-0.1,1.5-0.4s0.8-0.6,1-1.1v-3h-1.2c-1,0-1.8,0.2-2.3,0.7s-0.9,1-0.9,1.8c0,0.7,0.1,1.2,0.4,1.6
			S640.9,422.3,641.6,422.3z"/>
		<path class="st2" d="M651.2,411.3l0,1.2c0.8-0.9,1.8-1.4,3.1-1.4c1.4,0,2.4,0.6,3,1.8c0.8-1.2,1.9-1.8,3.3-1.8
			c2.3,0,3.5,1.5,3.6,4.4v8.5h-2.1v-8.3c0-0.9-0.2-1.6-0.5-2.1s-0.9-0.7-1.7-0.7c-0.6,0-1.1,0.2-1.5,0.7s-0.6,1.1-0.7,1.9v8.5h-2.1
			v-8.4c0-1.8-0.7-2.6-2.1-2.6c-1,0-1.8,0.5-2.2,1.6v9.5h-2.1v-12.7H651.2z"/>
		<path class="st2" d="M676.5,418.3c0,2-0.4,3.5-1.1,4.5s-1.7,1.5-3.1,1.5c-1.3,0-2.4-0.6-3-1.7l-0.1,1.5h-1.9v-18h2.1v6.7
			c0.7-1.1,1.7-1.6,2.9-1.6c1.4,0,2.4,0.5,3.1,1.5s1,2.5,1.1,4.5V418.3z M674.5,417.1c0-1.5-0.2-2.6-0.6-3.2s-1.1-1-2-1
			c-1.1,0-1.9,0.6-2.4,1.7v6c0.5,1.1,1.3,1.7,2.4,1.7c0.9,0,1.6-0.3,2-1c0.4-0.7,0.6-1.7,0.6-3.1V417.1z"/>
		<path class="st2" d="M681.6,408c0,0.4-0.1,0.6-0.3,0.9s-0.5,0.4-0.9,0.4c-0.4,0-0.7-0.1-0.9-0.4s-0.3-0.5-0.3-0.9s0.1-0.6,0.3-0.9
			s0.5-0.4,0.9-0.4s0.7,0.1,0.9,0.4S681.6,407.6,681.6,408z M681.4,424h-2.1v-12.7h2.1V424z"/>
		<path class="st2" d="M684.2,417.1c0-1.8,0.4-3.3,1.3-4.4s2.1-1.6,3.5-1.6s2.7,0.5,3.5,1.6s1.4,2.5,1.4,4.3v1.3
			c0,1.8-0.4,3.3-1.3,4.4s-2.1,1.6-3.6,1.6c-1.5,0-2.6-0.5-3.5-1.6s-1.3-2.4-1.4-4.2V417.1z M686.3,418.3c0,1.3,0.3,2.3,0.8,3.1
			s1.2,1.1,2.1,1.1c1.8,0,2.8-1.3,2.8-4v-1.4c0-1.3-0.3-2.3-0.8-3.1s-1.2-1.1-2.1-1.1c-0.9,0-1.5,0.4-2,1.1s-0.8,1.8-0.8,3.1V418.3z
			"/>
		<path class="st2" d="M702.9,420.8c0-0.4-0.2-0.8-0.5-1.1s-1-0.7-1.9-1.1c-1.1-0.5-1.9-0.9-2.4-1.2s-0.8-0.7-1-1.1
			s-0.3-0.9-0.3-1.5c0-1,0.4-1.9,1.1-2.6s1.7-1,2.9-1c1.2,0,2.2,0.4,3,1.1s1.1,1.6,1.1,2.8h-2.1c0-0.6-0.2-1.1-0.6-1.5
			s-0.9-0.6-1.5-0.6c-0.6,0-1.1,0.2-1.4,0.5c-0.3,0.3-0.5,0.7-0.5,1.3c0,0.4,0.1,0.8,0.4,1c0.3,0.3,0.9,0.6,1.8,1
			c1.5,0.6,2.6,1.2,3.1,1.8s0.8,1.3,0.8,2.2c0,1.1-0.4,2-1.1,2.6c-0.8,0.7-1.8,1-3,1c-1.3,0-2.4-0.4-3.2-1.1s-1.2-1.7-1.2-2.9h2.1
			c0,0.7,0.2,1.3,0.6,1.7s1,0.6,1.7,0.6c0.7,0,1.2-0.2,1.6-0.5S702.9,421.3,702.9,420.8z"/>
		<path class="st2" d="M707.8,422.9c0-0.4,0.1-0.7,0.3-0.9s0.6-0.4,1-0.4s0.8,0.1,1,0.4s0.3,0.6,0.3,0.9c0,0.4-0.1,0.7-0.3,0.9
			s-0.6,0.4-1,0.4s-0.8-0.1-1-0.4S707.8,423.2,707.8,422.9z"/>
	</g>
	<rect x="256" y="266" class="st1" width="280" height="88"/>
	<g class="st0">
		<path class="st2" d="M283.3,290.6l7.3,27.8l7.2-27.8h10.1V329h-7.8v-10.4l0.7-16l-7.7,26.4h-5.3l-7.7-26.4l0.7,16V329h-7.8v-38.4
			H283.3z"/>
		<path class="st2" d="M341.1,313.3c0,5.2-1.2,9.1-3.7,12c-2.4,2.8-5.8,4.3-10.1,4.3c-4.3,0-7.7-1.4-10.2-4.2
			c-2.5-2.8-3.7-6.8-3.7-11.9v-6.6c0-5.3,1.2-9.4,3.7-12.4c2.4-3,5.8-4.4,10.2-4.4c4.3,0,7.6,1.5,10.1,4.4c2.5,2.9,3.7,7,3.7,12.2
			V313.3z M333.3,306.8c0-3.5-0.5-6-1.5-7.7c-1-1.7-2.5-2.5-4.6-2.5c-2.1,0-3.6,0.8-4.6,2.4c-1,1.6-1.5,4.1-1.5,7.4v6.8
			c0,3.4,0.5,5.8,1.5,7.4s2.5,2.4,4.6,2.4c2,0,3.5-0.8,4.5-2.3c1-1.6,1.5-4,1.5-7.2V306.8z"/>
		<path class="st2" d="M346.7,329v-38.4h10.2c4.5,0,8.1,1.4,10.7,4.3c2.7,2.8,4,6.8,4.1,11.7v6.2c0,5-1.3,9-4,11.9
			c-2.7,2.9-6.3,4.3-11,4.3H346.7z M354.4,297.1v25.5h2.3c2.6,0,4.4-0.7,5.5-2s1.6-3.7,1.7-7.1v-6.7c0-3.6-0.5-6.1-1.5-7.5
			c-1-1.4-2.7-2.2-5.1-2.2H354.4z"/>
		<path class="st2" d="M385.3,329h-7.8v-38.4h7.8V329z"/>
		<path class="st2" d="M411.6,313.3h-12V329h-7.8v-38.4H413v6.5h-13.5v9.8h12V313.3z"/>
		<path class="st2" d="M425.6,329h-7.8v-38.4h7.8V329z"/>
		<path class="st2" d="M458.1,316.2c-0.2,4.4-1.4,7.7-3.7,9.9s-5.5,3.4-9.6,3.4c-4.3,0-7.7-1.4-10-4.3c-2.3-2.9-3.5-6.9-3.5-12.2
			v-6.5c0-5.3,1.2-9.3,3.6-12.2c2.4-2.9,5.7-4.3,10-4.3c4.2,0,7.4,1.2,9.5,3.5c2.2,2.3,3.4,5.7,3.7,10.1h-7.8
			c-0.1-2.7-0.5-4.6-1.3-5.6c-0.8-1-2.2-1.5-4.2-1.5c-2.1,0-3.5,0.7-4.4,2.2s-1.3,3.8-1.4,7.2v7.3c0,3.8,0.4,6.4,1.3,7.9
			s2.3,2.1,4.4,2.1c2,0,3.4-0.5,4.2-1.5c0.8-1,1.2-2.8,1.3-5.4H458.1z"/>
		<path class="st2" d="M481.2,321.1h-10.6l-2.1,7.9h-8.2l12-38.4h7.1l12.1,38.4h-8.3L481.2,321.1z M472.3,314.7h7.2l-3.6-13.7
			L472.3,314.7z"/>
		<path class="st2" d="M506.8,315h-3.8v14h-7.8v-38.4h12.4c3.9,0,6.9,1,9,3c2.1,2,3.2,4.9,3.2,8.6c0,5.1-1.9,8.7-5.6,10.7l6.7,15.7
			v0.4h-8.3L506.8,315z M502.9,308.5h4.4c1.5,0,2.7-0.5,3.5-1.5s1.2-2.4,1.2-4.1c0-3.8-1.5-5.8-4.5-5.8h-4.5V308.5z"/>
	</g>
</g>
</svg>
