<svg id="Layer_2" data-name="Layer 2" xmlns="http://www.w3.org/2000/svg" width="508.5" height="545.2" viewBox="0 0 508.5 545.2"><defs><style>.cls-1,.cls-2,.cls-3{stroke:#71bf44;stroke-miterlimit:10;}.cls-2{fill:#71bf44;}.cls-3{fill:#fff;}</style></defs><path class="cls-1" d="M25,28H383.8L496.5,151.5V284.2l-38-21.7,1-74h-112V64.5H61.5l1,471H245.8s7.7,15,33.7,36.6c.3.3-254.5,0-254.5,0Z" transform="translate(-24.5 -27.5)"/><polygon class="cls-1" points="75 198 75 161.7 274 162 274 198 75 198"/><path class="cls-1" d="M99.5,300.1v-37s225.1-.4,224.3,0c-19.3,8.4-44.3,24.4-56.2,37C267.3,300.4,99.5,300.1,99.5,300.1Z" transform="translate(-24.5 -27.5)"/><path class="cls-1" d="M99.5,373.1V337.3l138,.2c-9,14-15,31-16,36Z" transform="translate(-24.5 -27.5)"/><polygon class="cls-1" points="75 419.8 75 384.4 174 384 174 419.8 75 419.8"/><circle class="cls-2" cx="367" cy="403" r="141"/><polygon class="cls-3" points="347 469 347 419.8 299.3 419.8 299.3 384 347 384 347 334.3 386 334 386 384 435.3 384 435.3 419.8 385.4 419.8 385.4 469 347 469"/></svg>