<svg xmlns="http://www.w3.org/2000/svg" width="235.29" height="42.786" viewBox="0 0 235.29 42.786"><g transform="translate(-110.27 -123.62)"><g transform="translate(112.411 136.715)"><path d="M132.653,144.532c-1.434-1.819-4.735-1.5-6.449-3.357a12.433,12.433,0,0,1-2.368-4.46h-2.18v21.8a6.727,6.727,0,0,0-3.532-.975c-3.155,0-5.713,1.984-5.713,4.435s2.558,4.434,5.713,4.434,5.712-1.985,5.712-4.434V144.613a4.53,4.53,0,0,0,1.564,2.932c1.42,1.387,4.866,1.685,5.921,2.48a3.216,3.216,0,0,1,1.332,3.308,3.559,3.559,0,0,0,.3-4.381A3.556,3.556,0,0,0,132.653,144.532Zm-8.817-3.908s0,.045.009.11l-.009-.03Zm2.368,4.54a10.317,10.317,0,0,1-1.721-2.734,6.2,6.2,0,0,0,.917,1.125c1.42,1.386,4.866,1.685,5.921,2.481a3.265,3.265,0,0,1,1.4,2.577c-.024-.03-.04-.06-.065-.092C131.219,146.7,127.918,147.019,126.2,145.164Z" transform="translate(-112.411 -136.715)" fill="#333231"/></g><g transform="translate(280.804 127.444)"><path d="M277.152,135.262c-1.433-1.82-4.736-1.5-6.448-3.357a12.452,12.452,0,0,1-2.369-4.461h-2.179v21.8a6.736,6.736,0,0,0-3.532-.974c-3.156,0-5.713,1.985-5.713,4.434s2.557,4.436,5.713,4.436,5.711-1.987,5.711-4.436V135.343a4.527,4.527,0,0,0,1.565,2.931c1.42,1.387,4.866,1.685,5.92,2.481a3.216,3.216,0,0,1,1.332,3.307,3.556,3.556,0,0,0,.3-4.379A3.559,3.559,0,0,0,277.152,135.262Zm-8.817-3.908s0,.045.009.109l-.009-.028Zm2.369,4.54a10.337,10.337,0,0,1-1.721-2.735,6.133,6.133,0,0,0,.917,1.125c1.42,1.387,4.866,1.686,5.92,2.481a3.267,3.267,0,0,1,1.4,2.578c-.024-.03-.04-.061-.066-.092C275.719,137.432,272.416,137.748,270.7,135.894Z" transform="translate(-256.911 -127.444)" fill="#333231"/></g><g transform="translate(151.774 129.566)"><path d="M163.657,136.373c-1.248-1.584-4.123-1.308-5.614-2.924a10.822,10.822,0,0,1-2.063-3.883h-1.9v18.98a5.869,5.869,0,0,0-3.076-.849c-2.748,0-4.975,1.729-4.975,3.862s2.227,3.863,4.975,3.863,4.973-1.731,4.973-3.863V132.97a3.946,3.946,0,0,0,1.363,2.553c1.236,1.207,4.235,1.466,5.156,2.16a2.8,2.8,0,0,1,1.158,2.88A3.124,3.124,0,0,0,163.657,136.373Z" transform="translate(-146.032 -129.566)" fill="#333231"/></g><g transform="translate(243.091 140.452)"><path d="M233.461,140.452v18.981a5.856,5.856,0,0,0-3.077-.849c-2.746,0-4.975,1.73-4.975,3.861s2.229,3.863,4.975,3.863,4.974-1.729,4.974-3.863V140.452Z" transform="translate(-225.409 -140.452)" fill="#333231"/></g><g transform="translate(215.137 123.62)"><path d="M207.826,126.173v17.351a5.356,5.356,0,0,0-2.812-.776c-2.511,0-4.548,1.581-4.548,3.531s2.037,3.531,4.548,3.531,4.549-1.581,4.549-3.531v-14.61l10.022-1.9v11.2a5.347,5.347,0,0,0-2.813-.777c-2.51,0-4.547,1.58-4.547,3.532s2.037,3.53,4.547,3.53,4.547-1.581,4.547-3.53V123.62Zm11.759,2.264-10.022,1.9v-.559l10.022-1.9Z" transform="translate(-200.466 -123.62)" fill="#333231"/></g><g transform="translate(326.422 138.633)"><path d="M304.475,138.633v18.979a5.877,5.877,0,0,0-3.078-.847c-2.747,0-4.974,1.728-4.974,3.861s2.227,3.862,4.974,3.862,4.977-1.729,4.977-3.862V138.633Zm-3.078,24c-1.379,0-3.8-.962-3.6-2.487.149-1.2,2.1-1.616,3.37-1.616,1.434,0,3.79.862,3.508,2.482C304.458,162.23,302.619,162.629,301.4,162.629Z" transform="translate(-296.423 -138.633)" fill="#333231"/></g><g transform="translate(184.243 142.29)"><g transform="translate(13.255 1.463)"><path d="M188.379,145.694a.97.97,0,1,0-.971-.969A.97.97,0,0,0,188.379,145.694Z" transform="translate(-187.408 -143.753)" fill="#333231"/></g><g transform="translate(13.413 10.119)"><path d="M188.537,152.409a.972.972,0,1,0,.971.972A.972.972,0,0,0,188.537,152.409Z" transform="translate(-187.566 -152.409)" fill="#333231"/></g><path d="M174.286,146.469c-.01.022-.013.048-.021.07-.029.1-.069.195-.091.3.014-.02.029-.035.042-.056a1.511,1.511,0,0,0-.063.313,1.563,1.563,0,1,0,1.564-1.563,1.5,1.5,0,0,0-.466.094,5.823,5.823,0,0,1,7.386.277c5.118,6.12-3.6,14.739-3.554,14.928s12.508-9.638,5.141-17.006C181.148,140.747,175.458,142.645,174.286,146.469Z" transform="translate(-174.153 -142.29)" fill="#333231"/></g><g transform="translate(110.27 130.976)"><rect width="235.29" height="1.167" fill="#333231"/></g><g transform="translate(110.27 139.219)"><rect width="235.29" height="1.167" fill="#333231"/></g><g transform="translate(110.27 147.462)"><rect width="235.29" height="1.167" fill="#333231"/></g><g transform="translate(110.27 155.705)"><rect width="235.29" height="1.167" fill="#333231"/></g><g transform="translate(110.27 163.949)"><rect width="235.29" height="1.166" fill="#333231"/></g></g></svg>